<mxfile host="app.diagrams.net" modified="2023-12-10T15:22:34.999Z" agent="Mozilla/5.0 (Windows NT 10.0; Win64; x64) AppleWebKit/537.36 (KHTML, like Gecko) Chrome/119.0.0.0 Safari/537.36" etag="Deyc9sWtbAt5B1ZJOYaY" version="22.1.7" type="device">
  <diagram name="Page-1" id="YfTUR6v61Rx509DZIaZC">
    <mxGraphModel dx="1984" dy="606" grid="1" gridSize="10" guides="1" tooltips="1" connect="1" arrows="1" fold="1" page="1" pageScale="1" pageWidth="850" pageHeight="1100" background="#00004A" math="0" shadow="0">
      <root>
        <mxCell id="0" />
        <mxCell id="1" parent="0" />
        <mxCell id="IYNB7ZwwtuiIuKCf3Mfz-2" value="Lambda function&lt;br&gt;" style="sketch=0;points=[[0,0,0],[0.25,0,0],[0.5,0,0],[0.75,0,0],[1,0,0],[0,1,0],[0.25,1,0],[0.5,1,0],[0.75,1,0],[1,1,0],[0,0.25,0],[0,0.5,0],[0,0.75,0],[1,0.25,0],[1,0.5,0],[1,0.75,0]];outlineConnect=0;fontColor=#ffffff;fillColor=#ED7100;strokeColor=#ffffff;dashed=0;verticalLabelPosition=bottom;verticalAlign=top;align=center;html=1;fontSize=12;fontStyle=0;aspect=fixed;shape=mxgraph.aws4.resourceIcon;resIcon=mxgraph.aws4.lambda;labelBackgroundColor=none;" vertex="1" parent="1">
          <mxGeometry x="164" y="160" width="70" height="70" as="geometry" />
        </mxCell>
        <mxCell id="IYNB7ZwwtuiIuKCf3Mfz-1" value="Exchange Rate API" style="shape=image;verticalLabelPosition=bottom;labelBackgroundColor=none;verticalAlign=top;aspect=fixed;imageAspect=0;image=data:image/png,iVBORw0KGgoAAAANSUhEUgAAALwAAAC7CAYAAADfTPQTAAAAAXNSR0IArs4c6QAAAARnQU1BAACxjwv8YQUAAAAJcEhZcwAAFiUAABYlAUlSJPAAACYnSURBVHhe7Z2JV1R3lsdvbeCCgCwaFfcV3OICLkkbjTHdSbpnTro7c7rnZP6X+T+mz5w+Zzq9ZJIx0ZgW4wKIgooKsu8oboCobIJYy9zvrSpTFPWK9169KqqK3+eciqYoBau+777v7/7uvT+bjyGFYoFgD/yqUCwIlOAVCwoleMWCYn49vNtN3ucviN68IfJ4yDc+wb+6A19UpDwOJ9mylvKvDnn4liwh26JMsmdkBF6QeOIueJ/XK8Km16/5MU2+aX5M8e9Z2L7JKfL2P5Sv+Vj0vqFnfvEr0gOXi2yFBWTjX31OJ/mW55I9J5scWctE+DYIPxOPTCL+us0ef8MRd8F7Xk2SZ/g52Tq7yNt3nzx4dHWR7+UIC3+KLwAWOC4K/Bi4MFTSKH2w2UTI8iseHOVtSxaTPW85ObZsIceG9WTnh28r/z4/jxz8tXgTF8H7xsbIy9Hae/8BuXv6ROQ0OEg+Fr732TB/bYh8fCGIwBULC0RyiL6wkOwF+WRjodOKFWRfuYKca1aTY1cJ2d9ZSbZlywJ/wFosE7xYF9iSURY7onhLK7lv3yV3QyN5enoDr1IoImPP4wi/dTO5fnWKnLt2kn1tEdmys8m2eJH/LmERlglerMvjx+S5eIU8N26Su7WdfBOviCYnyQf/rlBEA5GfvbyNPb599SpyFu8Q8Tt2bCf7isLAi2InZsHDmng6Osnd3kHuljbyNjaRt/c+WxdegCoUJrAtXSoid+wsIefuEnLs2U3Od/eQLSsr8ArzmBc8/zHf+Dh5Hzyk6fMXyH2thgXfKpkXWYQqFBbg2LSRnIfLKPOL35J980a/zUE2B4tgE5gTPP8R7/Q0uWtukLv8J3pzvZa8A7woVWJXWIzYnOW5bG12kPM3n5Lz45PkXJZFNuT2TWBY8BA6Mi3uWvbpHNU9dXfI++ix8umK+MH+3s6R3c62xvneEcp4/yg51q4xlcnRL3hYGI7e7sdP6E19A7m/+pq8rezZnz8PvEChiC+2zAzJ3mT+8d/IdfQw2bduIZsrg8iu397oFrzP4yH32Di9+fY0vfnHNxzVn/CC9ZXKpSsSB/t226JFZF+zijJ+85k87OuKxPboRddeLsSOSO4uv0juqmvk7emVzSUldkVCgcuY8pejvKmqpulz/yT3k6dis/WiT/Asbk9HF7nPniNv/T326/wNjFl/hcIaIHrWn6epmaZ/PE9vkAYf1m+rdQne09hMb747S572DvKOjgaeVSjmD9RgwVbLWvLW7cCzcxNV8Khq9HZyZL9xi9w368j34qWyMYrkAJGe15BInLhv1ZEbzgP1WXOgLXj8hePjfrHzFYR6GJV6VCQVHHxlbclih6f3joz4a7qioCl4WagOD9P0xcvkaWsPPKtQJB8oVnSjfuvpAHnRaxEFTcFjM8l9p548qIsZHQs8q1AkH97xCfLcf0Ae7Pj39QWejcxswcPKcHT3dHb7/wK04CnfrkhmWJ++Z8/JU3mVfC1tfuvtjZxFnCV42U0dY++O6kdeDNDEROArCkXy4pucJPe9JnI3NktBo+9N5Nz87AiPPlNe+XrQkvdsmHwquitSAQ7UPg7OSK54GpuINDI2syM8GjaQ4mHvrjaYFKkGdmHd9Q0i/kjanR3hp6ZkV9U7OBh4QqFIHdAvDf162JZjLRrODMFLjfvIKHn6+/2bTApFioHNJ7HiGBqAOUdhzBA8elA9A4P+Zg61WFWkIsjYsNB9Dx8RvZwdtGdaGr4qMD9GhiYpFKnK9GtZvCLShzMzwmNmDGbIYLGqMAZqtTMz/F33eXmWjpZQGAM1YNhHglMJZ6aHZ9/u4VuBVg5ToQ3GydlXriTnls0yX8VIU4LCYjjCI3Bj8Fc4MyP8OK9sZb6jyr0bxZa9jDJOHqeM330u81QQ6RXzg8/tIR/7d9/kq8AzPzNr0ep98SJiOkehjcxRWVtEzqNHyHmkjJx795CzZAfZCwoCr1AkFIzxWISJZa7AEz8zQ/DIwfvQ4KEEbwgMDcJ4OMdufrClwYBQx6Eysm9c73/zFQlF7OWqd2RScTgzIzxmQ6rZMobBhCyxMdn+Nxj2xvHRCbLv3uWfjahEn1BsS5aQ68A+sq9fF3jmZ/yfBCokkb9E3YwSu26wMJXJWBgHt2O7X9yAI4xj9WqxNc6S4p+fV8Qdv71cQ86yUrKvWxt49mdE8JjUIYJXVsYYHEkcHEkcmHaLgZ+BVCRGwWHWuXP7Nvb0h8m2fLlKUyaIUHuJEdzhqHttDASti42jeyQc27aS69SH5Ny6RSZnKeJPuL0MRwneJPYivm0e3C95d3tuTuDZMLAR9c5Kcn7wC7Lz6xTxQ9NehqEEbwZYFkRvFrKTb6Gah3ShPJWtjesXR8lZzB8CXmdy6q0iCtjlXpbFvv0AW5ldM+xlOErwRmGxI3o4drA/P3qYiBdJWmDCrR2LqHXrJFVpf+cdSZkprMWW4ZJjcly//lS8ezSU4A1iW7qEXKUHyMle0Z6fR7Zoi1FEHhzktYhvtxzhnRzprRjqr5iJfdUqcuzdTY716+acKKwEbwQWtz0/n1zHj/ktCsSu06I4eOEKCwRPr+psLAIBhW2ivLeHD8laaq658UrwBkCmRRZGZaVkWzs7xxsNOapxO/t+bIisWR14VhELsqPKNtHJd1zXcQ4mOubFK8EbAJkWidKr2IuzTTEE7g6FBXKCBXwmSonVAjY2YA9hEx17dpEtN5dvo3OfCqIErwcsVHnx6dxVwm/we5IRMIN8QEcOkfPdvVJKrBaw5oEthD1EAIKl0YsSvA5sixeTk6OIE7t3GMCPUyfMwBEdKUxcOCglxsaVwhywhbCHsImwi3pRgp8LtiK2gjxywMqU7PAvOA0csTILiH7jBikllsN3o6Q1FdrYOKo7jh/jzybfUNmGEvwc2LOWSrrLgTOFNmwIPBsbqPGAj5cTp7FJotBPwF5iH8RedtBwwFCCnwNsGDkPlZGT/aLd6EI1Cqj1kJOmd5YEnlHo4a293LzJf3wlXwBGUILXAjlenBq3bavsqCIlafTNjYZ/t3a7v/Zj00aVm9eDZLryyXnqQ3LAXiIrYzDTpQSvwdum7OId/jTiksWBr1gEPjy2MygtRokxSo0V0bGjOpUju+vY+/KrGZTgNQg2ZSOjIsVhccqZo7RYSoxVxmZOcEfM+OhD2e02exK3EnwE/F0z/qZsZFTiJXaA7XCUGKPUGCXHigjgbpiXx3fDEl5PlfrrkUx+JkrwEZira8ZKJC/P3082UHi9oPpfZyO17ls5KCCrtXWL8V3uENS7G4G5umYsB7u4vDBGqk0aF5ToZ4AZP5LR4ggfK+qdDUEiiY6umUh43G568eIFTYyN+ZvhDczVR9UlSo1RcozSY5QgK/xgto80w+/dIzXvsZJQwSOHastbLlds0qXhkIZkb+hgLx3elD0nLO6pqSnq6uig+319NMLC9xhpiMf35u+FkmOUHmNRZmT3MJ2xr1/rn/GzYb2uasi5SKjgHdu2UMYvT5HryOGkK5FF14xtZSE5Tp3UbMrWAtMeXgwO0tkzZ+jM2bN0884dmng1e8zbXKDkGKXHuMuopm8/NqSFLcxiJUTwsju2dze5PjxOGf/yGWV+8bnULyfThgu6ZmRE3mYWm1ZTtgZPnj6l+nv3qLGxka5VX6PKigoa4OdeGxw7jsUYSo+xgF3oTd9BzSAtjBk/mPVjBXEXPH5wDMZxnfhABO96/yi5Pv6IXBxJXUcPcaRfJa+ZN2Angl0zvHB0FhZoN2WHgXk+bvbrXd3dVH39Oj3sf0jtbW1088ZN6u7qppGRkcAr9SPNyL94Tz5oqRNZiAtYfCZse/E+uEqKZcaPVbvccX83xcZ8+ivKQIMt0m4BnO/uocwv/50j/q/lNfOFma6ZIPDpo6Oj1NDQQBVXKmiMF6xer5dGWejXr12jHha9UVB6jBJklCKjZmReg8E8IU3ZaJbh4Gg3uaOqRdwEH2pjXCdP+EthQ7bnsUDEpg6+htfgtfPx4ZrpmgkyMTFBtTU11Mh25vnwsET74PN3bt+m1tZWydwgg6MbO2p42NqUsHdFSXLBwjtcwb5+PbkOl5EDvQcmMlY4a9jzapLcOKGbf8X/B4mL4MNtDKJ5pFoUPIevyUXBr8WfSajoWUi2/Dx/bYaBrhkAf/6UffqVy5epo71dInsQfK2zs5Oam5okczNl4gghlCKjJBmlyShRXhAE7CXSkJKtyl1uqoTA/eYNPXvyhEaeDdGbV6/iL3gtG6MFXoPX4s8k0t5IU/a6teTAQtVA1wx4/Pgx3a6ro3sN92gw7GgVeHtcAA319XT27FkaiXC41lygFBklyShNRkpuIRC0l1JQt+9dmQJshrHxcbpYXU0NHZ004fNS6HhgSwU/l43RAq/BaxNtb6Qpm6O7zUDeO3i7bG9qpkr27YODgzQ9PfuIIBtHq8GhQY7yzdTGC9lnz54FvqIPLNLsOTn+uw9GgiyApu+39hILdvQNO4zLE3fXwaEhunHzJvXe7yNP2AagZYLXa2O0SKi9YTEhA2KmKTt4u2zihepNflNfRTjeE2LHY5IvjEePHknW5sH9+wj9gVfoI/ieyNCnNG/6lnWLiabscLBm6ursopaWFg5GQ4Fnf8YywRu1MVokwt7InchkU/bb2yX7c4g91LsHCVoaPMZGR+nSxYvU0tgkBz8bFT2Qstg0b/o225QdTktzM10oP08vWfiRPpuYBW/WxmgRd3vD1iXYNWNHYwc2vnQ2ZUPgDx8+pNobN6i3j2+XHo+IOxLB59/wHeEJ+/12Xti28mNyakqeN4K0GaZr0zfuhugsw46qiabsIPI+8523pbmF11UN9Ep2umd/NjEJPlYbo0U87U0sXTPw600c2ZF9we/1gCiDOpv2zg6q4QsFm1GRIk800rnpWwrnWORSim2iKVvg4DLJAm9lGwMrgw3ASOsqEJPgrbIxWsTD3sTSNXPv3j364cwZGn7+3LBoO9ra6TJbG3j6ycnJwLP6Sdumb6ylSg/6T0sx0ZQNUMs0MjxMl376idpbWwPPRsaU4K22MVpYam8Ct04siIx2zSBCI3IgzdjZ0cn/b1ywuMXCDlVfvUo9PT2BZ/WTlk3fiO6YuYn9BhzmjACk8zMJBbVMDRyM8BkNDc1eqIZiWPDxsjFaWGVvsKFhLyqSJgsjXTOI5C9fvpRSARSH+XdOzZ2FNTY6RlUVlbKwwkVk6C4BcaDpezcvtssO+DNLJsSRTIi93Mjrk/3vmqueZSuD6N7b20vXa2s5oDwKeHdtDAs+3jZGi1jtDerwM//we3IePBB4Rh+wH7AhsCOwJWaBuPFhdHZ0yMKqt6dX02dGA14Xg//RDIGak1Qm1qZs7Im4x8apq6WVamtqaWJ8PPAVbXQLPlE2RotY7I10zewsJueB/VKdaQTYj+qqq/TgwQOpkYkFZHUgeiyucMcY1/EBhYPiNsemDeQ6ckhqTlISsTKxN2Wj56Du7l1q5Dvm4MDA21qmaOgSfKJtjBYz7A0/pAtGR52Jma4ZRGTx7vxmVlZW0MjIqGYK0ii9fBFdv1Yt6Up8DyMgEqLGxHns/ZQ9Nwrrj1ibslGQ9/z5C6rgwNHS1qbbIuoS/HzZGC3E3vzrr2nRH7/gRdyuwLPamOmagd2A7YD9wEL1tUFhRmN0bJR6uvnOUV1tagFLvIC1Qyz870rFc6OsaMoeHRujvr5eqqurk2SAXqIK3iobg/oGLCywvW64XDYCYm/W8B0HzSTsAXF7jxTpJZKgKXvLZkNdM5Lmev5c0lzYxECO19ACcw6w6MX7UHPtOvV0dhpv+pYonyMXe6qdG2VVUzYqVC9fukSPDaZ5NQVvlY2B2IcGB+kGr6LxaGttpXGNLXkj4DaI22HGiWOU8ckvebW/Yabo+TYv3UNlB8jJdygjXTNY/PRx5MUbikVmPMCHhKwPFsLDg0O6/Odb8G9jH4yMk5xIggVsKqQpURC3cX1MTdnQDdZSeO8qrlyRjTwjVlNTAVbZGJTR4tb99d//Tn/6rz/RX/7nL9TH0d7M5ksk0PiMizLzi9/NsDdGjjIMp4UvyvPlFyS/ayaTogd8cChVuNtQTxcuXZTOKaOk1LlRKNiDFePPKJambOgGu93trW1Slo2SAiPMErzVNqaqspL+ee6ceFZYGnQHffvNt1R365ZcqVZEeqmye//IDHsjXTP8e2Q09EaS4GyZZvbtt/jnQ+GXlVYmFEQlPPp6+6i29oaUtOI9M4IPi1W2NnZE+RgqDBMBxO4sKRY7Y7YpG1ZzlD+fqooK6SZDMDKaSJgheBTcW2ljbt64QZcvXpJOfqTgcDWimx/jLC7x811dXZaJPtzeuPbvNdw1g84kdCihVgYdS0YFaIRgCTF2BrFDiJJWXGyGwIe9aBE5cAI1C8mGaQsm8tlxh+2Xbflych45LCUEZpuysZZ6guK96zXiEszg+E9G3ji+eny88rXn5vptDLavTa7++/v7pdfzm6//Vzx7uHDgV9EQgbTcxk2bKDs7mzJ0TgqIylKO7IUFcuE6yw6Sc/8++b3eashnLL6/fvWV3H0gPqvSkNGQ78GP6TfTlJ+fL++HXuSiQU47g/37K7aIfLv3ckDhKzfwiuQAmkJ0z/zyD2KPzeqqkwMkpkMgkOrx7vv48z9w8CAtxno0cIHJf4NvHGahW2Fjqquq6PyP/6Tu7m7p5A8FPyQ2YCAutMf93zffxMXeOPjfYqRrBqWld+/epSZeDA0MDCRM7HhgMwrZIKRA8XPo9qX43OCNnQ5Zc0mXf17yNX1LZxnutkVrTOkKuoA+0D1WVVlFL01UnAbxqyEgeDQMW2JjLl2WnUR4YC3hIMpjd+yHM2fpCq+2caHgg7fK3uie+gvR8QXYw9HjGi+u+/sfzlmPYTXwoihphZXCBTc5wd/f4AWHRStqUlCbghqVpAC6QlO2HLtv/rhP//vTL+NQ7t65I9bGLMaNlAbIxlxjkcPG4AeDcKNFSXwdoseq+wbbn3/87W/U19dnWfZGL2bqMeJFfX09fX/6O3o+NCgXoREkN8+WCLUpqFFJBoJN2UhBxnLcJzJY5eXlHBAa59TVXMQs+Ig2JkpkDyUoelwssDXnzp6VElwr7I1esJiuun6N7rCd0VuPES8w3QA7r/c4yiMlaghEUzRBHyqVHcxksDZvm7KlCZ3XGSaO+4RXR4bvTt1tuQvGInYQk+CN2phIQNgT4xN0v+8+/fPHH+kqXzhYgU/xbSt0nkg8kKwRryXKL1+mhuYm4yW7FoOL7cXz51TLFz+CiER5A+9l0M7JYQ6oL5/HzSh8byuasrGmQRDs6uw0nsWKQEyCN2pjogHxYSMBu2dfs70ZetBP3jhnG5ApamttY9/cJN97vsH7h9s30m6wWLBaZi56RHg50CFn/iYQW9WUjQ6myyY35iJhSvCx2Bgt8GexOHn08JFs+nx39gw1NtTPGpVmCfy9UL/S3dFB1Ver5C6F750M+C/8ASl5RemrmbHb2GGWScglO6R2JaHAWqGzDD24H5+UNLEZayWVqi0t0lYJS/N62prgZ1jwVtiYaCBD0sf25vQPP1AlX1CPeCE7bbHokRbFoQXIimC/AGuGZAFRXj7stjYpfUUJrNFiO+wsY6EoNSsb1/OnHPNSTTeyUMVxn+/uJafsepvIzLCWxsfGJJmBzwhWxmyXWTiG3wkrbYwWQXtTfukS/fmvX9HAgweW2htETRxa0Mhvppl6jESAkleUvvb19UoprFFQq4KaFdSuJPLcKHzfWI/7xNpljEVew9aup8fcjqoWut+FeNgYLYL2Bj2KtTdv0mm2N01NjYbLaCOBfwfKG3BoQSv7d3yfePwbYgVR/ikv2FCxiVJYw3CkRc2KlOKWFPtFH2esOu4T6enrHN2RvIDGrESX4ONtY7QItTdV1dX0uL+fpvlniUX0uD22t3fQjdob1M93jmQGCzVcmCiFNZqqxQ4salac27aytSn1F9CZFKBeYj3uE3pCpqoVI02uVEidkdV3X12CT4SN0SJob86Xl9N///nPNMRRz+imTChzjWJLFvCz+e9GA1IKi5JYM5tyOFBASg5QYxTnpu9Yj/sMHjDR2dkhqch47HhHFXwibYwW+F5ibzCUlO3N/53+jhr5ojNqb4L/FryRP49iS24gevzbUVV6i++u4yiYMnix40ABHCyAAwbi1fT9trPMxHGfoeAuhiRCMwclCB8XgNVoCn6+bIwWmMQr9ua77+gq25sBFFkhlajj50GGB+enYrcOd6hoo9iSEdSR4Gd/inY2gxdqsOkbxVvw83Fp+l7CFxVy7sFRgCbSkLiTw8JgHyb8gAkr0RT8fNqYSASjHd6Uq1er6dvTp2mYL0g9EQ8ZnhePHtNFtkVtLdFHsSUjaPrG3ek6B58+E+sOlEjjgAERZByavoMZIaPHfYaSqE3AWYJPBhujBW5x+PlQb3K16qr4epyaN5e9ud//gGrYDuG0PTMn6803yEFjnmVlZZWUyBquNXLYpVJR5sBY3PSNkl/nwf3SKG/0uM9Q0Dfx04ULkkGL5913huCTzcZEAh/0c/7wm1ta6MwPP1Btba2mvQn6/5aODrrC/xZEkWTMuesBVgalscjYPHlsoGY+BDma08qmb2SCtm2Vv9PJVkbvcZ+hBBeqaP1EO6iZ4VRGmCH4ZLMx0cCcGMyLOX++XNPe+DM8A9Ta7B+EmgoLVS3wOeDzQBEVApEZYVja9I3GE16cYnKC8+hh6TYzA+5WMs2C79RaB0xYiQge3wTfGKJINhujBX5mRD38rFr2BtvTFRUVcvHGa9WfSPB5YFOm5vp1cwcf82ISBw7g4AEMcYrl3Chkf1ylB/zH8eTnSQORUXAiyiivyTCfp7urSz6feGtuhuBbeUGXjDYmGthIimRvkLPGENQrly7JhRDvyJEopLCMb/+wNyidNYrshpYd9G8OsfjNCBUXDppNJPODWnf8HSYunPGRUerv6ZV/C4oGE8EMSwNR4JEqYg8Syd5gopeMsuvukSxHOoG7FUpm5xr+HwnswOLgATmAoPSgKSsix30i715WKnOBzNLa1UkX2Lc/jfNCNZQZguebZsqJHUSyN+fOnZNjJZHdsKrSLhlAwz2235GpQi0QMmpINuiG/zxy8054+RMfkGP9WsPHzEhTNha/q96RphOjBOf/tLCjuFVX9/bI/kQQJvjUJtTenD9/PuaG32QEgofXffniJS/0WuWIeyz2OFIFXqEPKfI6VErOPbv1nxuFhSpfHGaO+wwlkfN/wkkrwYOgvXn65GlK2rO5CLWd2ES7eOEnGnn2zFR9kdFzo2QqncnjPkNB7y5OKEeSJNGfUdoJHm8gojo8YbqJPUjw3wUvL7Pma2ole2MUf1pR/7lRiOh2nFyOEgW81kRTtuyotrXJBlqi5v+EknaCX0jAy0NAl69ckZJa/L8hASHbgnOjijG+ejcRR3AtEN1ta1aTAyePbNgQeNYg/LOhLug22zCMuZ6PfREl+BQGdzNsQGGeDUpqze412DGA68A+ya1rIdOkjx8jFy9U7SYWqhA78u497N3Ruoc0+HygBJ/iIKpD6CipNdufi1p5Byb7Fm+f3fSNrA5OykYaE3X1OTnmBqHy2gonkTe1tMhIFquaso2iBJ8GINKjpBaltWa6hIJN35jua9/EdiVE0G+bstn2YLPK7GxI7ArjJPImvjCtbMo2ihJ8moCSWpTWosQWvt4oGLXt/OxXMp8ytOnbiqbs4K53rEd/WoESfJogvQKDgzJnB3U2RpFhuitXyCkqqJGBn7eqKdvfwFInjTfz5d2DKMGnERATfHxri4kWOXh1Fj18vIy2zs8n++pVMTVlw8pg+kI72y2M3MCO6nynipXg0wh/OfSgVIei5NZMNEVtDGpkkJfHkUGxNGXjroOjP+/euSu73slQnq0En0YgekJkOHkQJbcovUUq0AhyqETRanJ89gk5A6O3zTZlI2WK6luUECC6J0N5thJ8GoJSW0RUlN6iBNcoiOiYC4l5NmabslEfg1JmCB67wcmCEnwagiiPkluU3qIE1yjBEmJTG0wB0D1Xf/cu3e/rS6rybCX4NASLRVgIlN6iBNef9zYwkBULWIfD1AYTdlTRddbR2kaVFZVJV56tBJ+mwFKg9La1tUUsxWuDXt4s2PnFyeLNjY0yOEtKl5MIJfg0BQtYRPr2tnaqqqqadZpivEA6FCeL44TxRDRlG0UJPo2B6FGVWH/nrqQH4z2TRxaqQ0Nysji+XyKaso2iBJ/mwL8jTYnOKGmUjqMA8b1wojhO7hgcnP8jhCKhBL8AePnyJZ35/nuqv13nz8vHSfSpMJlZCX4BgB1Y1LOg6RsluijVtRL8/RgZgpPEk30ysxL8AuBtTUtnh5TowstbGYGnJqdkphGsTLJPZlaCX0CgNBcluijVtfLEc2wsmZ2Tk2iU4BcQKCZDBPaX6vYHno0NWBnsqMK/o/kk2VGCX0AgRYh8fG1NrWxKwXqYThvyn8NokJ6uLrpWXU39fCGlwrBaJfgFBkSJeTCYqIziLqPtgEFwqgpOCseJ4biAJuI85toqlOAXGFisomwXJ1xjsjImLJsBZ93ipHCcGI4LByUFqYAS/AIENqajo52uXLosVZVGR92hEA0nhOOkcJwYjgxQsubdw1GCX2BA7BDnyMsRKd3FghOlvEYY5bsCTgjHSeE4MTyVUIJfgED0MpD15UuqrKyUUl4jx4BirB9aCHFSuJXpzUSgBL9AwRRiLGBv3bwlTd8jqJmfowUvuIGFGTg1NTUS6U1neeYJJfgFCsSLDA2yKx2dnXTzzh1ZiEYj2JSNEgJMaMak5lRDCX4BE7Q27e0dVFlRIUdGai1gkXMfYwt0vbqa7wgtMqE5VRaqoSjBK6j/wQP25DdE+CjxjQQE/ri/XzaZkqkp2yhK8AqJ1CjpRWkvSgQigRPAcRI4jthJ5TOzlOAVAhawTY2NUvWI+pjgDiwuBtTg4AADnASe6mdmKcErBAgcHVE4Ah6iR8kvwEIVhWaYZpYOZ2YpwSuE4IZUS0uzlPoGbQuassvLyznCN8rXUy0NGY4SvOItELOcwcRRHjuwOB0bTeCI7CgrTnWxAyV4xQwmX02Ktbl27ZqcbI5FLISvlb1JNZTgFTOAbYGNqb1eQ9+f/k6Ol0TdTbqgBK+YBRawKPnt6emmnu5uw9WUyYwSvGIWiPKomRkdGZUTv5NhzLVVKMErNIHw0yEzE4oSvCIq6SR28FbwDpuN/8fcoVUKRTICPUPXoYjg8Z+lNjtlhH1RoUhloGfoOtTGyO8x+N61ZAk5cA6nQpEmQM/QdejBDm8F71iymJyLMsmBkx9UpFekMNAvdCx6Zl3PEnyQjIxMWoLDaM0cdaJQJAnQL3QMPYczQ9mZmZmUlaUEr0hdEN2dTifrOEv0HM4MZWcty6KCggL5AwpFKgLBZ7B3LywsED2HM0Pwq9esoV27d9PixYsDzygUqQU2yiD4nbt2iZ7DmSH45cuXU1HRWvkDCkWq4nK5RMfQczgzBJ+TnUOrVq2izEWLlI9XpCTQLfQLHUPP4cxQdf7yXNq4jq+M3FwV5RUpCXQL/ULH0HM4MwTv4hfn5uXRps2bKZ8XrwpFqgHdQr/QMfQczgzB47jxJVlZVLJzp9wSFIpUA7qFfqFj6DmcWUZ9yZIltG//Plq3bl3gGYUidYBuoV/oOBKzBA8PtG79etq0ZTMVrS1SXl6REkCn0Ct0C/1q6XaW4B1Op6Rztm7dSrt2qZy8IjWATqFX6Bb6hY4jMUvwQbZu20bHPjhGObziVSlKRTIDfUKn0Ct0Gw1NJRfk59OO4mLayQuAFStWBJ5VKJILiH3lypWiU+gVuo2GpuBRbVZUVERHjhymzZs3iydSZcOKZEI2mTIzacuWLaJT6BW6jUZUr5KdnU0fn/yIDh8qoxUrV8iWrUKRLKDIsaCwgMrKSkWn0OtcRBU8/sL8FYVUeugQ/fKTT8TaKNErkgHosKCwkI6fOEH79u8Xneqp8o2+GmULY+O/pHjXLvr0009p5+7dlMceSVkbxXwC/S3Py6PikmI69fHHtL2kRHQKvc5FdMEHQMpnw8aN9OV/fEmHONrDOynRK+YD6A7627dvH/3u91/Qtu3bKXvZssBX50aX4PENsngxgFXwByeO04cffUQ5OTlK9IqEAhtTyLb6o1On6MOTJ2n3nt2iQ62ceyRsPoOTdnA6REN9A/3tq6+os6NDzvrELMJ0G9ijSB4QWCF2rCGLd+6kz3/7WxG7mXovw4KHuMfkJOY+Ov/jj3ShvJwGBwblpAiFIh4gJY4sIRInn/BaEvUyy9jGmEmgGBY8QBsVTmBuqK+XOeI3amroft/9tJkhrkgeUCawYcMGOnb0CB1+7z0q2btX1pSw2WYwJfggOOwK5//gSJS6W7eos71Dnns9/TqlD75SzC8Op4MyMzJpKa8bt27fRodKy+hzju4ri4pkzkwsxCR4RHpYGQzQx0kRt1j0KtorYgVRff2G9XToyBEqLS2V+vbl2TnkzHDNGKpkhpgEHwrOBkK07+GFbFNLC7Xwo6enl8b4YggegahQaAE/viw7mzZt2kglJSW0ix+btm2jorVrZXSMVVgmeIH/Ki9H/Nb2drrJ0b7meo1cBMjkTE5N0fTr1+R2u9Nu5rjCGMFcOnZGUQuD+pfcnBwZq3GEvXoZR/Xi7dvJjpp2i1Pf1goe8F8HcU+Mj9MY25qu7m6J+K2trfTg/gMaGBigV+zz0+lUCYUxMPcRIkeV40aO6AcPltK2LVuoaM1qWsZ2ZmlWFi1etMhysQPrBR+E/1ofi/rZ8DA9YZE/ffKEhvn38PbDQ89oZGTEv8DlqI9ToF/zRaJITzA2Ay13iOZYiGKzKL+wQLx6QUEhbWC/Xsi/5mQv8/ehxnFDM36C1wCLXByYNTg4KBcARA/LMz46FniFIt3IYiHn5uaK2PPz82UDaQVH9/loH0244PHtsIiFlw/6eQ//6uFfFemJg/06tv+Dvh0PLFITX5pC9P9ebxlEAP0loQAAAABJRU5ErkJggg==;fontColor=#FFFFFF;" vertex="1" parent="1">
          <mxGeometry x="12" y="160" width="70.37" height="70" as="geometry" />
        </mxCell>
        <mxCell id="IYNB7ZwwtuiIuKCf3Mfz-3" value="" style="endArrow=classic;html=1;rounded=0;entryX=0;entryY=0.5;entryDx=0;entryDy=0;entryPerimeter=0;exitX=1;exitY=0.5;exitDx=0;exitDy=0;flowAnimation=1;strokeColor=#ffffff;strokeWidth=3;" edge="1" parent="1" source="IYNB7ZwwtuiIuKCf3Mfz-1" target="IYNB7ZwwtuiIuKCf3Mfz-2">
          <mxGeometry width="50" height="50" relative="1" as="geometry">
            <mxPoint x="310" y="220" as="sourcePoint" />
            <mxPoint x="360" y="170" as="targetPoint" />
          </mxGeometry>
        </mxCell>
        <mxCell id="IYNB7ZwwtuiIuKCf3Mfz-4" value="S3 Bucket&lt;br&gt;" style="sketch=0;points=[[0,0,0],[0.25,0,0],[0.5,0,0],[0.75,0,0],[1,0,0],[0,1,0],[0.25,1,0],[0.5,1,0],[0.75,1,0],[1,1,0],[0,0.25,0],[0,0.5,0],[0,0.75,0],[1,0.25,0],[1,0.5,0],[1,0.75,0]];outlineConnect=0;fontColor=#FFFFFF;fillColor=#7AA116;strokeColor=#ffffff;dashed=0;verticalLabelPosition=top;verticalAlign=bottom;align=center;html=1;fontSize=12;fontStyle=0;aspect=fixed;shape=mxgraph.aws4.resourceIcon;resIcon=mxgraph.aws4.s3;labelPosition=center;" vertex="1" parent="1">
          <mxGeometry x="322" y="160" width="68" height="68" as="geometry" />
        </mxCell>
        <mxCell id="IYNB7ZwwtuiIuKCf3Mfz-5" value="Event Bridge" style="sketch=0;points=[[0,0,0],[0.25,0,0],[0.5,0,0],[0.75,0,0],[1,0,0],[0,1,0],[0.25,1,0],[0.5,1,0],[0.75,1,0],[1,1,0],[0,0.25,0],[0,0.5,0],[0,0.75,0],[1,0.25,0],[1,0.5,0],[1,0.75,0]];outlineConnect=0;fontColor=#FFFFFF;fillColor=#E7157B;strokeColor=#ffffff;dashed=0;verticalLabelPosition=top;verticalAlign=bottom;align=center;html=1;fontSize=12;fontStyle=0;aspect=fixed;shape=mxgraph.aws4.resourceIcon;resIcon=mxgraph.aws4.eventbridge;labelPosition=center;" vertex="1" parent="1">
          <mxGeometry x="165" y="31" width="68" height="68" as="geometry" />
        </mxCell>
        <mxCell id="IYNB7ZwwtuiIuKCf3Mfz-6" value="" style="endArrow=classic;html=1;rounded=0;entryX=0;entryY=0.5;entryDx=0;entryDy=0;entryPerimeter=0;exitX=1;exitY=0.5;exitDx=0;exitDy=0;exitPerimeter=0;flowAnimation=1;strokeColor=#ffffff;strokeWidth=3;" edge="1" parent="1" source="IYNB7ZwwtuiIuKCf3Mfz-2" target="IYNB7ZwwtuiIuKCf3Mfz-4">
          <mxGeometry width="50" height="50" relative="1" as="geometry">
            <mxPoint x="300" y="300" as="sourcePoint" />
            <mxPoint x="350" y="250" as="targetPoint" />
          </mxGeometry>
        </mxCell>
        <mxCell id="IYNB7ZwwtuiIuKCf3Mfz-7" value="" style="endArrow=classic;html=1;rounded=0;entryX=0.5;entryY=0;entryDx=0;entryDy=0;entryPerimeter=0;flowAnimation=1;strokeColor=#ffffff;strokeWidth=3;exitX=0.5;exitY=1;exitDx=0;exitDy=0;exitPerimeter=0;" edge="1" parent="1" source="IYNB7ZwwtuiIuKCf3Mfz-5" target="IYNB7ZwwtuiIuKCf3Mfz-2">
          <mxGeometry width="50" height="50" relative="1" as="geometry">
            <mxPoint x="200" y="110" as="sourcePoint" />
            <mxPoint x="410" y="260" as="targetPoint" />
          </mxGeometry>
        </mxCell>
        <mxCell id="IYNB7ZwwtuiIuKCf3Mfz-12" value="Snowpipe" style="shape=image;verticalLabelPosition=top;labelBackgroundColor=none;verticalAlign=bottom;aspect=fixed;imageAspect=0;image=data:image/png,iVBORw0KGgoAAAANSUhEUgAAAQIAAACBCAYAAAArHLSSAAAAAXNSR0IArs4c6QAAAARnQU1BAACxjwv8YQUAAAAJcEhZcwAAFiUAABYlAUlSJPAAAF9ESURBVHhe7d15dyTHdSD6bDQaQLO5Nfed1ELtC7VL1kJrZMlPi9/IfmfOzHn/zTd5H+S9v+bMnOMz59iyZXmRLNHaF0qktZCiFlIUxaXZ7OZONtBAk+/+blQUEoksoApV1WjKuN2JqszKjLgRcfe4EXno1YDmAA7gAP5Dw8Lg8wAO4AD+A8OBIDiAAziAA0FwAAdwAE0z1xhBLVgNr8Tnufjiu+v5vTk0OK937hccag4fCqnoiO+BVXw/FAcMfQ5uO4DXPLyC4GJMK/05R5uvxGXf95MSDyfNbWrn+r3QYrk2L5ibIFCoktejh89GT6/FyUsbrzYvb7wSg9A0L8Z3x3qc7Gfng0PR0RcdbppLFg81yyERjsaxEsexwfmR+J2gOIDXLqBFdJb0GF/Wgu5eWH+lWYtzxwvrrzarQadnEec+APo6trjQXBQ0txLcvxicjw4vPlI+4yMFxbxgpoIgSwpcz0bHvhxMfiokwOMvx3Fmo3k+OvqFuPbSuVeaV6LDV+OeM3FOGu9P128Crb8UnZ8dHgOwHN8JgeNx8doYletXFptr4vPYYhMCYiEHbX5DcgCzAvSIvlaDuV8MBfRMSIA/vHyuOb32SvNsCIHn4qCkCIczcQ/hcK48et4BPa2gvSAutMgCQINXxMlNFy0GDaLFw83FcQ2NosFZwswEgUKCx7NDT589F8x/rnnwxXPNL5/faH7zwkYMwithEZDA5V7VRv8PYP/ZijtA4LIOoq/DQiiC4LZjh5vbLznSvOHixeaGowvN1TEglx1ZaJbiHlL7AC48QFbMfLRG059cPdc8EQch8ItnN5rHgjZPBz2ySDeCCNHhpluwT2OK9gIHtS8M6Ip1cGXQ4BuCBt9y6WLzpqDDG8N0vTI01aVBg7NUSDMTBKyA4Pfmty+sNz9++mzz78+uN0+ENUDyvhTCITscu0VtqsR0w5pn1ZopoEQGIBffAzljwRwrLkLTHI+Of+OlR5p3XnakueM4obCYrsSsJfMBTAdICmOvhlZ6JOjv/ufWmx+cOts8Gsz/dDA/q3Q1jpAPGScYPlTpcb/GM+pOyz8+E42kwVdDKXENmmR8FsHbQyB84MqloMPF5vKlw6m08rkpYWpBwPQ6E5r+0TOvNA+E9r8nhMCvQiI88tJGEwI4zS73ADXtVz9PAjkQ5Wt2MqGwFF+uCmvgphgV0vltIRB8Xh+Dw6U4MA72H4wbd5NF+qvnzzX3hRBgkf72xY3m2RACYgGhk/K+8ue1AyVm0IQCOpy09+7LKSUK6XAKCXQ6DQlOJQiiz4PZX20eD45nBXw/JO9Po/N1esiGhCqtXqt8onNqD2nDEpchTIU7ji81H77qSPO++LwuBuNYXPf7LKTzAUwGdYzEApj9vwrm/9ZTa8398fmHUEi0PysBTMsw+wHZvsEXFijX4PXhqv7pNcvNe44Xt5WQMLuw17btWRB46Lno4YdC2n79ybXm35852zwY36PfN02uPzLQKh0tentZCAPxA4PBVHvzJYvNUkjtA8vg/ANyo5B+F/T33VBG333qbPPwyxsZDIz/xRL9IxiXylU1hnXzRYebT1yzEjS4lILBtb3S354EAfPqhVD59z230fzw9NnmeyF9+WBmBrK0QKaLj8t+q5VNO2lYyycD9yLlN/EpePjbLbN83woVa75b9H0IgCPNR64O6yCEgcEI2ZCS+QDODxjD58I0/X1ooO+EALg7LNNfBl2anUKnoHcM44/Pckv7795AHXuhxcQh/visz22GLfvLq/di/LdceqT5wBVHmjtDGNx2bDED2Xshv4kFgZvlA9D+3whL4K6Ta2F+nUuzDHY74TD8bZf7JoW2gJkUEo8WPllOqzyffbjW64KJfLWPh2Vw59XLObNw0aK0pAOYNxgDGt+s1N1Przf/+PiZ5ndBi8/HRZpxp3EDhdHqSM8G9kKL8MG8NU8AS2In5dSyum3J3+LPxcH4t1y00HzhhpXmQ6GMzHDFpW337wYTCwLTg4++/ErzD9HporG/jkE4G0XwwbYhOyhZ+5jNpkNIsaXQmplFVX6eGNSjaHXCx7SkqaCqAUYBfNyCSMzZVnyOtLS44Cahply5EOIgHhr8vAWU5zo3gZ/2+RiMD1y53LwuzIJRhHgAswNC4PTaueYboYz+5Ym1DAzKFzBkfX3vumlCtCjAK4FnOb5jHOM1DaATdEMI+RQj66MZAA+A/gserMvAKRXIq9kuypbV7TNpMKBbXG3nJfHcmy9dbP78uuXmU9etZAzBjNckMJEg2Ihbfx8S995n1pu/f/RM89sXz2V+AGza9WaB8cc1GvOSwOq6lcM5Byox4pLoeUkTe82U8pTED4z6uzAJaQRzxGmV9EDFB2B+5hPNLeIKL9lbcTluOZS+5tNBXE+uvtI8JvlkMN9MQPSV7pp2XB5lMNE+ee1y88EQBjIVi3ApT9E+k8Ik3dO+ddzHTFGRZpigjsUkdYLxqadAq0t2hhYefSgZajGqH59eyxjVd0+tN8+un0umGaVgtBPjSQ67Mcb+pqOm4IpAiMt7GKECmvP0mpmzc80vnltvngraoUh2Ei4UkbpvvmixuSUUB1okEOBuKv70WvDayxvp8qBFdFnJu12sS9xUyugjVy01nwzL9P1hGUhEQtPjwtiCABI07w9Przf/Gh3/7ZOrzbNnC3N0iUeJOoG0lZmnoW8OX+b20JoCbBJ1ZFDpfDABvgkhejIL7IkzrzQ/OC04tJaWic5KfPKuTXBNBxNK10eH09hvCRPqjZcczoDL5YGPbC0WBgl8YvVcTn8qk7B7JITfMyGmCYM+gI80ZG39eLgHBoRgCPpKIATaQmEccLdHMOu4/ZNJUfmvfO4G7oAXoWw2pNY5FkRThveOala7rMH9Lo3TC/XR+kwXCP3HY/z/6YkzzQ/DMjVOYBT+tP6xw7L0FjIxx9QvK+7qmpwTv3t0xOO9oB0OafKmKH8S7km6yqFAKA880C3POYvkuqAVMaV3XQ6XI82tQZOsAs+cjaY8FcrIdPzPQ7CIxUmIEvysJNgu1yXnYgTvD2X0xZuORtsOp8IbF8YWBDUq+5UnVpt/ObHWPBXSjwnT7XiluUTy3hRMdsfxI817rlhq3hiIXbVcGovwpgmoYUgS+N5nzkbHn82ApU4KFLdB4hNVcQEIofcGPu8LfHT8FfCJ6xgWPu4145EmXgzkk9HGn4T1o3yJKQYX0/dh7hoJfHWUedUyM4+gK3f6a4Cd+16u7gwLiVMc8X2c+1XlPtohnxnjIbcQgPxMSVM5JmNQQ+KlHgUM+ncUVOoq7Vfn4LmxIJgp/h4ePFAfU+TzYamZKvxx0MBj4aoKVMOjr2iPY3iM/5HQloQABXAphRQ/6rOd2rATSJSTNPe9EEZ3hYJkLTtHi+0i4excfaxRNPjBwOVNgRNTnjUADzdxX6x5eCba9GhOza8390Q7H3hhPdtJGHTR1c+V5/7q5qPNh648kgJPn48DYwkC1v+TqxvNvwXTCRDeE40lBOjfdj21oEujURDS2DtS4i0GcywkogbV4O4VMOIzIQSkL3/9ydWMEtMGBqR2Nqi4OL88CJ1V8sHA593HpWouFqsEEcTRbQPTDNNbJ6H8759aS8ksXXWUIKjAMiCIu+X6Hpd2fLYNaEKqae2rcZ7LOnyOWYnbEErNbx/X+nCPowjz0dZH25mqZZcw6ub1UVBLzD4bNIilU3+xeC2FdZjNLNX4OnymDQTdlWGCv/0yCiCU0uVLYRWWNPGqAPqeGwcwpJjEr184F7yx2nz7qbNpPVpH0y6ztlauiZyT94UyYr7LUsUX3IRqkVRQdsnWLVP0PwlBICD667ASxCFGtffSaJR2fua65eYT4SbIfh0nFX4sQSA1k5ny14+83Pzs2TBTQhIbm25jnTN7aF6WgDl27oD8fAOyOzo7gzoIJZYJM+wrYRY+FEKABFb2Fnx0VFzgDrwxcGAJ8N+5BVdE51ft3Ablk+RWpT0Vwua3McA/ffZsHOs5SyImsZsgUMaOPbrTwy3o3rZbnWDMorfA8JkJH95LXZ6aCscWEDLGYlRfu8xCw/BvC9P7o4MpXq7B0eC6MXhjV5CpKB4geelboSTvDVp5saMsKnoE7o1HF3OG6VPBpLIDWQZpjQzu6QP0yBr/5fPrzY/CMv1WCBtxOsIAtJ9V1+E4rgyr9LM3rDR/EQd6D9kzFKajoCqckQARQbOfBTPI2CIU+oQA0Ch+8jvDCvhw+Mm3h+bNCOYMhACACwksiHJ/dIyFTbQB6MNHWrDgpHTMPwlC0CniAaOEgKJkRYoNGNwvP34mpTxhw11wz27t8DsiG3n4fYyjC+oedVTo+223Q+85MNQkB41lFekkx7l4iOU26cEVzCMqrt9pRHj0gcuOi0M7UkofvfpIKgJCwOpR4zAtqJtiOBG+O774Q9Aii1G93eIxJyv5LZcebj5yVQiBEEzXBF/sJgQAXLm1rw/f7UMDC/vGFCDl924XRDc3z5w91/wm+ONnIZi4EqG2y487QB/NDQHjaRzT5KfhDhACBqFbLGQgdjxMMBl27whpxz9hfrMQdkdjd9Dx/KYno+MfDEbFrHDrM5HgI/hFCJG8bw8pLDAjKMR077tfjrqyCTyZaZJTfhnugCBNOznlfMEs+mwS0LyJj0Cy9/qIY2oYoxC36DvmNnfwPceX0i0QlWcJ0MzTgjrQHWuA1fhwaGgxKzTSRVF14kVvCL54ewgAbjK65JaOg4p74HzpkUHMLQQB19bMRwqDVoX1NNgiBZN4hZmMFwfWw04wUhBkgcH0aSKHRvxVCIPgiW0NdY5JTcuJyIuCvjUae0MgajBItFmAjue3S14SH3gkrII6XdiuouIn+KLjWANvigEQLOILhxzYAtHEbKdpwt9EG62X+H6YYD+LTjwZbVeHe7rg0ryPCxV04fCIP/tyQGQE0LSUEItULn7NuJsVLaIHs1aPB0M8MLBMxSzKbM0m4AuK0FQeK+AtoZBMW4qVTYoLq1qbCBLK7ZagbeXoizat1GIpNQHu37xQFPhuNLWjRcA3+XUUxCKwmYM8gj4gmZg6BMC7QwLLF9ABs+p4gCEJpV+FBCblTPN1sanntL7pGR1PG3AP+twT92sTac4H+3a4Az84vZYxiDMx2rW8bc/FDw4EQRblkaZv5xj85r7zcVS85n301T3PQ53jgPuM1UWLTWrNtwU9sgTNVAnGzQKggmbMUonoP8gaCEaz61EJnhZwn4Mmv+3iw0mHtwRidYpwUvAIGr565XDGvN522VLG3pbD7+jbYo0RYCOWXzxXcmwCxR37cWT3kHiYX4IExmOWK6fdBgUrgLQldd+K6cJ/2WtjR4F6xQYEKSUPnQyTDIP14cMfk6jxuugsnU8g1ESNLrAEJETJSDNFw5SSm0AAVthS/uBT21gX2imRY6cDIUioyiPud3hunAPekxw0xCSHQKpDWxDUuEcopomOII+JjmjKliPQ2zIOfVDHhhVqmpoQMF1oY49ZxagAwUQpPRLMJWhH83aZzFf1aYuEtbeGNfC6EAZc5+7swCSA7owbRfu2UHJ4Lpcgd0p0Bh90LH4h7VqSXKA5EkbOGpBy1nP/fw++3DwQzCeI1mVuT/J1NPLOa5dzloC04iZEe2cCkBPEE7U3n/83j57JKZq+zC345CzBJYebT127krME5ot1XufWHFCzDbT/v51cy0Qp+yiYsgHd+13VJlMxpoEwNmZFZKPa6plyxL/4Ukre/NwJ2ppwnPvdM0B9rPvdhDDcu12f9EO2weF7ubQj5H0T3A/K/Vv7i1zGfAR3HzHX+4yZPA5CQFLNOy9fTEbs0sk0gD4oom8GzXzzqbOZy1Kt01qN7yEvMz/jo1ct5VSeqXSBaoJtGlC2IKUYgLUV8hfM6NWxr1DxoSCkvv9l9IcZPPGKPhR6BYELvw+J94NTa83/eBjjbaSP3i7AUzqYNWAZ7p8F02VG3Qwa2wZEQLIJVn4zTPevPbGaLoLr7QGGj3lh/pjFF4SA6SLpzF18dJoBlQ0mT+CrT4Q7EMKFuQe66CvbNQLO1KNItISkG4LILDDaidA8K0kJvt3B6gO3OPKZnUT4AGqRyvdMfX7zlx6InxRdnonTHW6t4BaHKH4VIDuCcuMjXaT4Nk7bgfuyr+J7eb5sevtw0GPdXGTb+Aw+xQbeEZryo1cvhyJYzhgRC2xWoB5xqoeDbr702JlUHtzmNlRcKB+zVP8p8ECLtHefQtoLGAOKmmKsCXU1iakqJXioayG+fSwU9OeuX2k+dvVKWiV9OGwTBE4wyU+CQeRwW8whkAZqAe7xFGlD41ro8CchBETnTdnNUgLTAoJ2IvkWl9wbeEkkAW184racouESfCbw+eCVRzKtOdqdAZUK7tW+UyHVdaB5WbsqPR0dqdiudnd/jF9zcdh0fD3poG++9HAGfZidGf3dob0VN93su2M3qM84EsZ4yAhVX3GM23P8yjPj3Q/cVwRHqWdXiJsqXoWCdgfltttOCMggFL9hjpspQl/tLtcW1wj9jwUd/llo4PceX0qiZ7HNAipe3FPu8t89tpqfEprQR63Ffb4L7NXcfxmEcCGoZgHwYBETQlKa8cXvXjyX7ny7uXDROfhAHsVf3nRR8mvosm2wTRCQNi9GgbTklx9fTfeARlZ+u7EGl9llqvALNx5NSWyKpjtI00Jt8NdOrOUaBwEaWgF08bGPoFmCL964kvEKMwVdOojikph+9cJ68/Uok3l3Qgxk0A3t213xPFfglpDo8rhlJ4pGy1bkL7u/U8U2KCUXaH/fDSa5F0xU9uDmPdUxwUNjioyEemcbN4wm1/5v/vByum6sAtmp3XEikAnnT4cQ+Exov9u4hKEYdhubcUEdlJJ4kpmlr51YzWlDKwTbeSlIU8wFL0jokb8iiD6rafQKlJY062+F1U5ZS4WXCAfa9cCHlfz2cJP+++uO5YyDdTBd2CYbMEpd+fRwuASioR7rPipCyg0wV3vrsYWUgJhmexV7B81ijJwOJE4EQTy1an1DIBTQrsf3pYWF5srlsFACH9OYTEL4dIE1YAGRIMpD0T6LOySqgO7tLkvmuCGIirvB1WD1EDDcBNpGzABh7nS4px6eGfdgXc3rwDgOwbVJjqOO6JNxj4vCknKYw9/tqPeW/f1LDgp/WEBOqi3a7GbIGSNX1PWGS9DiYhK+/usZ/j2Demp8QFzpVFipzg9HLbUeVAQ9sSMzVVyTeeACMC4aNFtHy9s+T39VIVoBPiXQ7rUCmxmJXdgiCJTB47HG24yBh/hobcjGxqGxLAJTIqkdo6RZNxbTk3I0NpxYB512psSr+JDC/LLL0iQsv7fBs0xN5h3tImOSOdUts57HGGYbJYKYjzYVReCR+PE/653rEX8mOYIOLthDf01yxP9kfO/GkDMiQw49ZFvjtwrGKoY+Bf/rQgjIuvNdGbMCdZgyhEPZGr1uhV76vd4DnKIRAum6OoNWfpopqJdikU5MGVNOhDQ8Ki4VJBixgk0jmj3Qr13YKgjiBls9kx7m1gmPbn+6x8BifqYYaVTWc3fvnB4C55wLxbA+A7VtjQS0hGk6+BgAWryLj+cErgg35ZmFQGS1U7rYOxf1resmZEzK5pq1iXcA/YDOCH5WIAI2bgi6b5xYNsl8QYvXhOBmHaDRWQFcWKbo5cngC9YA97SrW1VJAF0VuFBIZjDgMg9QKuZlleNBW52zEODahdqXpjvF29aCEbjSbdgiCJjI5tVlSzHF3dot17m2CZTJ3b4xjrQGZtxe9ZgysjW1qRJR0S4uFWgE0Xwuge3F+zIItdvgMe24PadCyigftG+tdRQ/T4qyNeNhbkb5TOoDmD8YAxqYNSg6/nS4qkG/OYbdsTIkmIEZTlCnBp7xMGF4cTKMJEZldqmLC3BOKNn23ly/PBKKY16g6EuCTq8LgWNVI2XYrc6pA+2bJXvYIr1Qqufkh7dgiyBgJhMEJLCgTOWK9iMqsnBDY0k8lgETZWux04OqdT4XhWvQ9m1qXe4xZWiHISY88wgh9C3mMLXGz7R2wIByEciBPoGB4fl2ZgjkRVwT7TTA3U4+gPkAd4+QFiikfetaD+NdoX6nlIyV6VxmsjySWQPakUJMCJwI+uEWqL9LO8VUX0i/3fLi80EzXOCyA9hCKmfWsCrbfeWC/rM2gmtTpxrbsEUQBL+FBMYs5Y0woN0OTCJ9lw+G8WhJkdlZN1bNzHhBDlOXjowPxA99+JC8fMMynbf1ngoaTpKbijINFf2xtbMCnDuYc0wtiSliIKZJ50BfBzACkvFiwAS35IygSyOzZQhioJxzATHfZqxq9gNFB2F+sSUuMyGFTmpNlY6C/JJuHGgSk86bbLSf8LPql0VEKKgTb7RBn2rD0+Ff2fCExdW+ZYsgwHh8CAyTU3StVniITo42prTjFmTKZFybdWM1Qv1MGKY8IYCR25D4xB+mFwFgEQbNgGG7ktp9IrysC/EPUrFv9gGgo0ujXTdH+wQHWT7zsHgOYDQYGmOe7yiMMVurGrj8vAUwQXELSyr5rAU2XMxcwIO1TEB1/et6anaAO0k7S/1trz2YF6iB8KOYCSDCEA1vxbAA59oS5cfCNWb9t28aCgISQ1RUcAYT9hXkGm0pGCJCf9mcgoRwYbrz403vVS+lW5VrBJP3EooPkMJ9O85gem0TJFSewUwl04IsPw7tE2eQp87EY2ptkZYXCCBQY9kZz5Hgnknu308QFDT+BDbmI8SHA1QhvmM8ygg9ynClkTHBrECV+ospzTqBCwbqI3k0UjRzeUlpBizLT/OF7IeinPMFvdEJ3cSleiZlKN8IHcqwBF+1sEDiStPrfIEZPvQ6Ltm8ZxPimvlevhi/WSaXSnr6ZSqAT3ULWARVe3fBSyIx6vHoBFaB2Ys+QiDY5A5wCQSegsa2gT7Rf9wegSeCoBDXrFu3d4A2wkSMzDyDKaDGVNWmnmYNrSGM5X7WHkGoT/vu32+AE3xNdxl/dMCMRWR1JNzjewx7zhJggnkECVVLKYmXsU6qUMI03aoIJYlncEE35yumpAqML1CIBwhGe3Gouz2+BZVD2RZL+e0AnQJ2AEUQxPnzJEUwykN24xnc0G2Hwk1RmKoheUIW9ErHaUH1xSJwlNRfUKuq6C8vFDx0vgQUgcMuuDeKSN8u51GDEVrt3wLRf8MIdE5DzoG49gpQhjcBYEbHsmmbqNRlphgc0bab5n4mtj60avPnca+t5h6K75K0EMKIrtgXqG009kUIlGm7LgzkQs7ssN4ywSuJf/aDRQgRACyCwjzq3qwHzqoVK+OisE5ZA/Pgi1GgKrEy7ogAvjhBfB26LBXg9HLgz9IWA2z3bbKOpCE/iCrK4qJ1Wm0tjY1DA6UnyuBjkmOcWYO6gqYTn2fDn0Hg0p7bkPhE3fARF2CdwKdHDuS96eNFq7WtvVtLRd892oKY+HfXxoBq5zwywvYKukA7ZLV999Ra89UTa81XHl9t/umJ1cw3/1UIBlo0x25wP0vIEnIvqP3qidVcrfZP8YxnvauStZXLywfPXAgAf5YLF45AiP8x1ttHwaXiGy8kDTDL+8Z/GkAplAgaFCOosaqKTu02pyxJrmRRkOeZaqI6QjBxiP5Au9WS7Q7talhYBBrrX3sqFEEQBxNMg+Uv0yxtSAkc5R5LIVA0sCm2ebzYCwHTVPDg10PWtS0An/igsXO6JhqPKLaln8YRzQqhUqahauOzPeWWBOcCgnaAlZRUE0FmTVjTgACVaTS7KNlH0W7SFpvcdXI1l1F786/2EZrajYi5DNLEvfvB/RaRud93ueky9jL4lTXsPxgH+CPUujsxWjVWXUoTmzJGaJEV15c7Mg3owxqrgg9aHGVBqRYT1tmC/XAnVclVJ4zq7EnfuEYzktfRShiSQyWQtO6EtsEkG9GsvsZieu8AIH35IrTlPAAhwAWiBiGFQKeqeil4NvERJNH5Xcb1LGYgzVkDfULFKSaL8UuC4hJctTKY+plPE/cEBlV/eAW9PRuZd+nzm+4NrV+n2lgB2igwhMkFSKVTn2QOxv0sLX1hKa0t3xD4qBjM+QZYYD7tgi86YK32DYPxiqHKMasu3CyHCy6BRroFBEFRID01uDEu2ygVEzLP42OmuOwG6nKYNeEmcd2DJZIGuuASYSBWIDei7ju54A9JxxRDJOXhrc3IK4dezYoEIy6PY16MAhcanCn/smSCXigBGxqBBBacgU+39zE4ZlAWv7pK9C7ernkfo3aV2Yf5zIZMA4YluiUJsgbQ8G+cNjF0KSS01T1aqU1xKWMKz0X7w8vKe5UTp7mUG5GLBynnQoCKc2YUhlAjxOHWHgr3OMf8hIAgISUw69Eq/RQKKfDANPop6y4/F3AhAOklbwQT+mRdnm/QJ+m6R5/giZ3cEzRC0GoXmgALvoQyyfl1BFOuD34dQpHKGolJHPF19p0fRyi4JN4iCErnd8Gwayd8vACSpYJxu/gQI6Qet0DDo8j+8uJBsyEkaclODPtnDu3rA/ggdlqZNncgQAzhehu0xzWfHoQfmnMbmenVW9w8ROxaCo/4UwRgGUPtAurDaJ7L8gagfHV7xuE+NOL6vIES0v4yI1LSitu4VRQq410Z0tsn62DWABftZ02aPgwjytVh/yXEd+ei9pU3mOQ78ODcQJUsEfzAKiEU+vBwyZieXC0zaUkb0bELTHESmCBgko0CjGZ6zkKcsivPfFoLybQIYgBouS79JdJRNYmn4w1AoJMN7EIUlWUQKgKhygbte31fOhSdl4RVyotie8ubBxRBXCL7zHszAIJ4xsIgDVDeAvPCTV00H4UAh1z6HXgZD3PO+n5eoGh9wR14Kb7ok+4sSEJcQHuEtfiQZcuWes8acALFgXbSIgh8+rgDs6EZ+Jg+dH6+aKcLusGbva2+FS9Yjr6BS+3Dipd+tgrx2RjbdL+inxfiMzUvM9HFenP9VAghYC26gIjIenzMrbFkEeYtPkxtQhefosEFRYp/uB0b99GG3B2BR2UmU20WOfxqGrRYAyVIqPx5g7oNiH43ted1cv/w2Grz94+daf7lxGq+1YYPXy0j94JZyV/F5BF/lK2vMb1XatnO3WzEVwIXsw1ecSfWME83gpAhqPnjZj96dZK6A194Yz6C2/ijx1mDdppRQYfFOulvON6ggU3ZiVnNQSZNAKwjM3vFPcCriU4b9bigKawcqcZF2QYP4TUv93huvT9/wBWNNU/aNjlmRZBdQAwvBYI0os5HILUquDjSFAskMlAUn9n5HXzEBwykcpia/OjuWNayTT2lIBjMPpyPwVS39gn0eaWa3ZdMB345hME/xqcpQfsp2kDFPRkXiPu1IYc3+mC311jtBrojhWX0kTcL52u1ok6zCv8YgsAOVaYbv/PUWq5c0499/DkLQI7cQgSqnlGbxQDjQxAYs6KYZj9g+lniFvoRq9L3oNbkzHe8IJnHwUrdT0Ggan1R3Xe8qmsK5ptQArJF4J4JujKm6RqsxZ2mEuL69p6Pa1FmdrzGmq+fV1uNfQjgxEXcInDsgVfTFdBIUs9nnG7DybMvbdhkpboY3e6oUBZtECpSVflZyps3aBq8bHf176Fxf/tCeVEGk/yhuPbDU+tpIXzp0TPNt+UJ5EzBQDjGs9OOQSV0VoDtt755crX526gL498dFoHlqtwUL7f50en1vEdfVvdq1qBYMQ5uSb7UNDpo5IhF4+v4G6/4OlNQL0Hk3RYhH9M6GYULawRf2NMyp7AH1/cLAo1U2FVp9+GD9vAZRZlti7YuICz5AymFO4PszKGxNLDCuQjzaK56Aq/0xVICB3IQ7oL7DDwLpQqCPs1oIF+Mcso05CAI6rbWra6ZDTGAypIZVpKIZt++Luj8+J+axhi0g3MsNPsw2DdB9uC3T53N/RVttmor9zpOk2KpmzxDlBhvZX3vKTvhrjXfiTq88Vkadp1NgBd/3TnNWKP4pfbZgnIRp9kMArLPInDFufFHh+kWGK/2TTMA9dSZmAyoxoVRVbCWM2BNKAVi84qdjQOqxqtceAdXBTZ9SpDFbDcy/azvF0RDmQlnkvnKTV3AHEwwfpC9CObR1MoUgkQGYKRGiIvpqkQjU+pFg/s0OEmnnJ1mHxTmWVZOjbbOg7D6gPAyaKa/+LqCO4SatgH4e7OuHHeug5ey2sP+92Hm+A1MgybGtoU7s/+7cRA4goPZ94POQtRwDPTic75mryoRZTHFy/gntOr01WG6kBVX+mu6fugCPNAiQSi+RBhimm4d7gHqx3TGkXUyS1wmBXWjH4FL+OijATltA+jbqYjl7fuCzl+NC6RebVwbXEMMGE4FAmvzaG0iFpUhxLYv2m2I++CjkQaAZkCg7dvcw81BUKwdrka3bU49w5RCUF6TlW5Bp755gW40C2Op83uvOJJ7H9iFuSbHADiS1gJ53AIbY1hPzlqaBpRJ4DL1T4Ttaw8K57VYH74vR+cTUt7Ea5k3nzzk1VyI3XgTcPxW7e22sZ4hdG6qfppH/gDA+NwmsROfQT4jGWoh+sNMGpzmhc8kQDBRkvg1sy0H17ugP0MPpMXMwlwgeTV2u8wr4AGdj/G4B7Wxs26wehACgmSdxMdIwCipFYKRRhFmWhdBUDLvfNbi2vfSeNyCEvEt2m/W7RoFCAvu8hYIgTuvWWk+fvVSvr3XNldwiuYl3vpC39BSBm2HrhkLPB9dkhqY8FVm/E/m17f6wtTc7YHXh65cbj5xzXK+tksAqlosswZ1Y35p1GXqsOC5pbY4CdSSDofjNQd01MsloJD0eaHF/ooIdNYyhcRqmlP3jA2qZ8HDJ5XkCLyNd7p+IQAI4YVqHpCCo0DnY5iUwho7uD5L4DMjSB2f5soIfFy1hTRBAKdRWVwIHUExNTVYce07ndd2WWOAsBQ1j7ZVgLsBQFiFuMo2a9KaP5JvZ1oJpltq3nXZkdyZVgDTklJ4wssjg8cmglHPIACAeLWd4OEe2eTDW3dt4X5nCIGPhYB64yVlp6bEIwrcCx47AfFGEBDaxqv2TxvUrS/QYREEs6dFbTNGhUnMPJXzvnoKPkVJoqN508+4wMpNRamPUlH2LxsQLMRrIQKaBUs9mYh1eqQLBkjB/GgFpwaeQ2vVnlovOh8xVCLtQlSfjWPG812d94HGiX9wCwSh+oBFoE2ivghr2um4nUD7dDFNQwqbDiT0oGbQBCq9QenjVy83X7xpJd/WZAt1r5fHgIisMqBjFPS1oO9aLUeZ+lA/VOvE23m8K+/P8519XmxbdshVDmb1Mpi0IuJ8VqBv0jqNw+c2RRCn6jf2LILUwPG9r23TgprRjLGqwbQ+MCaVFvHIHMlnbICCA2+gabQVH9vApdVoo+laLvQCrVmi6qNbwfwpGrg0eB5g3DNeEb0Op1GdL4uM76ORGtjX+TmQUZZyCLiutePMYSC1i6+eEd/8dfYQ/Z24mKp74IX1TNDx9uVfPufdCmXGBkYI3LJar6jyRiUM6cWy3t7EXWA9BD8OtZZ2KVsXIMjckMK5fonP2r4S4C1bXZfn4scA/UfI2G3qnWGFqMu7+rw78F1Rpw1Bczu6uA+NWKz00Ivnmt++4OU35zJuwZ8fNVaTgC7AfJSBee5RABdjTzHNI38AqB3doEVCqdJPtzbWAEugWG3zwWUvABOWcloq0U/ooEIbSyEBtMcyWDgbqpNk0Ni+pmSh0UiWgMLnxSyl84tJ5kjiatGDr3BBCJhWI3V+F2f3aYupuOLftQrZAmHpxMMkJ2YYmnbdAqcEtWuXKTjvUjAn7026dz251nz/VInW/+6ljVzcQhvKDLOi0nsUvE/Se/xYCRjTBp02vqi4OgiGo4s1YFU2Z9Er/vEV+fW5dVbcmForMPKcMpQlCPjOKNtbez8dVsjHQxioy4Yf0nfhDjeM//PAVY6Bl3/a48C290+ula3tcrz2CNlH8Uc5LI6+ouo1Iq0GwozfvKy4Ipjgs1l3F9IXjz4apXX3BQZ44FfCsuC29X0HFVXtY337XJDNJU5Q7+u2B0EhoLL/wPbfZwXqx7S0AsRG8S+hFEqqaPD47OLjOcTLLdjJxXCfZ9MiiAZijHm0LZqSvuZvXigv8vzGk6vNt06ebb7zlDTetebvHj2TiUN3h4VgaTBTjTYioAiE20MgCCL+nzeGqX79cvOesBRYB9JIxRCY87eGgLgltLplsLVfHCwM8QcWhZdgSJgSA6Dlafv3huvx+RtXouyVtAS8o+86QiOeMxZwkVfwo8BNotFfP3Km+ZtHS+LR38bn38dxT/xmirYb5Z8E6pgRhJXxRo2FdqUWjsP3UfdNA4lPHGix4tMF8ocQLpbJVq273wAVCoWQ0lejhFQqzDjwyALTzhHWQS8oRKHztAYqwAETMA8rOsM2DC7ocJIYo4zCx+Axe6qmqmV1wfPKolFJ0HloFwzFrH705Y1M4X0kXAErIZnVcgRkDEolrhuN/ODU2Xzpq2kd/YEpbXjBQsjXvV9Dcy9nEI8p/2fXrjReu/3WyxYz1sHMy30H4jDQYgzcDK8J/08ZjFyOMlbKeZTjN4FB7gHLKOTnwHqRUXi2+dcTJd1Z6rH38D8c7fBeCDsl3R/tYc2IMWEafT0peMSRsYccr6oEto+FK+I6hEA0dW5aeBOfMn7waVeV6AWkOxa4nA/emBT0DR6BY6CXUPGuUPnN54JAAf+1dP4mOPV8CoIorDDK4OIcQH0QMv9fzMMOQgPQ4YiAcNLALjqeqkSVgqBc7gXPK0vgyYB2y5oFwAcemKvsugOvEg/R77Qpl+H7p4u7UNYYrKeAsCJUsNNgCia+KYTBR65aziCe4/+4fiWshJXmznAdvPcvqsl3UkgL/k0c6uNCeVsTxnevw3N/lq+yX06LQ64Aqw8t1PdCEk52PrIG4ochnMQFclebwN/0LkFDmHEb6jqIvYKxxnC5jDqKGVnSYLwROAHeN/7TgrqH+ESbbIwSX4fQxo3JncwGjzkokb0CTJJv46gzK319mvwWtIhfFjAe96DvRkDaYZJqis0NAgEOSrUIRtGVYGFaBNHSvr73mGdZBQirPYhtcNnjKTnjT/GtZ09YyjMYNLtsLwI1/idU/A2IRJqHg+sxoIVHX35sLRnRXoTWH7BwSvzgUHNbMD0/3jQjRuYe6DMCxWrBv37k5eZ/Pfxy889PrOaiJWb39SuLafrfEc95o7P3BHqDLiIWHVfHA89tNN8Kl4W78hXuyumwYEL7m4JFJ7VzfBgHbbIk/ejCICOz/DwxGCM4lgh9GbC+sQVoMC0C/TjqphlAoaGiSBKjTlVO9V1aBIFHHdMLA0pcAJ/AUZ/1gbYVKyzwT6kXLS3d34LBBYyiMNJFeSPKnBpUN2Tg+NLFx7m6dTiiS4vADz2Q5cQfxNstpw2kOIIm1TPwOIfGIVYCwMtUMz8AA0aF6oQ/uoevMcCQtK59Bn/6rDiCTUpXM7bwi+fW850TGJ7fx9evu9XKnuR2fDc0N+3Nb//3Z9dzr0LHz+JZ/r42ch88F7Ijmc8Lbe4LAaAu2v87IXykNHMBrHfIyPkAR6A+6dCmFN8R7XnjxWUff/QxDXEQAPBRz6CqIbTPETWhrS36b54wbM6IdhVcig8+D9rZMwQu7X4aJaIr3en7BSejzDqP6+xsbBzzbmsiFn96BVNCsUpSOAViiU8XKVJcm5KwCJT+kkAtK2Mg3XJmBMrHeG+45EjzwSuXM3NQco6dl2nU1KRxTyUkzGBKRzoxZuYuiB9YHGQFoA1WMCbc9RNt/esw20XxzULkW56DubkiNjr9yTOun01zn5ApQ30oZ4py5WEICfsPfP3J4goQAvYeyD0BBl2nLv1DAAlgCkCabvzIVUvhdhzJDURpn0ETJgbVBDqFKJ0P6u2C8h00cGW+2m+zBEWie0J8p+L1Czx87nTf+Qa4FNwKv4zqIwIAPejuFKoj+j0hO9tnOZ0rIAC4jCIEAI9h43qQyufj0MAUKIOyurcOLmdZhMq8BlOZmMQW6e++fLH5wg0rzeevL9l61hlcGaZ+mQot98LDgSHEEGhs7y4QSGTq0+4sACYdxmbOExSm9awbsB7ErIJZAmarhUQ/CQvh3+IeU5UCeywPOQH3htVh34G7nlxtfv5c2d5cnEDf6V/EAS/4sWJYM4KLn7thufmrm1cy34Cb4vdRxDYupCAYfO4Eqql9NGWVY8FOdWT/DD7PBy6TAHwSrxGI1evG2uHeHcH9hSimH+yxoHIo6NYX54lP6+gDRbSPLWV2gMzfqaxZgLIxi4DfG8KUNgUoei/6bybgDeE2YGBM1wZCjIWA8e1VYCcjsw918w6Re5YABhcYlPP+/ijbVOCd1yw1bwpBwwWwMe39IUDM+5sOVJ7Iv30QWBmPhgApFsAgpjLAA7MpUzzh/VccSXzNUBAG1h5IfjLTAO8O6hNDEdyl/h2GK0F9hfmmrXU6UHu23Zf9RWVPoJ8d6RrklR2AH10l8L5DYF2EUjn0/ii0diMm4FnH+dAu6mBaewGGeIH04U+ERv1gCAKugjgCU67iXfFycJdE61kAtvIiBBx/COFwXzCyDURYD/IKBAMlBxEwLA7Lq1kAXmWH4VkImP5EnJsiZAWYycCIWW/Up26gjwkwU4tyEVgAVkp6VbyZBq4NRpgKol5VpwAIoZeCaAeAn34qvu/+gbrhUmlnP3Hpg+zT8nUk+P2cv9pRLo2GJMbB54XQWDjAZSiJpwRlzKCYsUFd+jN97rArMZOjRMHzli1QB9NPXBjPOQBroWbjManNutCqrltrwX0IHs8yMI6Annq29Fv7eweUqeySk1G+Y9SK034A3I190uMOuJ9PuFDwmBSMYx7xB032wn4O9h8j6GwMSvsy45n50o3veUYCkVexFSbOe1sHkC1I23sno+Si3JAlrpWsQrMQ1mOWxWPeYGQG4HunbX66kclMrILXhUvy+ji8ycmOzV6jzU0RtGTeV2JuM7rvMjQfjz/cD9mQP45y5RQISLJC4v9soFXvKIAigiXMCAM4D9A+gD1CXdw1UhDUDq6EsdsgnRcIpOBBU6UpOwOk2oQ/L1A+/9u24Mz4+0TqT4nUr+auQ6b++O0ERe13n4g9GR7TXmJNwFIw9GLj3XZciZsvKtF7b242pfdsCBN5CF8/uZbrGWT9qZsAuSNckbfHvYKI3BPLnJn7sgpTOESZmXyi4kGH+GAN2Nj03hAw3zixmkFLW6bV/IYaXJwaasN3AQ6BfklBMLh2AKNhwOe9oP9yZiSOkYKggkF2kPyzGO9pAQ4aRxjMCp8ss3ydOSiXprcLkGm+fw3mtzvwP59Ya37+7EYyGX+fCT8UcAG0nvUEtPifhL//+RuOZnag7EKLi/juN1600Lz3eEk7fnswtLUFpg1NPcoQNNB2F7JWQTwC07MmxCpYBJ79wvUl3fidly3lOyQJHmZ37WOHvA7TlGIMVk3abv3vHitbrqurJKXAejqA727MrRp1zaC6P2rIfhp8joLN/h4EC3fqfPPwOl5k8ULofAQKj/I5GqfdCApkOY4saz6g77gDkoQwkfTh+58T/S/RexqXkHWfwcCI5uXfcumRsvpwsFmJBUKvCy1++WBZsPvlP0jmsXpQ0JHW924G1oLpPgk/H7zySEb8LTIyM1GBIOFaWKNgU5RPXbvUu+QZqAuONVXajIONTlkGdl+2tx/62BNEHaohfKDHIhlUOxLUtNfq/iOArskxiz8+HaMgdzCK3zM+tVPHZ6HxNwvbocCZQRuhbn2D0a9CYBTUIoZF1fJ6QDnztHYwiIi/VF1+9m+e38iIvWt1gDC2OX9LhkXoTc2J+lsUZCrQlKCZBtqcKSfbzxQiV4A2vjY0uZTjj161nMKAAHBOkHhWlF/5fHov7CCYJFsdiYrFCCQFfSwshk9HXXXJ823hdkgeqqvXMCh049G0DiyY4uIQCtYdyAGYBtRRZgNGD5f6jZd+y67LP7OHYbG1nlHg98FxQcEAJ3SdU7IjWqGfjSuaKoLAWQ94XIE6fpam+CgoSJWjH6OCgykPBLnTAHie/htVjuue55cHP81NGCgTrnzp56MyU3nqrEAL2v2nMvOnr19u/uqmo7lD0XsvX0qfngDAJJgeI8sF+Gn47DTy3fH56MsSiQ6l9v+vtxxt/vvrL2r+71svylwF8QERf29QljcgmPhAfOeSmEbEwNb3cwveEtYB6+M/33i0+ewNK80HQoh4fmgdDDoI+tpkq3PtCjkwFTMouo7XOHA+6FH5FOCoOlx3T02Cmicuk0MIyzgIAX01CvR5EcDR91KH0yQrv23C4AIGMeglXXe+QADsphXq9JjDAHSREkwalpMSZVRJZaCVZ+mu8ubRPsSdyUShXW32ISiH8V3zXdSf2U/zS9YRD3jn5WVREDcgbkn8rPIz02CZ8tfCR//ak2sZbJSC/M2n1nLjEBmMYgJvC4viTZcWjc5yEOizqtFzlhXLULzr5Grzk6fPhlDZSBcFI4sxwNGSZ65GWeZcEojkJJi5kGAkRuE9EGYw1KEtunoaoJWsgExTNf6PGguEXdPH95sBExd0GJ/670IBqOBbAjqnluN73/Bkn8cnFlk4fMibg0aP4maBpQLHPAAGhYHNk2PnreBc3RoleBWKMTt/Gz5xI+brCrg+vD2vfWW+PQRdX3lTgs7GPDS7qP3twWTMfOm6twdzWXsgkMcC+FiY8u7BYIQFXPjfsgrtBSA4Vxh6LacICYUfnFrLdx7cN5h5oN3FB7gZwCyFhUe5GUrc/524/+spEMrqxntDGLAWrDswVajPZEBaTPQhMYrA60+vLdbBWwJ36wxuG+AuNnFLnLMYtHOv4EkWB0GGBnYqyRgZe/S457jEDqDu7jEK0A668Tl7TKaDNt/iGdBui65DIfrd5wIfcNlJT4s9r6EYL1cEDgqcCyRCmHfAwD34gGygI/CJdm4Dj2kLPqiE1Qcu1/ZlUo7emkMDtcN+B4J1Mv6+GGb//3WzY6X5r2G+2x2IX05AePci7QoPr3M3PXd/CAAM+6XHzuSORlKKxRsyzTg6g6CwbkDw0WKhusmM+WFmu2u/emE9MwsF+rzM5lR8WpAk1+BLj602XwkLwcpF043PnC1jre9sZUZofThcjs+Hq/Dfbj3a/JfA+7+E+6ENnw03xpLmvvToSWBzFWjLGhwxFMac4EbkcxqyBBblboIJLvqqBuUuFIAKGrD70E6WrrbhNX2+wMyjfVxsQz1NxotW6vzs9FGlTgnqg1BqhhiEbTbB4JQpX/EZ1fksCkRFyHVK2QKeR1D8dp/zaJr6vQTDy1hE48UBmNqCge+J7wJ54gPGAEgAYgFYXCQXgCkvkUeg0VuOpBkTXMYF/oUYy8wEoZDrBfJf0QamJr1PsMxOlDGUdUhgnApBwxqwbJlVwdKwgtFKxbLrUNkyzcyEaUy4fyDw5jawZOQvSDUmdHfq553Acw7NV9dQELSgnmuTNrMIUhG4MAdANUmHQT9d67SNC+Uh/kIxcTMvJIBb7Se00gf6ein8MUJvgdlqcwkNdH/3GeZXtQqi3LlCIhad3yasNj6+G3yEr5GIuouv5/iahEC+4CEu1LLa4JqylBNKM4m+W9asQF2ISkDPrAB/+w1hAdyQcYCyhFf/yjXg6//s2Y3mu8H89gf4Zpj0puoIh5pvAKKJwwMYp7aWdJtPY1faVjan1R8Ov7tu7YKpTfGCr0d9d0V99jSwGKnW6Tla/7rAXYai3ZC4OlyQjA/E79OA8qvwRpTxPwCGHYhL2keoFXqc05hF/SwUNASv7K9WRYlewFCJxI/wuiAg8IAKOqkKbpQLle6ztsaxgOkWD70aja3N2wqKIFEU7Ihy5wJqL8RQmHgEOokDjaiRfbh4TuNCie1MpHGjtiEoZjjJPq+2VdAkRMUcQ/S+izqLvj8aTMfsF8j723ADxAKsGOS7M/GNpbYpw9EHo37Tzi7kvfHHoU/NIJgSvAcOYRl86dGKw0ZaDvpbQcYI/nDvq2svAAd0GIZRcQvjWh/OQH/BxXgxe+cB6k8LJQ5KxXkXjAfT29hQJheMIBgAui79VIRUXxuK4tXnQYsIcrcXmybzxQgoHD3MAxADIkhNjoEh1EKqflU/jeCV1TmT0YMPraKBK4cR7PaW1aKzrCiD1kvBEucjhOfMoNYN1P90dKx0XXEAR0nfLfsVwis1H7zi/vazk8CoZ+p1bVaHfn0mVMgjYSGwQlglhIGNS8QPhgIpntkLHjsBomQZcQtz7HtAH7wSiMqHMF7o0rVZg+pTKQVSBMKo6XX0Bw+WVXxcEAANY4Ru7C1ZcWs3oaLKYvaWL4vfFixo4R6M6nygoKqFdwo+TAPZ+YEEfHaajsrpvkCgEMJ2q8BjDoOonLIDUH9hTCbt4ltL0plHu0aBwTJI5vPN79s4hBCw7XndPCR+HhBlsSBkHaYlUYqYCqKoLNfhu/7WTcZXvIFbQBjYJu3bIQwIp0wcgvgcgMBOQUBDxfcRQ5b1E0j1nRWjXo03Dag6LZTomBRMca6Wbk2VL0zvzqtf9gLohkuQLlR8b8cv2liip8tsjIOmBLGuWi7R2j4QKqkNTjMoO3/w4wwhOz/+6PwUBOVyL5QltuXQ6C4gIgOooVwExN4H2a6wdJjFhfHm0LAREKgnw5nHtx/h718+l4HA4s8XgDYGtTrQjMJtFy9m+nHmR0wBHidwLT6SB2DBEibcUmog4b0QJ0IgiBfYBMWOywhsHr1kvI3TUNh1JEE95Rpw5eallFTjYJnqdwplVHejvbQK4sh+mUfHTAhQSGUZ+HCfRuGEyljg4oPGPlyD0vm7MZ45ZpFm0m8eQGtDCC5HByZ9X/+7lg0NPJiIbcZpg0YSKAQdYYCQ2vc51xRSU8rscNpt8Pu8gSYr9Zd+hQfCjv/ZRhrJXof1RSRef2ZNgPwDv4G94qp8yUzWLtjS/INXHMnFTCU5qAgKZddAo5mMdMXm2D9wYr2ZxUID8T+hXV/BqQhQYw+/mUPUq/3MZcFdtAOXvppcM4bGr+Azv/4ZF2KYcj9KgpIw6OeO0t/4o079LmA+F5xUqdsGl3S4hvJZS+Gzb7B6qlAipQzGqIp0PimMIEZJPealsqTnal+FemspvhC6dmnf+ZTqOXceSNTB4J4hOgEqU4kWD5ldsJORl5lYIfiBYFgpv6wdMDGqgweIWHsU2G/Q3onKN51JGFiVSHiiC4xJOxf8Bpojqi61zxY0KYVf1G3cjF9Cq5G+EpZcOdYps3fiPhgD1AwHuBCMxmkUYaBFe0kQBvzy80U/faBqbgBcShCzINM3Xrq3tlFfL4jUYpZRJpAHotwwE1+JAQiTLBs7+9aqGtExx0ji7PyAbk0upyCIPzLpBESY9N37gnaTuTItNsrraVpC0FWUVRbiFKtglAydLQR62U5a2UIh04m2CL86KE9yEQaV8/8XNxxNrS3fIDV29JG27BVHz3k+qs5+MZ0pJ8ALU6xxIHBKduNCuiE32vMg8LOdmpyBIYPOGPQHAYcW0QD82jXV78aH4DZeqZRmPFjqYY1yDWRM1lfIjaoGLT4fuLwYNMR9Rk/7CQSlF844WJmj+gcVEQRSxfFaBgsRJKLQ+X1A0pnikpWGAWfc9wnoq2px5iHktlDCAGhSxECDw4cf28XHY9qCoLznj0DoKSqgvBySVcE9kK13vqwC7SX4zM1b+osBP3fDSvOFG1eCKVcy7dj+gIQCptQWGtlz2WJITohovbt+Yj4EX96FWF6aYl9Cm5TKJLTj8ueuX843KbEWaI8clzmAdrEIuCzZ1kE97RZqLiWH4Yw/QhczaN8zC4BL8kVYQfrHLFQXyjgUwSSIyioojDdrbMYHVQcKKSirlQubPuon3PCIdvo1pw+raep7G5w5osyUwHMVBHEgMhoPLmmGlp+GUPHRWHgUfApxdJHyPIKiRdMi8GDnPpeAAWRdiNavRW/Op4VbQd3aKykHs1vgg/H+Ig5vQH5fCAHWgrx/7oOhSfRnhFq7K/SVeITMx/p6dLh8MSwSwonbYBEUIQ2PeYBy0Z8AZloEIyqCM2Ft/Jm/NOCMumQIaoYLujk6cIlGAd6wqpS7It4za1wmhbSYgi8co3hVa9Be5TG8saCNxU8tgqBLaG4SGS2CoERr59VYddEKQXNDYdAHBp8Zb0kuYojTbTjRKFbTXbVUNuQYlSnhOe6OrD7bfhMKKVjOExgQDOZNxvx/wUAWABNZ+/uwHoXeTtd3a5J6dDfi5xLAQ6ASTrNaYbgTIEhjz1Q1Xly7UdWhUZZgpk7HYM1jvKIbMj4QHlnGbvryUQBatD6DIkFH55N2uqDqKpgcArz6qou5toj5CMoLivo9g4UuXBkMg/lAuy2uBG9kh4sRMDc0flaaqQvw4RrUIJ/+34JPnAteclUsohHR7ut85pznLw+zl0BIwirNG0Itm3BT1sk1wcfzO5hQwmDaXZOpCGRD0UE3mcW9ZanuoRSADvfVJCq/a5drPl3ncvmnWXXcXOvW49N54hJf4AInfafceUKdNbJqsiol0FY7FQXjQzEZs0KPsx8w1cMBPgKr+lb9taaKC94gBFinqZRmj8rYoK/0RcGnpbQrsgOw4pgl6kglGb8vIAgntq3yWaHdHsWJEzA3DMA8gyKIASFAkqas0MZH5yMAPj2BQDB0+1/jlMXkzT0AQthl61qdUr+KEdjtJ9N5o32k6oUGMUzJkPqkbhSSAxi/IVjmtH6rTA90n/v1AW2bU7KDctyPyBF4q5v3DaAAd0ynfXWdyLYBi7FBe3xgeQ3zGi9V6Vd0mEk3tZPadcV3pjiekIviEy5zQGcsIISiS1IoZZLcwFVp9WAC5eBluleE8qcknYcgYEI3zQ1HaWG39TdD52O6Km1Innk0GGFKcLHiDbF2G+FcvcUqKNF+vplO6IKxY10wbTWaYADdW806SFJ5JgqyCCcl6TwaNwVgeP3BVL/9Eu8bLDsXEXICjjfHIPLxmfbajekxU9m2/Ej0Z9m2nGBA3O697VhJJmrJ/30Fw8NUvSTMVu3CiK5tGYo4N16i4rZUZxHOwyIgMNELN8kmsn3WKUAnqSQDD7xBSVJU5xtUSQixSmosr5sg58yBPvAXN2wYLNS45ej4a4JgBGr6faESO6h+Oe2Zkm9rPVODmg2+6LR3AlZXpQ+M/ZmNEu03AKOsAhJPo23FFeOZdWyDVw9lx7Ew7P6rPIM54+ZNBaS2KLZpPLsSCyjaPehT167k7kYi/jY0iaYmweJtQsHy4Q9fuZSbntjD0ItLBQPfd9yGpot5z84rTc4fwMIUIgvGmBFaIReGULGsFkERBCWfYNaAPSglU6amoAlVsKUql+Io+BTB5JNgON+gRlZyKurAgUDqhbisjymSuvKV05jNoxGOR8cfC0JDQF1AWIolfQVGbJs1r8bqfCYuLd5nEYC8Fsyb7gF8QjgxibqCiVBTBqkuACdXAnTv077ovyzLKkDlpWCZTxP3BHC0+5AlwBj6z69fyS3ORfVz7j/MOfGQXFsxuJ9/f8tFZdsx99gF6TPxaXrwvVcsZd6Ce5IILgCAhiEiCIwZRUAAtsfBPc4pJTECJvCo7NJpQJ+kaxB4eI8EoVR4Y3tNrsDjZNjitHFN5DlfoDZ9QigSRs8HHZ8NK7lvWNEF5hec9qIb/S0+k23zAIl3VIQ0fuxaBc5IPY21u03mnEfF82iugaelqiAYRaSGnhkEFwMg5RiObdA4A4iomMhJ9OWnISheHdZQWHlnV16xgnkQ1zRQ8dQnXj5q27B3Xb7YvOOyur9hSfap3dW+//q4v2x5fqT50FXL5QWm0SebfviFAcgudFHGLuyunG5OnCehl1uGELSeVkHOHMUnX32W46Vb9KfVeVywtJxG9BUmLO+TDGs58AnyOe+0ww2Qz2BXK3QMBwzeBW1YibaYlj7GRB5AftuUwofTFDrc14y4ZMpGQ+vqOJ0/a4AoiYUY+DAIGX5t0D41IwC4PAmfYNyuT+Q+ZRnIq4IZlMcq6PaP02hOlncihIpXkcsW63M39hPgqS9qcFBgzUHYxelQCFSo9/MD9aexdXC9aiZp95n9hmS+wJWbU4Kf/UyF9liEpnzRJA04a3LUP2ID2XfBOEMLZfB7u++4BCfhEgIBb5xvqIo6cUhh9GrSeXd8q+td4x4VBoKg/Ogd/naxzVz2Vlvc7pSW5JMznTNC2lXBMwB1GfwycxCaLhCGXxsqPpifeUiDI4pu/7vPYGKaq4IBWAa+9wEi0nkpWMI9eCokqyDkrIlrVlDb5tgN3GLMCcXozgtSAAA4wa26BmXaztXtg1DHy3skWYUZHBv8NitQs/7icuEN+OjDNk0kdnGO/tBiTmkGbwRqPVjPB9QfVRaLPejXND/XHW5tgA9hdjz6l3CrcQ+QgsC5hT6ksHfiHTlcHuo2xLkGixGcDi4xi6DBswZEawrJ8mjLbw0G6FaVWVTnQjDR4GkObdfgmqrBXA3bazGhO3JuCNoi2OK9AQ++VF4g2hUuBzBfMF5LA8VkdqNYhK5uQh0/yV9PhCBA/GUOf7aDpR60iHbM1qCdkAlZT7cmSpFFSSkJOpd048GPc4bQV8MEK4KoZtu2ey1RiT/iAsO2DPgKDL+Kzup4/mTuWNQuZQB8DoJAx9tQQ8Wk8KzbSzCZ9stofxwslB50EmgCjeefCdTogC4+TGM+kcBZcX0KtO+r7WXpmDl46MXNjUIP4PxCDH0KAAFeFmGxCjbHy5nvMTwZH8J8tGCQwsxpkRCiPQVWWQZhpG6rA+24xoK0fwNrcl5KsguqMH2KVvFlmUHbimP7Ox6/KdpSc04qpCBwqq/N3bIKMhNv856EvCcO0kbA0P52JN+spTAwncWEke1oNV7wcBn8TlWu6XzpwbbzJhD49V1ASAaTJOQijAoaejKJKzr04RfPNY/HgM6LwA5gNNDC4h6YjzIwXtvGP74zf409BjCbZexmOU7qxBdyLUyvYyJ4tfhnCOrlOlMitpcvr4GbP9XoE+3mIqnXzBcB1IcjmmcJ4IP4n/1cYQs/kMIafGWY5DmH32mHwmlIDKfBghIGY9ayQD0Z4Aqkrcs3bSZ6nCMzAF+Rh07gGniRB/8+E506+BhMgRHZk/IJmHp1UUsf6qwCguW+Z8vrxHIGYcZtPIDRgPRE6W+6qIxXyIP20A/BkDDBxQjQ4zziVuqliASa0aJAJtcFVJKouKGTE8GMGWwO65QCmTdoLqtY+1nFLAJ7EvT1F0urtCPaEJ3cFhZbBAFfmgS+9Vh5vRVot8Vz0dZBtLYE6WTizTq6rh58ynyBTwb5IB7Xt+ATFzC+DEMdcUrcYqPEDrp4s3C0yfp7WXUG1/U2OE9hNyAubxfiItA45X0BB3A+wEhTBBiPK1fz4bdAnBsPtGd8bPVGQRm7WQPBREnSpPUtVNDpKgdVEwCFN85l3IKZPk+giM1YEED6QZyij1DRv+xaQoBlo01t2CII8D5t6cUVmK9KjHa5vqtcpSSQRtPKs+YSVZccgGIiksQV91qVc99JRPiQxHylEIrbBomvJ1ByY5Tl7T11Xrh7nw4h7AzoQyFVfv3CRhDZRs5Zz4HGDqAHjIvoPMFtShvhcu/aGqx+NVYsQi9/oQjQwqyHSV4NWrQikyIptLg5jVghtXP8YZnWl8zilXmBkrVX+wkCMbu00ON6q6vyRnE2ywhKrGMXQWBTTC6BdfCkcW9CQhzZ+VGp6LoEHBaCTpglqFnnixPcfHQxffzt2BSAD5PI673+EEybEeTBbxUQF+a/LjrDJqA6owah+oBVIejzy+fXm588vZ4Wh/UIOvkA5g/ojDtHIbHgTCnSam2+MnoEuRkjuy6nbx5j1BfVnwaQCVwE2TAT2oFLH6ibNelFNZQT3pgHzSgTjbKC8CGlbAati5b7HCys112yGH25mDzenYnZIgj8FG3MzncwzbsPuEnB5ixFSB8NxjMQ/KNZA1z4NLR48es7ki4AeolPSF8BzN/FAMCtuxDFc+ICtAvJ7q3ByjTI7txy9+CaeIhYgdeN3fvM2RxclsEI6+sAZgjGhaDO3ZtDMZk9yDn8+K3d93WcMASlRBjkrlUzHKCknSA0wXQZj3Jtjg0EU63GPcC52BnmhIu4xQxRGYL2iYewyNF8bTflXXGpAE+8jOZzFk7ndmCLIAAYny8hSHN1bnO+tRmKcKX60X9I33wwj5t3zA4wLv+QFi+ZXdt9xYqP+kVOEQPTrM9K0VgRYObdmy9dzM8akW6DcwdZgsC8jvyHp9ebn2fwsESECb6oovfw3B/bgfAmPqIP93oABCxGcMtFJcAbJBlQfy1gnPQ5Af3QixRTyQqlLWcJqs6AcwgBKz29IJagyr4ptwxpkSJiQbJSzKxh2NliE2MSx5DmgybRfPzf4j5VyJTipeLamEbHQ93bDv8/AYPvCQqKNmbHmpLh6/BDPNl+mJxTIGY1WCS2ve/6JNJeQTkajOlKAKYsMon/Ce16mGQxTkWLRGPNOLAmuvjw9xCYq9wJZcZ4DYVG+159oaq4LZlfx9M+ZaGOsuO3qFfAymc9Ns/9Pv6hXYFKfk5yGJ5JDsSrHm0e93D/pM9UAeJz3MP9r746yN4b9H/I4iD2ktpu/EEdpzpGnuEfXxEamwXJlawLsGYCURBawtSmrCkE9CM4l7QwuA3AHW9cGvxQg93o0rVZgPaiw8eCN72E5mfPrDdPBlJw69YBFzOBb7vsSK48zcV3PYgcerVnt0WD+MvBW27+9yOrGYhwrf248+C15troeK/7zqWtVxzJDEUMOSswuCyP758623zj5Fpzd2hmAwBqNYUQSOwmFxd97Orl5hPXLOX7AOw518andiL//wenzzbfijLvjY5MyR0/ptJpgfs9TngY0JvDx2JNSLziZjCzuv2qDNfGJUPEDOC5zRXbAdzpdvWN+1TeX58Z46F6i7bU58aFvD+OMarJm9znwFgZjosTSgj9eUGrN0J5YetAFgzLrYyH9rz74VPXeVfDUk6D9xH9XgHVPRPC6LcvbjRfenS1uSfcRS4AGOIy+BTfsuHrJ69dTt6gjVkUs8BG+1mq3pXpDVnomFVOyG9tLlfq1eb90RdWn346jrIcfzsWvYIA6Pyfhin8/z74UvNgmFxM7fbjHvKkaRXbX6vkzmuXUvr0mdt7BVpC3eX1W2ebf3piNbPJutIPPk7hQ/pZbmu/fj4mYmjjo0xWhhmBu6MzvQ6cnyXWAfpw11aMajAJAKaqnWsMeDeMCS/3+tz6y2hA9PxQcRBPjfOce9RRLJzxQD2ETcVvHHAb5sxnyqVdoTxTLEbfHcZoJMQN7lGHzM8UBnEw8U1R3//8evPr5zcyX8TY1fEGWW6OTzBfCGn7L9ieXVCYX1/vmwVwiZn8XhT7nVCU9wVdslgqPrWN2sEqsRv1ZwIX+0WwUo3VNKB8/CAw/i8nVvP9lPc9txEWZam53Sf6H+3jzb+88WjzzuOL6Wr3wUhBIMjxYEi+//n7M/nKbKZQl3AwlHKZG/beJ/3u0ODoAB0xC4Cceszn3/30evM3j55pHo7vXJdt+MRhmkRMwUYc3g5k+a3pni4+ymQF/C6EnJeP/iik6gMhGGrQcyf0EVwUmXnnSeidm526NnqeYzu4U3vGf6LU4f5J+hpbDOupn2OA+yoJjfWMsuPwTLd/doJqCXjEYTS4Tc8HtxEI5sxpvj5AycfDaqOJv3jT0eY9Mfbm/ift152ANhYMvCesk7tCG3/v1No2bQw9XzE9+mOhsgqsdRG02ysoF3kKDN4fQvErj69mIPuxMxt6bUsb3YsXWAB2xv7P0R9iYqz4PhgpCDRYhf8aks97+pkhparN231zhZZ822Vlw4xPXrOSna/Be2/yVlCPddYPhFb4cjT+pzEINhAB3cY7N01oow4+EWFg+oml0MUH04uDmCL0AlKCxnw0v6/YBtvL9yfriR/81tuvg9/GhUnubUNlsPGfb/XBhJW6fcJH9n5/fGk/q78xmpkgn877ACUj9GuD4L2LwUti3hXuoVWDU/DfFsCI3BUuAUHAZaEwXWsLvIqjGQZ7Rnw2mPEdYalixr0Kpqw7/nhdvjdU3/Uk16QoReW1y1Q/HvxAuAWfvX4lXOXlPB+lNLYFCytoFM2nQCu8HnmJ1NtqktXPYhoVTcOPpoFtq1WZZVpQhgNzmiYUMyCF4dLFxzkLX6ep33SJmYJjPfgwPZlOzCWaHSFJJBJDGHgJCe3ys4xBOepSj1u3HK5NcCDuaQ5Ce9JD+yY9jPPER8jr3us9RwxpJuQIxmGsejDHWQXxf1eIx0uUPm6+OMa9ZiZyu4zbtFDGv1iEz0VHokOHjW3UXatI+tDPg0MwXf4BtxIu1XoYF7RdEFr+zs/DFRAr+83AMgbt4lzB8AKVd4ZifvfxpQyg7mQ5jhYEg0/C4HRoTdMUIrYIr1ueil2nYQUiZPDJCMNckzZ4FFQfFUGeWpPDMFgDEL9twycubsSn33V62QNvOz6+0ujyrlkM1YdDlGVjktI20K0DuBbFz/RQaN/1/yiH8SmHsdo8/Bb/dwT3AAwZ5JHWQd281hQaWpgVoMVgixRUNV+AINuCZ3wh6NER/iCYuC5orcZOxgXPo0lp7z8Oy5VLYMFVLz/GNcrYfpX2tJQgSBnuBCMFAVDBYrSYRDZ19ng0uGZKbak8TiC08eqh5ly03GaoGlsaXAZ1Wmh3sKk8/j2fkbQF9bf8jD/wqYfgJYJIfOI3wq2CrwiPZcClEHmWheWedhnxf2yY5N7XCuix/T7GBf3PjSAQwKUhCGTTmUEy1pOU1QvKGNAQB9UUdIlflJGv5ft0hTAw+0UQWeKPKdHkOMLA8xjbTNkjL51rfjQQAo+Ea1zXVbTLcC/UbHLrDVUfiEOWcN9MQRt2FgRRYpke8zKNQ5lZF/9zf8BBPyT4CiWdP5hNyefqpo+JRPm/Z/AsPARAvJbMem9plSSy/ujHp0RYXdHp8gowec4itPDx6XeDJFFEpJk56XmPk/TVLZoElDvJcaHDvHHcS/+OAjxp3Iw/AUAR2OykKqZp2pLjFX/QTJBT80wIAdN54k3oRTtq+T6de+tQ/Y2bYEUt3sh/9eYOuJcQQeNmS34RLoGpwt+9tBGKsD8uoCxCz9S5OImt7J2PqqPCjoIAeJ52JM1ES58Np0+D/dAuu35njpcBeCVNbo1lEimDPJgGNKaadzpVAJEUFkAB3eJdTfMt8BEANHAGAD6Lcbei2s84J7T8zpx0IBySl1nGLVFmt54u+F1bs/x5HoO6QP0+7rEX0PaJjviz7doOx6SQz0RjetsTF9GIsa/BNBYfgVCU2977AXiWQFEOPFgELAOKMKrcVjYSFXvK1YEBAuxcVjyCN/pw8QxBJpX/3mc2cobigRfWgwe3K7+EuEbR3RougXyK919xJGMS1hD1ld+GkbMGbYA7IWDO/atPrDbfO70ePlGZMtmGS1zTSIEKMwne728O9Zaji8FgAwsj7tvSiF0x2AS3MpOkVX7jybWM9vOb+lZd1WKZYTrkLZcu5puHTenIX7dDrR1nuvhkjCAG1pQlCfyDU2dzJaJB7NYB8lr8CcWTvpm6qvYZB+oIRJXZDp/jbPjiFsTizt3v3gTPTLIwx32T1gO3PHwf86nEKz7rc7uB+wTQKm5dcC1IcfA+iMM57nccX0qfub4DAiOPOUy9QOmdCJf5O0+dbe46udb8MmjxxaDPrjCAi3q4p7cdKztQw+XNYcILsOdq2PjdM+7FW/JaBOqltt8TLoFcGitsKVvQLZ+1LG/Gey7uvHopX7ffl5bfB2MJAqBykumrwXz//MRa87tgkmJ2b4UsLSoOfkiG0NA7Ll9KBjS/j1EIimh3QXCs2rdCCqbopJ8+u5FTON8PSUk49KAzLF598hveEPiYxrkjBqIubw4009IgDMKQyXaJzsogM20q85D1sVNwUltEhS3hvj3qyFTO7o0j4NW4Txk0Bg320oi2bIH4HbHZBScZYbf7B+A2ZZdndn/IHQ73O3h+uzVr8/7SX/763A2gk7hFDa8oYCcIJNYDGcwiem/VYV9z8lL8oX1lnb47mINAeONgBWoM01A57QWgadwk3xEGPwp6ORWD6FqXAeHiEvqXaUgxvS+EwW2hwaXFZ3JaEKF+o3QsopP09qOcIVhvnjxTsl/RabvobGMAC1aZ/+2Wo9lGwq6DwkgYWxBoMEa4P/yU7wbj/cPjq7mwIsZhm4lSG0xDYj5pyG+MxmKSW+OQ5GCjkYwd7BFSMIUkvjs0NqvgoUH2Y627DfWa6swpSz299SJLMg+HMCguAD/KIChDFFgClZiIwWDypRDo6SmXXCfRWT5/es1y5i8QMLaFF2fpeWwLwE0ZZY1CtC2k0avdTu1C3GfoGL1byo9rNZDVhcKQpklLWwigXWFQuA80MAkMBcEEz1WhuBtu7hGp/1VoYMz3s2fOpnYmHLuPqh6jM5tpX3P5cl0sKza9SEigRc85JkA3QTtpbkx7T+DiO0beiby5qOJRpvVsGCzZCOMSTHhKYF6ym3iAnBnT5lxUQ9sutuIqEUtc4JPXSrFeyV2XCZxxYWxBkHdFueZMpXpK7JH7bf2/nwY/D6EWShNDiHUgucJ7+qyEKlbB+Ii2wVMG3P4AgijM9ideLu82GAX1F+mr/LK6Sy4hUIOIBIHOLhtBljceITauQh9ku+MPcw9hSSUlBN566VJaGQhhnN6t3QB9VZl5GRf67hzVq+17xxv1FozZljZU0hr7sUFHjEmSaT1Jtf3mydXm306ezZWnaKCv/Up0vc4OGXP7VxLYZXZrqx89Dgbt+9FJ2aNjI314eIyyMiouhA8FZLGe925ckdZpSaumfBymCNE5SwD0tc0z6O9Pr7GmYCXdoGNjugQVxhYEFSAkQsp3/saJtZzOYJ6NWvaJsP0U7U3TR8OrENijHBh2hpSiOrVJAtfO2gncUlGNfs/4gY6EH3yiqCzTQOaeBvCMe7uoKsIvnrv1ooXmPVcsZSont4CAOYD5A9paDSZBg+JF3z1VFt+w3kB3zMDgp2QSW/OJEREC04yYehSL/lbjj+QidNRXfwX3o0OfYknoEF/AwzWWKfeCq6ogZXXL83y1cj5yVbFGZRIKdk/anokFAaAhvdfAAAiQ3B0+jNmEAd9sg1pB/Sk/40/PrRNBljsofJJGdPEBFe92b/jah6Pr7iPRWTgfi0EQoLHY6bKBdjmA+UMdB/sDChhn+nn46tw6143pqPEDw98G9/XbErvD8KkB8dTyx4EuLkmHcXGnMvymKmTGpRD3+Nz1KxkfkDPg+hCnMWFPgsADIYgzL/8Xz60333zqbOY/W5VFEvq9DxHX1eaz/p0WaOVRA74bJAZDfDZhRwIa3M+c5GuSwB8OQSAYakMX0n0vuBzA3iHdufCh73naIqD1XB4sE9b8ex3b7pjU613q75zuCu1yqzKZdPyzzvjTrjvLiD/tsurvrglEU0KWGHNH33PFkdzWL4yDPcGeBEEFQQ3S2LTi98IsE12vO6VwFdqNeK2DTtIe/cyEu+XYYvOOkMB/zh24eHOz1z+mNr+WgBsn1wMtit7/7NmNYepvd43MaxHa+HOxaX7BwY+nO7C5xHmvbZxKEHiQPybLyXZe9w4EgpVZ8g5YBxVea0wC9XbPwF9HCy69NQSAjS8kbNx2sdVt3IHXVvv+GIEwkOUngGyZ8E9OrzX3hcsg2Uc2bB3OqrnBhTpmLdIb0qF4lJiA2bf3Hl9qPnH1Unw/3Fy5EpZo/DZNW6YSBBUESZ4Oy8C2ZpIeJFUQDKYXrR9nOcT/Aq3apq54xjDsyFanCmqK/VksYrrp9ccON2+97EiueTcXLG98Lz7ZAcwHCAOZhN5ShQbttCUfxLZeJ1clnpWoPNob0t/gy4VAj0lHLWJigaIv0942/TENTxF5tf3t8Wn2o059TgMzEQRAIYKILAH7Bkj2ETeQCSWQGDIhBqFEU7cOxIXBQgUL+x6WmQAzClwA0zDWTNiwUiKSRI2bjpaFI2YbDuDCBDkZ5t6tR7FIx05CD4Zg4D7I/BOVt0JVVH6THvd3PGtGSE3HD7JLGpSRe8PRxUyC+tCVR5rXx6ecgyOHyn6Js4DZCQKlBE514ZHMP9l4j71se6my5bJ4ggwwwR1WxCuvavpMqp8adCfzSqIH6evV0bceW8z5WRlpXrRiB1gJUsPpxvLoAVygQBhQTmUPi3OZ8YcmpacLdJuj9y4A24BTUEOrdZ9AUhAXkwAI4zOTnSS9sT4lHl0Th9hAXBq6AqOSxyaFmQmCNiiQ9hc09PYViRYn1+w9Z+91yRF2g91cJnohiAKSNZONYiCqMJD2aaWY1Yiu+W2vSVAHsD+AutGZWBYr4MUQCl7i+9RqeUeFa4RFEQT7R4nJ1PGPgvEKgeWFQncS3mpqvkQo711EgrOmwrkIgjYoXQU2V9TZ2eHxnRk256onBp3LJKvLSzG981l3+gHsH6C4kAkDN3XTErgQSDG1eyDio6z4LbToc94wd0FQoead17BGPbtwIPCJ/2VtADFVhMAB/PEBkk9FNBjnQotgvwe84FF5BPhGMMwXmub/BzafLqMc0kBHAAAAAElFTkSuQmCC;fontColor=#FFFFFF;labelPosition=center;align=center;" vertex="1" parent="1">
          <mxGeometry x="534" y="170.5" width="98" height="49" as="geometry" />
        </mxCell>
        <mxCell id="IYNB7ZwwtuiIuKCf3Mfz-14" value="" style="endArrow=classic;html=1;rounded=0;exitX=1;exitY=0.5;exitDx=0;exitDy=0;exitPerimeter=0;entryX=0;entryY=0.5;entryDx=0;entryDy=0;flowAnimation=1;strokeColor=#ffffff;strokeWidth=3;" edge="1" parent="1" source="IYNB7ZwwtuiIuKCf3Mfz-4" target="IYNB7ZwwtuiIuKCf3Mfz-12">
          <mxGeometry width="50" height="50" relative="1" as="geometry">
            <mxPoint x="450" y="230" as="sourcePoint" />
            <mxPoint x="500" y="180" as="targetPoint" />
          </mxGeometry>
        </mxCell>
        <mxCell id="IYNB7ZwwtuiIuKCf3Mfz-16" value="Storage Integration" style="verticalLabelPosition=bottom;html=1;verticalAlign=top;align=center;strokeColor=none;fillColor=#00BEF2;shape=mxgraph.azure.cloud_service;fontColor=#FFFFFF;" vertex="1" parent="1">
          <mxGeometry x="540" y="410" width="86" height="70" as="geometry" />
        </mxCell>
        <mxCell id="IYNB7ZwwtuiIuKCf3Mfz-19" value="AWS IAM&lt;br&gt;" style="outlineConnect=0;dashed=0;verticalLabelPosition=bottom;verticalAlign=top;align=center;html=1;shape=mxgraph.aws3.iam;fillColor=#759C3E;gradientColor=none;fontColor=#FFFFFF;" vertex="1" parent="1">
          <mxGeometry x="335" y="404.5" width="42" height="81" as="geometry" />
        </mxCell>
        <mxCell id="IYNB7ZwwtuiIuKCf3Mfz-20" value="External Stage" style="shape=cylinder3;whiteSpace=wrap;html=1;boundedLbl=1;backgroundOutline=1;size=15;" vertex="1" parent="1">
          <mxGeometry x="532" y="280" width="102" height="60" as="geometry" />
        </mxCell>
        <mxCell id="IYNB7ZwwtuiIuKCf3Mfz-21" value="" style="endArrow=classic;html=1;rounded=0;entryX=0.03;entryY=0.5;entryDx=0;entryDy=0;entryPerimeter=0;flowAnimation=1;strokeColor=#ffffff;strokeWidth=3;" edge="1" parent="1" source="IYNB7ZwwtuiIuKCf3Mfz-19" target="IYNB7ZwwtuiIuKCf3Mfz-16">
          <mxGeometry width="50" height="50" relative="1" as="geometry">
            <mxPoint x="310" y="330" as="sourcePoint" />
            <mxPoint x="360" y="280" as="targetPoint" />
          </mxGeometry>
        </mxCell>
        <mxCell id="IYNB7ZwwtuiIuKCf3Mfz-22" value="" style="endArrow=classic;html=1;rounded=0;entryX=0.5;entryY=0;entryDx=0;entryDy=0;entryPerimeter=0;exitX=0.5;exitY=1;exitDx=0;exitDy=0;exitPerimeter=0;flowAnimation=1;strokeColor=#ffffff;strokeWidth=3;" edge="1" parent="1" source="IYNB7ZwwtuiIuKCf3Mfz-4" target="IYNB7ZwwtuiIuKCf3Mfz-19">
          <mxGeometry width="50" height="50" relative="1" as="geometry">
            <mxPoint x="480" y="340" as="sourcePoint" />
            <mxPoint x="360" y="250" as="targetPoint" />
          </mxGeometry>
        </mxCell>
        <mxCell id="IYNB7ZwwtuiIuKCf3Mfz-23" value="" style="endArrow=classic;html=1;rounded=0;exitX=0.5;exitY=0.09;exitDx=0;exitDy=0;exitPerimeter=0;flowAnimation=1;strokeColor=#ffffff;strokeWidth=3;entryX=0.5;entryY=1;entryDx=0;entryDy=0;entryPerimeter=0;" edge="1" parent="1" source="IYNB7ZwwtuiIuKCf3Mfz-16" target="IYNB7ZwwtuiIuKCf3Mfz-20">
          <mxGeometry width="50" height="50" relative="1" as="geometry">
            <mxPoint x="480" y="340" as="sourcePoint" />
            <mxPoint x="540" y="340" as="targetPoint" />
          </mxGeometry>
        </mxCell>
        <mxCell id="IYNB7ZwwtuiIuKCf3Mfz-26" value="" style="endArrow=classic;html=1;rounded=0;entryX=0.5;entryY=1;entryDx=0;entryDy=0;flowAnimation=1;strokeColor=#ffffff;strokeWidth=3;" edge="1" parent="1" source="IYNB7ZwwtuiIuKCf3Mfz-20" target="IYNB7ZwwtuiIuKCf3Mfz-12">
          <mxGeometry width="50" height="50" relative="1" as="geometry">
            <mxPoint x="480" y="340" as="sourcePoint" />
            <mxPoint x="540" y="250" as="targetPoint" />
          </mxGeometry>
        </mxCell>
        <mxCell id="IYNB7ZwwtuiIuKCf3Mfz-30" value="" style="endArrow=classic;html=1;rounded=0;entryX=0.5;entryY=0;entryDx=0;entryDy=0;exitX=1;exitY=0.5;exitDx=0;exitDy=0;flowAnimation=1;strokeColor=#ffffff;strokeWidth=3;" edge="1" parent="1" source="IYNB7ZwwtuiIuKCf3Mfz-12" target="IYNB7ZwwtuiIuKCf3Mfz-31">
          <mxGeometry width="50" height="50" relative="1" as="geometry">
            <mxPoint x="490" y="230" as="sourcePoint" />
            <mxPoint x="740.175" y="243.25" as="targetPoint" />
            <Array as="points">
              <mxPoint x="800" y="195" />
            </Array>
          </mxGeometry>
        </mxCell>
        <mxCell id="IYNB7ZwwtuiIuKCf3Mfz-31" value="Snowflake Data&#xa;Warehouse&#xa;" style="shape=image;verticalLabelPosition=bottom;labelBackgroundColor=none;verticalAlign=top;aspect=fixed;imageAspect=0;image=data:image/png,iVBORw0KGgoAAAANSUhEUgAAAIIAAACPCAYAAAA2nQMjAAAAAXNSR0IArs4c6QAAAARnQU1BAACxjwv8YQUAAAAJcEhZcwAAFiUAABYlAUlSJPAAAJaVSURBVHhe7f0He1tHsv0L6wvd5xxbEsUclIMlWQ6Sc8455xzGeZyTnHO2JeZMUTkHUswEARAECRAkwJzJ9f6qNylrPPJYnjv+33Pfe+SnDBBho3fXqqpV3dXd82ZmZvRXytTUjKZNpuX+5n+S+ENTyCQyjow5meHvuXfmxP6e5r+pmSlNTU9yvQkex3kc08TkuEb5e8TJpEb5kVGuP8p3vCv+o4zyCyNcZ3hm8g/FPmctstbNycSccAue0GJ+c3Laa9sM7dI0vz5lwi9O8bfJNN/ifToC4Y6cWF9wsbl/9tzEXrf3p/gs9yTuzbsOj7Tpt/37n5K/HAjuvpApnluHTXBzpsDxiTGNT45qnE6bmBrRBB04bR05Y6qf65U54f8nrjk9e90ZjSH9SN+sJPhoHOlFepAYl+pGorMS4bVOrnU60oV0I71IYlb6kH5kABlEhpBhZAQx8AFTWjsHF7sXA8GsOGDMAoT71iQws3vhk3Pi/rk/+N/JYJjkepMGNO/e/wr564HAfZnMAWHcLJcbGwEMw6B8GGsZnuFvrHDMLJ+eME9gvsKsbgwZ5QLDyCBvDPBGP5Kgb7rGptUyPKHGoTHVI8cHR3Wsf0RH+oZ1KD6k/b1D2tszqN09A9oVG9T2nmFV9Y6qsnfsD2Ubsic+rsOJcR1FjvVPqJYfrx+aUuPIlFpoWBv69dOWANJO26LcY5z293Ef/cggd+LuC5nAI0xyrwb2mVlvMQ0Q7F5N5vrpV0CcBAZA8P8HQPD+MwVzK85WPDftWZNZ1m+lnz4w6+6hDyL0QWicTh+dUfPIjBqGZlD4DIqZ0a7uceW3J/RzoEc/tnXr25aIvmwK65P6kD6oDeqdY369ecSn1w636O8HW/TC/lY9vdenp05Dnt3XptcOBbW5pkMfH+/QZ/VdXDuqb1tj+jEQ15aOPuV3DqooOqyS2IjKAc5eQHKUttZNzqgR8RESQ+jSPJF5KfMmds9eyPHCjvWFPVq/cKsngEHXAQT+d8IzTPGUnvwTcip9/J78pUCYJqZNYgFmCdwGN4s75/7MlZrC40iMe+2kw9ox/1asrAbzPzg8pb1YX3V8QsXdY/olPKxvAoP6qHlA79T36/WaPr18NK5nD0X16L52PbQnoAd2+3XPTp/u2N6iW7Y16YaKBl1TVqcrSmt1WXGNLi6q0UVFx3VhUf1pyUXI5cjVxXW6tqRON5Q26OaKJt22rUV37fDp3t0BPbi3XY8c6NBjh8J68kiXXqrv0ZutfXq/bUCfBgf1Pe3Oj46qivvYNzCtWsDcCkDaUXAn/dPDY4J775ua1gDPh5BhxEKe8Y+p2TDI/xwozCOcSuG/J7/Vx7+SvxQIU8YJiIcTRuxwj2YFBgKzjB6A3o7iG1H4kZ4R7e0aUEkorq+w7o/aYnq3JabXGrr1t5qIHj7UpTv3der6HWFdXtWhC8s7dH5JSOeWBHVeid/JOcVtOrvIp7VFrVpd2KIVBc1akt+knLxGZSEZuQ3KzLW/T1Pss1ubtHhLg5Ygy7Y2agWvrcpv1lkFrVrPb20oadM5pfx+WUAbK4K6eFuHrtzRpet3d+n2fRE9eMja36M3Gnr1SWtC3wf7lR8eUFlkSDt7hrj3YXWMjCgyMqru0TH1jo2rb2KCEOgRXwODhQv3zzmHUyv89+RUOvk9mTfjkDYrp/jAb8VImkfYZsV+8Dc/ap8xmSQujk6MaBgwDOIV+vh8N+hvH59S/cCE9kYHVIpL//F4uz7Fdb+0q063b6vR9ZU1urqiVpeWH9dGLHFdcZOWodyMfJ8W5bZp/ha//vuXgBZsbVd6QYcyCzuUURhWRlFYaUWdSkGSi7uUVBLRwtKIFpRGnSSVdPF6WKlOOk5IGn+n2fOikyWs5KIuLSqKKrkwgnRx3S4+F3GSzrUzuHYm18ws7lQmv5lBW7Ly2wFgUKsK/ACzTReV+nRtRavu2NaqB3e06MldzXpud7PePNCqEn+XjnT36nhvQo2JfvkHhhQeHlHMADFp/MLCKQDwcHCSki1M/CpmcN7z3wfCnE5Ofu1XmdY8jfMzkC4nFqhcgDrhjVwDnNjf/Iej52Pm6rFvY78TyDhRjoYbmPB0Lv4P8NjNH8ERXCKEbhdkLrd/WJ9H+vQWcfalmk49e7BDj+wN6fYdbbqyolEbccXn5LdqQ16b1uUHtLogqBVFIS0t6VR2aafSSsIopl3z8/36r9xWnVEQ0EKUkISkoZic8h5lo6ysvLCyCgAGikkzcJSiwHIUamAoimhRcZTrmGLDykSZObyXzTXS80NKzQ0pje+n53fx/SiCsvMA2hafMrb6lF0YUlZZt9Ir4kqr6FNySUyLCvl92rmEayznussKeJ7n1+Jcn5bl4aEKfHiQNp1XHAAYIV1e1qFrKjt0y06/7tvn0+OHA3q5rlMf+Xr0M7yjGpJ6DHYcIIxY5mOcCXrkFD6DQc3MEGBnRujrIY3PDCJDaGQUnQAbPueQg7in/A/VkKWhKh4ned10ZI+TGKVLeyHr82awTgcCSI5dx9LdSRowPoHS+cacewJfiMX5CT5GHk9jJseHyYZoEAie4DtwJUfw2nnewDUP9I2rtH1QX/p69femLj1YF9LN3PRVu9t0WVWbLin3a1NpQGtw6xkFTUrG/WZtCeCSO3DPXXR6VFnFMayuBwvsVgrWtwjlJRW2a2GhgSCkhWVYPo+ZgGR1RYTQ0K71WOO5RUFtoOPXl3D9sqBWlrVzrQ6ntDkgpKK47IpuLamIKQeLztwaUPbWoJbnd2gN76/D8jdwXVPgOYSZ9fmNXN+vpVwnvSSqlLJevEw31wNEfG4xgF3CdbIBQkZeQGkANo22ZNDWTNpsIFoCQJflA5iCTi0r9tOuZq2vaNaFeIwbdrXpwQPteqW2S58DiqKuQe0lPToOKNoIo73jk3jXCTgE/Q3bmiTQTgCEiekBlDyEYslEzBMYCAwFDgh4FQMCenVA4HUHBJ5PgAYHBPQ5bxI2OuXCgqfsMf4eGh9T/+iwBsdH3GCN2T/JDxcwxCHGYElnRgHAAL/QC9EL83ITYNoP0SvpHdEPnQl92BTR8zvbdEfJcV2Uf0hrkBVFdVpd2qp1pUGtw4pWFdBBWP+iPJ/OxHqScP3JuNd0FJGJBWeUxrB2QIBrTs7HXWOtaXRiJsrMxJLTyrH8Qp9WF7cCrqBu3ObT3dU+PbQrCIkM6p7dQd28w68rKlu0ns9kFwaVjkLM9Zsysyt7lV0O2FCeWfB6FH1pVadu2BnVnbuJ83vDemxfCM8V0D0o6rptfj7TipcgTNHOJBSfWhZRVkXUXTMpj9cIDckoPrUUj2Ttq0B4TC8h5PA7KXwmFckuBziVYS2BZyzJa9DyX45q7U8HddGWQ7oZgvvEzma9daxTX8Iv8sIj2pUY1fGRCTzFtHpRtoUO08k0XtkMctIEMNh4hqnXuXcIuwsVpt+TBGfAZy1cmNYnNW+MD5pTGXOCclH7yPQY7BUQOBnV6Mww5GVYY5NQvTGDksOCc1lhpI7nVUPT+q57VG+B5CdJue7B5d1S3aJrcIkbc1u0fGuD0nKblYKFpGFBmSg2w5SKK07OC2HlHZ6Fo4iFRQADi04GKOa+7fPpWGcG8TqrqBv3H8OV92DhuG2zqqImXY2yX2yM68v2ARV1j2gb7nUb+X9J77h+7BrRe3TmfQcjOr+qXSuKg1wn5ICQXt6LZwBUKG8dv33rvqheahnWJx3j2hodVwXf3851KuOj2hIZ1jut/boNcKyHKGabsmlbqoUe55k6tQCPY+FqEaEsGeWnlgO6cj5nQlhIAQzJ3JMTwlmy8RaAmYwBpP3SpKyf6wDEca3PrSNzaYJf+HTr9oDuJ4S+VB/RJ8G48rqHdZAspJ0IYeMqNswwjblPTwICvMXcfy5Bxe0743VuAmzMiulvfALfzpcneX8ejl1EGg3h6keAwZiDAiyfx3FeGQMEw1ODeIYhMEAGzLUhtpAZqZXnOwenAMC4/t7Wp/tAr7n9jZVNOrukQWtx92twt8tyIXRYcTJKTCrp1cKSBIqPYzm41Tw6gzichvWnYyEpdHByUQuvAZr8Fqy/zbnVHDp3MYpbzDWyCmMQR4vfHfztg7U36cHDIf0QHdHhkSmFgHsPADexNK2Zm97VP6n3fX26cXeHNpS2aQnuOg1CuYgYnwQos3HjF1cG9XxTH1yGFJZ7C2A6MfxkHInSe41cp7RvSi/U9+rybSGtQKnppnSUugBlziekLMD1L3JktUMphJQUvEcK95PKYxphKg0wpJaGlQJ4LKwsBNQLCIELC/ib7yfnBTEOPx4HL5HfRvbjw2viqeiXS6vbdPv+dj1zvFuf+4dUGZ1UPdYYgZQNoo9x7tUL3BY6jKnNinEKuIU3HmEowAcAnDE8+ij8bhyvP888wTBWPzSJolE6UYhbHuHWzU8ACvMKU3gEEGBj9Ta610kn1UII8rrG9EZzXHcdDOlCrH8Vys/Ob4A5t2hxoV85kL30LRCtfFxv2QAEa0TJFaNKKh/BYgbprAQdxHtY9hIsakUZoaKkVauwhJWFDUgjz5tx+3QGqeIKUsbFeI40PMgiYnkacXgVbvWKbW16uT6qajKRkI1W0t7x8T6NjffT9jE3NOwnfG3pHCYGk34Sl5eRAlp2sABvsICQsxhPdc32oD4gxTsEP+oCRCPc8zSkzPrCujbG/R/h3j/0D+pWwsY6gGsZw0IU+N8A/sxfAPFWOAHtykaJi+EVS/LqkFotpV+WAoYlpLrZJe2AEKAYvyiJI71IDx4F4un4C8ZBaEzh2l5GQ2jh84sBhKXHl1QGdNeeTr1c26tvA8Oqjk2okZAcJWQMAgYYHP/ZqI1pzIbuuQe8+fTEmKZR/DTMcRIZ5/nYBALvmGdkwQ36TPGlGUMP7t8e3eX4MG5jGLeCJ3KjfEcGpiAx4/q4Ja5HITZXVmH1xXW4SXJ1rDMDl5uNpS3hZnKw9NRc3CPsO73IlN6P8ge46UHi6gAW0uvSvxzi7SoUs6nEp+urArjCoG7f1a47dofo8JCuJ95fhjWcVw4DBxg55PLpeS1cnwwD6zYO8H5rXEcAfq91AmFMYwlNjyZAPkCmOzppe0nXsJ44ENQlJfWw+Uba1a4FtNOseGlhm67f3qZP/DEdGx1R92Q/bhMITQ3QH0OAYUwD/L+J63wbGtb9hJCNZfY9vAJASMOSs39u1qqfG3UubbsE8F5Z1qpry1t0XRWP1QC2OqRNFe1aA6fJ3tri7j29uNvjQAAgGYMwErvIeSoEr7EI/pFcTj/ymG3thJesxJudjQFcWh3QHXiIF+q69FWw1w2h+0YmFQf0lgyaBg3A4xYu6IcJR+zRMy59Bu/gZXleQjBvZm6Gy1wH3EBTdJuJuwgeAEh04wV8cIDdcIAPW+AAhy31adH5xccd2lMgOsnE9HRrLDF3MQpeXNjtgGDWnsnNZuLO0/J6lJpP2lXUp/TShNKIpxnwhxV8/0I67Z49Yb1+LK7N9f1uFPGj1gG939Kn1xpjeromrHsOBHTtzlYYdos2lMO2ixt0QUGt7qxs0CeNUdWRqg4Y+bEZwAkUOIbqSHFtcKYTblNKavb0wXZdBnCX59bTlgBAIP3EM6wgc7lpR6u+aOM6wwPqGevR+FgvncZ1CIvTuNchrm1zDD/4+/XIrpAuKWzVWVtatBKSuRaPcimGcGtZmx7eEdJz+zv16pGo3qrt1jsNcb3R1K/nGwZ0/6E4xhPSOgMyniMD5abThgysP52sIw0AGOdIwUMml9E2J8YnOunPGOECjkTWkW6ZSAncq5w+2N5I3/j0Tn2nSkL9Oo6H6Bq0iTgbwZ3Bx+PT0PM4HGIKD+BSQ/rE/hllsExinqOPBgZ7Ezc6DXLGYaHmVMylhnn76OC0ioKDeps4fMO2em0sqdUaFJCD20sjDBipSyuLKasyocUVCHE3B06QUwgjrurWUlK0xUb0tkLKciF5BQlu3EBBLNxap3NKm3T3oag2B0ZV3k08j0t7+fG9Np/QP6WqxBgEiTQ0lNBbrd16lpz7wcPtum1Hk24pOqzHK4/qm7p2NQyQxXA/M7P3YmIebxj0d4yQyoYH9OyhsK4sJeTgEdJtHAKrtPavxrPcutOnrwM9asQjxAHA2PggHQcvgolPQboGyeNbhyeVSzr8PBnEbcWNurqgUdeRBd25vV0vHY7qs8Y+/RIYUlnXqHagkD1xGy6fUfWQlA+mPuiY0qNH+3RlpVl20GUrGXiVTNx/FgQzCwBk4gHSAUAKWcciwmFScTuewlLPHi3Ds2YV9wKSiM4g9T6juAkOclzryo7rpuomvXywQ9/VxbWjfVQ+UvgoSraZU5vjwNTx+rzgiKMn9vcEoJjn5RK4CbzC9CRUERkAGDG+1EJ/7oIUfE1MfH5fu24iDTwbL7CyqJ5GwXAtA7B0CKKTAolLxfKNiWeB6mxuIovcPaOCUMFNLS6MaPFWvEQe6VphH2juxSMEeb1Zl+5o17Otw9rSL9UAWPvdNiSIhPBGIfubuF03Oql9A2Mqi/HZcD9pVbc+rgvqu/qAdnTE1E5qNUiCPDXr5WzwZdLF+hlFIUeVkMlnsdKryrFgrDnbOhiSl1bUrrVY8q0o9+v2BO7fjAAyxXdtBtSNyvGfXafLUuTokH5u6dUn9T3aXNejT5oT+jE0RKYyoaNDkFMcUoBe76AZYa5lE08t9OdBrvUL9/hy85Bu3hXWugobKMM46LMMPGc6IcEGwCwNtRHPFLIoS0GNXKYBkmzLmDCgjFKAUN6jBQDmDICygFCTVQhBBxTXk2U8SGh97WBUZXCiWiPP/L7N69jwPt2J8nnBEUcvtZzgcZ75BnvD8tFxrGeQm49xw810XEXPiD4iFDy8x6+rcKfrtx6DZDWgvFasnZgI284kBGQUEuuLUCxkx43iAYC08jbiW4vmFxtjDrowsXgrniIXRBf2g3g4A1aQA/m5cFtAj9X16XuyjxqUHUCZXTSQKA+SLUR56a1xlQTA7SQA+rnB4/2j2t/bp8M9cfkGhhTHG4zwvSkDtht65Z64L8uMenjNgPDUoW5dWe4nqyGbweWmwfwzIKLrynwuNHzqj6sWZVs9g9UbGFtCn1yBuMvv98G4/cMTqukb1yFSp4NkI8cgzjaGYh1uBmTT0AN8a4BQ2wf36gWQHXy3lvdz+c5LDTFdR3hbSQaRjvdMRVIwomS8pg1j2xC5EcUU+ie1xEBgYxBGHG0QLIKngGSWQi75npHdhXjeVIj5YjzsWYDiPPRzHYB450i7igH2UVKKTn4bh+S8go0dTVvqB0mcoc+mzCPYG/BIPmCdTarEi63jU1jdkN4ib719e7M24npW5R3X4rx6FEf+jAVlg9osQJAFALJg/1nE/MwyAOFiW0BJpS06E4T+F8RuETl6Vj7kEY+QvYUsAa+QCbLTuYHM/FaYcLOu3R7SC8diyiVP3tGFcnsH1To0osg4nUlsG8I9WzWS1TOYK7NUqR/AdI6NqXOUzuamvCleU5wxHFIkQG1AGEXs/Qo4wqP7unRpqU/riv1aapZmo5JFAa3Dvd/MvX7aCllE0d38zhC/Y4OuFkM9UuUBLcELMQzKZk67kR5+0yzOK2DhfcJIz6TNGyTUmuhRXaJP+/pGVNQzqvd8cd2716dNBcfoTz/hETJICr2IuG+STEg1IKQaVyiBJJaieBtvcAQSvmBizwHNIvo/uQCiCRlPw9CMb2QBiGxSbiPVd1bU6vWDPv0cgEgPz7gxHwP3GEYyaSHPpge4H17WPEOJEQpncXRhYGRUVZFBvX68Vzfu7NQarCWTC6cUtCgFpFnHWe5sbiydxqSDSGO+NgRsYo1PAcU2cLII92Y5eiqNzMrvwiN0aNmWoJb94oestWlZbqsbi18FijeUBXVVVRCi1arn9vr1xpGwPm/udSNqO3pxuf0Tah4cU2gYpQOOYYAxNAlDHp1SHGuESjhiO8S9GNU1omsJlBW/GSD6yJkr4QgP7w9rU1Gjlm1tIvMIKinXy9vPxjPdu8unHwPdahkZJMQMYjXEKWdCHrcyQPBThAzcrFkYv9nLe1YF1cVrISytjZSscWRMhxIjqiB8fdcc0/s1Ub0IB3oYEN5MGLwYI1mPUa3h91fmwaPoj6yfWpTxC9kQ2UQaxpFG2ErH9adVkVpWxrXQDWdHEEBg3gLPkUq4TadvndDPRr4trKTQ7xlF3FNhra6prNMjEOSvyPT2cztWdUVCidcc9ogwoDWPN2+u/Mo6sAdydbinX181RXXf7rDOJU9O4wcWcvGFeIFFNkBCI8w9nZYQ/1KJZRk85tC4FQBqXUGzziW82ATT+TbJhKwtagAMDaRVdTq/sEYXFtXostJ63bi9VQ9Cfl6o69b7zT361t+j4s5e7Y8P0NmjCoyOq2N4XFEyggQuzli9i+vcmg2zzv1nU+AGnrLOAa7XqfNLmrUU1m5ELSUfr5TXrg1kDVZj8F2wRw2QxT4yjym8iMvD3Ji8hShLIt14nZsEghIoNDrjKpYOk7aVY/E/dwzoy7Z+vVcf1/PE6fuqO3SDpXoY0UaI9QY85Pp84jlyYYFPl2AIF2xt0Plb63mPvqAfVlj4BZiOY1Vi9ZW9s0DACwAE8w6pAMGUnwE/M7Hn9prnOWwMIkQ4riNU1OrSyiY9S+aSB3Ft5XbM8KdsiGDSgGAJJkAwKzKvYBVBrUPDKgxG9fJh0jRy1DW4TiOANsiRDADcVK014lRKP5XAF1IrIYrbIEa4/kt3BXTLPj8plF+PHCHNOtym+w626ra9LaSFTbq4ukHnVND44hqykqN0yjGdV3pcl1Y16gbSVRu2fupogFSsS5+1x7UlklBVLK7DfQPy4Sls+naIUDFmYgMls5ynmxjdhHK/C/XpTtK680patbKgVUutswD50oJ2V89gQ7nv4oWqByblo8P6AdcYsXQEAp0AGFEkjLG0c+1WQHi0f0zbII5WrWTc4jnY+j0He3TzzoiuLm8nvWzTxq0A/5dGnbsFZZOpXEzKd9U2P2SxnRQ0oKd3tukpSOoT+4J6cH9Qt8HHLq0CLCWNWlrUApnEM1g6abwAj3C6QLCRzSzCwzLAsL6wXrftDuoD0vE98IUoPGvMfOY0XgEgWCidN1coYpNGu6IJba4N6HZTCOQpx8bLISU26mVuPwtE2nTvKZV+SrG5/jatrW7XdbD1Z1sT+rhrQFvjQyruG1RxYlB5PQP6ITqgz7HW19oSuu9wp26kg66qatEl5VhNWZMuKG/WpgoeKxp0UWWDLidNum4XwDjQoheO+/SJr1MFHXHtjQzoONKKcgLxMUjdNNYtbn5CW6P9ermhC4D7dC4dswbXvBrvZANZawh758G6r4HcPnnIQDai0j7IHZbux803jQ7r8Oigdgz1qzSRUG6kV98GY/qgMaIXj3Towb02qOXTFds7dEFVl87FrZ+NpZ9L+Lkwr0lXQphvrmzV/bv9euZoWK+3xPRJR7/yO/tVEeknZR5SUe+IvofMvuXv0/2kxpdta9IaPOUSywjcvAjKRU4bCHCJzFK4Gfe4mBT9fDyNTZ792D7A/UyqHy9pYyMm5j3nmZvrJdY1Dk3rh9aoHtvThNuu0ZJin7PoRbikReStmchiB4hTKfxUQszC9ebkNuuibe1kBQl9001eDfvyQbzCuPFOpB2rayFHq6MhB2hDaWRMP/iH9RFZxMsHu/UYIepO0qHr3LQ11lXSoHVFeA0I7PrSGl1UdVw3727R4wfa9drhLn10NKpvscwtPlJMcvZvwlN62zekJ49FdOuOFl1uZWt4m0tIhS8HXDYreWVFs67kuldxzVvKG8mS2vVybY8bz/+5c0TfRob1AUp7JRDTkw0deuCgX7fjoa4FqBehrPX5dVqZSy5f0KjzSasvzG/QlfCQ21H+k3tDeqM2qs9be7QVsFb2DmgfnreWUOWHsHXAc4JYaDMeeT/GmDs0qVcwiFvwEBtKCWGEjwzIdmqBcS4I5WkDgdcr4BiE9NQtgOHHGl1T0qTXj3ZqT3xUEfiMhVArJ7Bn8yxP7sJq9sbG9OaxEGmHDb/WQvqM+ZOaWJpSECNFjAOEOEAg7p9S8b8VGpcfggi16tLykJ48mtAPnRM6ODitMHG3j7g75IScnSAVpxMSAHIAQMBV1Qwl3xuaUBEK/bZxQO/W4nohXA/sCenmbVgfnmJTaaPrrHOI+ZuKm3UZbvdaUsPbt3fq/n298IE+3bs/jrVGdBWvX1NSj3Jq9NDuJj19tJ00LqpXGrv1Yl1ET0Ko7q1u1C0lNboRRn8zn71nV1gPHOnXncf6dN3hbl2MUs/b1gqfwGOi/HNzG3Qesf4cXPj5ZB034dIf3dGk5wHm24TXb5oiKoUwHkyMqmlkXCE4RzfkLI5jTszAQ4jTvfwdwTW3YZCHCEf56OLV9mHdyr2eUxHUElOkTWSh7CQUfbpAsOHptEpL50lJ0UPKD/AxPMPDO9qUD49pxSsYqbYyI6PVziMEBqfINwf0BPFpU3EjLLoRT2BDm5anIrkgK79H2aSJafCFUyv+FAKKM7e0aUNRULfuiujvxxP6KTCoPZEhNcZH1E6MjWIBMQhXDw0xULi8FoCMQs/7eL2LtKdtcEa1uOqd0Qnl4S0+r+3Vm8T6Z/Z26u59UV0D/9gEEz8Li1yBRa7Cm60rDcAvAsTkNlyzTzeW+PTITp/ergvq6xDZCK64lJBRRswsTIwD0iF9CMN/4YBfD8C0bymq1VV8fxNkbW15l5ZhGEtQ+EpCyLmA7qryNjxVyKWjTx+J6aW6Xn3l61EZ195N+nukZ1DN/XAKOrzXJoNIO4yt21Te0DRAmBhUZGxYAfhM/eiE9kE2C/on9QHs/iG85+W7o1pT0amcsm6UGUexCRR8+mRxEWlnWgVEnYwjo6xHyVv8WrWlUTdiQF+0xnWUezduaGTa0qJ5xoKbUMgPvHl3tbH6VvLagJLLY4Chh2whqvlbrSCkWxnFcRR8+kCwOfeF+QFiXEBnQ56u3xnSY/tDeutYh75p6FRRW7d20WnHsJhmOqILNzmMpYyZgNcxLMbNjELQBiboUPK2TkDhi02otmNUO0Kj+ql9TO9Agh45FtNlELDlZc0AsI6MgNAB4bIJn0chSm8c6tR3KKoyDhCHx3DPI9oDydyTGNDevmHHI7YjefCLT1u69Qqx/06UsQmrWmkTacT65bD5CyuMtHboNdLrb9sGVBIedoRxD7yngfS2A8V3j5PFTEzT5hkNI1bCYWmnGZ2NdRgw2ofGVRMf1g44Qj7E94u2uP7e0ANH6talO8I6qyIMCKK4d4yvalAplUMoF52cJhAsNKSXdyt7W0KLq/vpk04t3Yp3Lm7SW3Ux7Qb8Nv7hFbDM1iPU9g3pi6aYbqkiUyAepeRZsUUPEkOZpI+5HUqygY+iHtKSUyv9VGIDIGfaWDnM14jLqjI/LhTWXNagO8kOnt5Zr3ePNOv7lqBKOrp0sL8HzpBQDPqaAK/239DMgEamBjUxhT3ZiBidanNkY7jQON6iFUK3Z2hK3wKOR5v6df7OIB1Tp5xCsg3Sz6dqvZm5Ssji0aFR1QO2I4OD2hYMKb+2Xnk1dSpr9mtfrF/1KK+W6+/ierkQt1eah3XTgX5trGwng6nXprJ63Q2zf8/Xp7KeCdXDacJjeLTxYVLJQbKMCdrrpZY2EGUA4G2N8mjT990A2UfsOwJwqsgyvqvr0ruHAoQSnx6grTfAgzaVB7TSCmds+plMIbUijlH20YfxP5U+OrJo5XMAeUl1n/PkOXl4fLzaSzXdqugZc6u5DJzmF+ZZ2eORgQF9DBBuIs07K580MTeqdHhBZhFewIosiFEL+LEFNgR6CoX/rljaA7JTym28PMS1gjSmVSu2EK9+Oapr8w/pwfKDemXPYX16rEYlQZ8ah+PqJK2J40SH8AujeIYJmwaeJr+xpWMQTDyspgkj48TcfjxGG+ioGCK2BsZ15Z5uLSNtW0kefv3esN7wJ1TSPwQ5G4aUTciHZzkQjWnr4Rp9UlatT0q364c9R7Td36XGkQn56ZZ6rr0LhX0aHteDdUO6Ymc7AD6uK7fV64naTtj9qA6Pwa1oxxAp6gTtnbLaQSzLRjatc417cRknNgDVCzKaIWk7/DH9fKxNm3fW6Zny47qLEHRNLqQXsnl2PqGNtmfBC9JQZAoewQpubQj5jLwg3tkmoU4TCDaJVejX4tIOZVfElFLYqSyAcB5h8tlj3SqCE4ZoF/bEv2kbWRzTQdIim16+aUdUawtQvg0D23AwXmAxF7Yx7gXIf83+0CmVfgrJAJE5xNbsIj+NxVLzO7QEoK2l0ZeWd+quHR16AQv7qMannxtbtScUVicKGMS1jhNTbYGpTSBN2dqIiWG8AtmvGzLG5SJWVZWY7lfD8JDyIqN6oW5UV+0Y1OrCXiSiK7dH9Gx9VD/GenRgvA8ljymIWz4Kcy+u8+m7XUcBwXEVHG3TbtxzE+GpbWpG9aSMe3r79Wn7oO6rTehiyOm6wiO6qKJWD+Nhvu72RumCAMGG5G3JnldMalXehAIDx+Q43gsiRnstPeubGFdbP6Eo1Km8hlZ9dqhBz+0J6s7qDl1Z6te5hOSV+VYL6Vey1XAWtmPVVrwSgii2wdNaIIvtzsueHhAAQH4zntGndEKbjaBm5JI6l/j1dE2P8rmHAO23UIV1GRCIVWOD5MU9sOR2nVMQUOYvIWIs5JAsIbs87sYOkkFlEuTPCkftR6241ABi782JNz5uI4/eUKelLulFbTSmRWtA4sVVHbplV1SPHiAe1g7oczKCgs5R7YRYHU6gKDpqaHhC07hos3p4o0YxqX58bIzY2wVAbEVUCzCuxdceTIxoOy7/B6z+pWM9ZAfdOpeQtqwwhkTIKDp0w+52/a0hjHXHVNY/rEMQ0EPDU9rVPaiq9h7t6OjT3uiwDiQmMYgZ7eibhFX36/PmCNbfo8v392gNxHBxXg15fa2uhW8819Snr8KjKo6OaWdsVEf6xtQCiEITU6Rlk+rBcw0QysZsdBKbm8CrDeHVouP9ahmM6XBvRNsjEf0YGtDmlmFcdUKP7I/qpu1WPRXQ6iKfckgb0wv8SJDsCw+RBzBc+mjzDlYoa8U+Xp2HkyIyu2KI5QkOF+b1VlcslAJHW5jbCjBadEmVX680xFXRO+Emooy72Pj5vEF63Eejy7t79Oy+el1SWKMcKyuHpKRXjyi1apjQYMWdZs3tyrL6w7wwKAQQhkqU78042iMAAMVu4QiItgLUBca2K0j3dvmw2E597Y+qtCMGSUyoFlbdRkvCaNzy2jiWP2x1AIQB60IrrOggxjYC20NQ3J19IjZLP3dMQeiG9fqxhJ480Kt7dnfrysoQRLcFQueD3Qe0rNhiLRZQ1oaXCOmOfZ38fo++htwVD0xrG/F9+8Ck4xf7COrVkNAtWMn7rf16+lBEd0JsL97epdXV3VpSFlIW1rUkt15n28DTtoDuJew8dbBTLx/p0nsNEMf2IRV2D9HGQdWMjsg/Na5ujGyAOxkkyA3w/wTho3t6UOHJIbXh4WpJKQ+QO+/kd4tDw/qyKa6XDnfpth1+bSQdXY6HyMKSM8nasqyox0Z54Q3JPKageJvxzSxMEEoSeF2M1o33WDjHMG3mEk+TArCSy9AFIFhDen3LnnZ9FhzQYbIl698ZQGDVr/PMNXTgvvYm+vX2sRbdjPtbk1enbJv1Ku+HpPRrUV5U2QURLecHDAjptggEYKTaJIdZv3kBAwNA8KZMO0CnTe/inuAHm3Z26NGaiH6JDOvIELFpbJzUaVy9KN9GNS2NsaHuBPE/gjsN41qtcNQGmXaSNm7F+j5p6Yep9+gZ8usH93TqtuoAaWGTzie2biyo1/nIubT7AlK7SysCuqzSUsdmXVTYoIt57+J8rLn4uB7a3apXIGnvt/boU5j6V+39+jLQr/cau/XM/oDurmzS9cUNupzvXVTcqgsgb5uc627Uhq21OmfLMW3Kq8Vg6nRZEbwBL3FDeSPeFJe716+3Dwf1TVO3yklHD6NkH0yxk47u5p6sjK4H6cb4upAwYagTDxdG/OPTOkQqnds9ppebE7oR4K7jt61S2i2yKTTyjsunf80zJKOLlEKsn1Ceno/yLaTbJBScLq3Qqr+DSsIjLMIYbEwos7BZF2xrw8tFVYT3swW6pntXoYYngyzaat0Z1eCSvyWde2RvK8yyTkuJWWmEg2SQZ5JBxpDFY1o+SLMBisIOGmQlVJ6kmDdwQOgEABATZAnP11V24U679CJ5dknPpBpgUxFAGOX3rQQugnTxvJNMwAo6diRmVBSZ0A/BIX3UHNdrMNwn93fobqzk+spmXV7WqAtLG91SuA0FR3R27m5dVnZEt1Y36CGU8fzBiN7E1b5NbH+V/P4FrPbJvVjw9gbdUHJMVxYe0/Ww/9uqSQNx8w8d6NQDezt0e1WLrue9G4qO6c6qJgBDCOC7rx2N4nm6sdSIntob0gM72nTHthbdUNGoy0uO64L8o9qIXEiWcjWAu6OoWY9UBvXy3ijcp08/Ng9BgiGJ3NPB+LSO0+FNALyV+w7CIrt4btPZUfTQyGM577/RPqybj0Z0Ful8Rkmb87JpZbh7UvCUUiwcxdqKr0UFZum2HAAuYYZpk2g2AIVHTMMjphEW0tBjJp7SioBvpP1vtyW0Gw8Y5vds6MBqF43RzsNDuGnUZlBZ0j2qV493ksY0aG3+cS3GndiawvSSHsAQh8AACgcOb4p5EQBIAqFJKNzq66xE28KE1d9lIbYE7GyyhquJfU/gQr+BfFX3juvwwBSCBQzMaF//tHb1jml7bNhNOb/ZOKon9sd1JxZ9HVZ5Je24FLmw4LjOp7PPLa7T+RVNunCHT5fvatRNu4/osaONersprB8CCVV2julAbEpHeqe0Pz6p7cTCwtiIvoADPXHQ6grrdPbWGq3belwbsJhN5SFdgOvcCGO/JO+Y7gYgrzfE9G3niKpj4zoWnyCEwR+w7kpc+I+EgA9a4noRy3rwQMgVs1yBF7m4HLFqK2LxFZCyayB9N2PN98BTHq+O6GW4xua6AX0bGFNBbFpVuMKDtK2ONrYQlswI9mGiP8Ym9Uxzr644ENBSrptc2qxF5UFCNEZW4cfYzMKJ+8V+9BGAt2H5hGwDRbKBwKavbY6hLKhlpO1LCC9LtjZwn616BFB/0zmI5yF1JHTZogVv/ao0r98GaUCIxeFqrPFzlPXk0U5dVdnoZq0W57VADjtxM72ajxhrtVq6ZCuohPkvKoelVuCyeEyGJxhhNE9ilb1GcjJIh1aYmy07rvv2NOv5I369fpy0riGq1+jwl4536dlDbXp6fxMu36frt3XqMvLoi/Jw67kNgKAeN12H1OiK4hpdW4nV7W/X440JvRbCrUd7VBDv0+6BUTcd3Mn92CYatu7CVlxbzWULbnDv6Jg2B3p17XYbYTuu9O9rlfazVVqFCXlhsoI2XV3Rqpfru1XQP6GjWEkX3GUY1zlMemqVUWGMpxFOsxeiWoISvyNT2Uy8/XtLr54+HtVd+zp0bVXAFb5cgAI2AoqNgOLCfB9hpE3Xocg7SEWtpP6ZY1364HhE3zV066emHn3b1AtQuvX04ZCu3dWssyrr6Ms6OFazkmyRTCVuH0Ckw3nSiftpKNktljGvbCm+FbPwPAPDtBVUS8vDOot+XJ3bBOjrdOu+iF5vG1QuRrErGiWD6eXehghUZGj0z7whOs2fGNceYlph1xg3N6n3Okb1CA21UvXVubWQlVZSmgh5LF4Bb5BcAvoAQwo/mEIDU6q6aSjxypagWQYBkUyDUJq7stVLyflNjnWfV1JL7G7QNVjzNbjeK8lSLt7WqvNxxxsLD2pTIW6WWLwxrwHrPK7rSup1b3Wrnt4XdCN9b5G6fdQUc54lD8vZAeGrI775yDLCPCYgPqPA20vjvEKbBKjvAvv1E2RG4V7dSsq2Gl6R/H2NFv6MZZF6ZcOy19Gxt+wM6CN/XPvHJtROajpgA1mTA6SwQ5rgbxtz6YVPdeBOW/nN44DiAODbQdZQDFH8siOhN3yQbsB9P2C9udqvK8sAQlEL99ek8wobdV6RFf/W6eKyOt1S3az76YsHtvt0L6HpFjzd5WUNWsf72fCURXCUha6vAQHZUCaeNwvPm1UOZyiHE8CcbeDPytyML1jtSCZGayn/CkCxLg8OVWDktl3P+cb1KTF5a4TUudWn45GQ+sZt7IM+M49ggx0N3EQejP7T+pg+C0/oczzDmx0juv9Quy4qqdHK3Dq33NtSluR8XBJ5bXIJ7grUpRlSt8EhqnqUXgGTLTPWagNSxDTSm6QKK6iw+NWiZUVNbgHLGpC9mpCxHDaebTEMArY896jOLcLqid83lNfprqo6Pb2nSe/XhrQ1GNeunlEdI4410fE+Wh7AlUaJrzZiN4hCBlHeqC35chCwBSnD/DekPqhoZKpPTcMx/RTq0t1727QeUKb/WKtFW8nZjQAD3rNxpXftatM3wW7VjQ5y7R4NjEY0MhbT+GQcIFiiPaiRaTKAqWH1Wz3iDOCDX8UARsf4GLGfsDQ2qgoyhx87sPCmiF44EtZD+6ziOqCrqwCFTZQVGCE/5qaZ10J4bdZyXV69zkJWEKJyAE4a/ZuM4lNKLDuIE+fJDMgKckrjWlyeUE7FAGAYwDP0AQLAAKFPy8UbQOaXYYRnwR3OI/xdv82vx+tH9EFC+iyGtET1/bE6HexoV5zMxcoT6Uaba5COgZIvDgX0DOh0GzsAhveJs38P9sH2O3Q1r6+FeGRubVXqliZ+tAXFtkFIiEcgNANvkFkJYit7STvjoBYpofElCUgODQUYlgfn5AdktfwGqgxIZ5plIFv8Wrq1hRiGIg4QSxtj+hDF/xAZVEViRAcH6eARMg1Sre6RCSVg4f2jKB4gkHjIqsmG8QxDQ+Oubt/G9mxebRwQkL27tK1npl/+sbjyOmxRq9UL1mjZlnpl2YJYQlk2Xu4cAHrvzhb9HMRtjg2ofzymkcmYxviuLT23ikgbDzAZxUOMTg5rHDDYukH7b3zG9oIaAXjDik2POmA0Q8APE2aqCCM/dZKa+kb1+OG4boD/nIPSswgXKRiD9WMmLD8LyeS5ZV5uVNEsvqQPEPQrO2+AMNavxSUDWlw2qBxYZWbpAJlbQsm5eORfwsr8OaDlvwS0NrddF8BPboVsPtc8qA/IEz8iLXuZ509sr9PmA7VEgKjL0oatoovHefSnDseGtPlwu24vaXTj3XcfjurlwIDeiwzpva4BPU0cu36nX+txM8vzIB+2nKtgNrXB2tNBbnopXqAMz1BGLgtqs0BqFiDILO9zAx2ZBR3KgdBkAQhLP1Nzu3iEUILi87nxuw4N6O32KRVCJHeTSh0jJvvwVmGzOBoaJ07b1HUfsTtuTJuGd8Fr2iFaFtq6BqyOcdrFPCsos6V7NnFlcOhF/ISGvI5uPbynlZh9TKuIm4shW+m0KTMPL4El3o2r/rm9R0EANUy+PwkAvGXBVs7l+RobRewZHVK4v0+h/n51Do+om7DUS3sHpoGJrSris+ZybfSTRIFQIsKIHEH8PDStp4/0u/0RllREtKgSAl5Ov9F/mXgmV4BCf9rsYVKprYDqJTXEG+T24T2RIqSkn/7t57NxDJKQTH9m491WcR8bAdNVeNs7d3frxcZevU8m8CEgeJE04fbdIV21db9e3NOgbdF+t6/TIGmtbWjixhEOJob1DvHX8vKzycU3ljTo/qPtejvUq28SQ66q6DlI1K27YNjwgg009Cxi0DIsyfYCsAKUZFsoYhW4lttahTKNzMCFZVbhGYhpWSUh5RDvMrFC+3w6Oa+Vw68ms7hie1RPNY3qRzrqGI2zufl2xNvibobc2xaj8jfv2Q5mDSO0uW9KVWQ5BeF+leGGj/YOueX5EyjElWmPjxDbDQqTfJ+8eWJMW/mcjSNciFtevQUgAOjUXL/SfoGcwaxvr2rWj8GEgpAnW/Foe0B5ZfHTWI2Xd8cAY0PvgHYFIirzdaqiI66dsNODvNkE6XZkFeW7FaR08ACgstlGG9e3Ca3CPumt1jHdsa9Xq6vjhNYEBhRHuTbNHyWsAgIysoUY2AL62JbApRVgSHl43HwAQxhIJ5VPt6UDNqBnxgUZXW3LAiCjt+3p1OPH4nq1ZUifdg/rAyzmhdCwbuW1jYTms7/fr0d2+VQYHVWE++m3+6Of5kGFtJeY9iaM9bKKdq0iZVwJU79623E9ebhB77f69XUkrm9wb+9BJG8/NKzLd/RpE6HgLDKIxTQkdWubFv7Spvm4pflbQlqYRyZREHPTpknburQQV5hU3kKG0apFsN5F/E5yJYSStG0JLnkjJOn+o2F93kFqQ6rWSocGIbE24GLErA03WzM0RCrYjzJ79GlLRK/VtOvR/Q3E9cN6dn+NfvZ1yIcbHjUXN0yP9xP04BO2D4ghvwVy90t4kMykHY9QB2Fs1BILDYSpzNwAcdqn27YF9A2esBmwWVGvbSbhxmABmA13W9VyG6SkvI3wtb9Zz9FHz+BhXjwe09v+EX0VGlVJFJ7AB5vHptQ+PqrQ2KBCkyNqxasd4lI/9U3rb2Q8V/JbyzECGx7Ozo9qSR7eMQ/DsgU3ENdkMgXLFhZZhlYIMee91NnxAhvDSbHP2bI3+MTykiZthHTferBDz7X06ePuKX3fP6NPu2J6qqaJDPCozqto1jrI53lWrb0nrB9Js/20xwbyZqZHvHL2ffERvcXNXF4RxPW3yDaeWku+fgU3ev+BJr3QGNU74TF90C29E5zRiw2Tuv9wnxu6XV/aRPyqVTLEJAn+sIiYn7aFNMZmMLnBFGJ/Esw5CYUnlUI0iYmWbqZWQYLwFNmkOKto3CWkXQ8fhLA29+Ce+5UHYgsA39aecX1j+xu09eu54z2670CXbtoZ0uV8/vzSBjKRg7pt+1F93BRWHUqyLIgAzh2CiGGcNNZo+zjYfohbyIruI406n86z5eaLbeCLjCEbb2bp4+3bA/rSP6BaMGSLfGyCy815T/JISBrEvTf0Tej75oge21Wvq0qP6cLyZl1a3alrdsZxxzZW0aPX6/v0edsAhLFfuV0J5XX36ceeQX0cHdQzvl5dfyCotZBG21FlkXEliHWW85D0WxFhE56QAllMARBpeNF086JwK+NZVnpvHiwTjrMKknlBVatuod8eIwy8EhzUOx3D2oy87e/Tw7Udumx7M8Z9HIO1ND6g8yDF9+3p0M/hETKj2dnHqXGvivlAnJSxtkdXl9ueP81amNuMm7cl3C06p7JVV+/q0F1H4nqhZUxb4qC6e0bvByAeNSHdtLdBm6pgwCUw/4Lj3lqFrSEt+6VLS7Z0uWVx6YU0HgRb+ZqrcyjDHcIdHJewZVx0xpK8oDZAnm7c6XPL7O+rien+un7ddXxANxBTL94d19mV3aRFEW6KjkMWw1HWAsTrudn3WmI6yl2ZJbth03Gc8xgJJGHCagRs2dwvkXHdeSBGaAtoiXEc4nKW23epQ2sLm8nxffoMaz9M3O+C8FneYUmoWxwMoIZ5qAcIn/giumU/qXUVhK/MD4mLcK+07Rdb3BrQBSjvmuoON79x3xFSyZou3XmsQ9cdbNcmfmMVHjCDNPJMvO9/41EXAEhLEW101u2rYIrn3jKtIMbEFq3k2Z5MQX6H/v25TmdvqdG1FY16jKzkPTK8LyEjX5HtvY1enj4aIjUlGymHoFs6b3MUcIlsvN95xW3wpIDyO4fc/o9mN8QGb4j5sLHKhj7duC2kVcUBvuTtWJKBYpYXt+hcbvay6rBu3d+tJ5ujerW9T5u7RvV5dMrN2b/TYquMo861XlTUrNX5TcStFtwYiMflJeP+UktRPilPWuWgUir6XdhwJfLcdBYZyVJ+x/ZFWFtAHm3pFIqxvQDWFEGC8Boritq1FDDlwC+Ml2RZPSQAOxvLumF7k95uiurAsG2QwX3hhq1efxoZJc7HiPENoxNu/OGOvVZlDOABrMteCmDbhLa15Ny2qdcnvh4dwK3YBht9cIthK+40YNnYPA+NdNgXZFN3HIY8A8ClhLnlxOsVuT3K2Iob57oZ3P9S7uOsQhRWdFzn2GNBvdby+grI9mKIXSbM3uZjUri3hfmtOhNvumALfQaQMuEGiwHGEjIH2xwkB/AvAazrrBy+uBGuFtCTeMc3QyP6vHdKXwIAK3F7sblP95CqXllarw25NfQXOoR3GOFMgmfY/Vo9ggcEUmT6ilv6FQhH+ib1MXHr5u3kn8QkG6Ey5mpuKRswrMRtno2b2lQd0iUHW3RrTRByF9MH/mH9EJxSLuHiB9+k3q3HSxzp1rX7se5dIBe3tdgsuCgGMkkt8QDpSHJJt5KMEKHIpEK4AzeXCkHNBAw5ts+AzZ3bhhMoKBNXmM1riwHBYjrDvECWraLO87l9EtYW1+vKynq9cCzkdkBtGgMM4MA8nYU9G8O3kcVd+PXNbXHdTFg5F5At29rsfiPNFLKljby+BUMI6M2GXpUSjo7DC4yw2rwIEUoJvAGGpz10+rutfbppH2laZYuW4WpXFEVQMKGu0LbNgQ8B4NRCM4Z6rLie9LjRlYkt2YqFbrWJO4h0nq1qjnHP9DdpdWquj9fIxjDA5RBr295nJf2zhr/Xl4V1YbXtNdmup46FIYJkA2FIPOHzA8Lma4TNx2qiunk3/AcOthZgLQWQ2XAJy9hOCwjWYYfjY/qwvsfNh59lC0Ot8rWiB1eFW8E1ZdHQpVjhcoCxvLpe5+yoJyY2uzr5944l9HPLuNCRtnLlzyCUz7UndEdzh648EtCl2yNkGhHy9DAW740lpHHDi2C6CwpadCYd9t9FDUi9FgA6m1pNLyAtomNTc0mn8r34uZg2LSmLACjbhsfHe02knw2ujvB8+Mzdu336kA4qiQ7r0MCE6kdtK1yyC5RYOTKt7wDJs2Q+V5Ie20qjJQAhbYtfKbZXI7KSdl1eEdJjB2P6qG1IBT2T2o3irRLpKJ10JCGR3Ohb/4SePBJz29gsL23GUAKEKkuDzQWT8pG6LYLkpQGQDECRRVx2XiyfMJlPap0/yP2NAZQx7pWsykrICJnLSBtX0ffr4FBnl7QB1iZtKmzQ5WUtupls7aGjMb0bGtQXZAKfR4f0YbhPr7eSbR0L6o5dLbqsjIygoFnL84MuVNnaUuM/pw0E29X8QGxQ79dGdMO2dmJ9GOskplTEXfGqm+40QpMPw8WN2i4ly22bOSvkLGl24w620dPfarppWD/xCrJCWvdBzxhZxrBeb4zp2cMdug8PcW1Znc7PryGHr1FObh1KhovY5lm2tLuUDrSGW2flkXLymFFAykS6lGmW49ZWegUXVr2ThFdIIm6mACrbJfVcQtIt1QE9DjhfORzWGzWdeu14RC/URd0U+G0H8GYw6zWFjVpMGEjNbeP7ZDhwjUWkvBmWyoLmiwDDbbs79cTRHr3aPKS3W0fIqAb06qGEntkb0907OnVJRUArS3y0xyaBbKMLvp/nkWNLizNJ62wFlblzk8WQwGyr3wAMNqU/Pzem+aSDaYW9gCBGWLQp/pDOAuDnER6vguHfsy/oLfUL9OmLriF9A5A/6x3Xu8T2l+BDjxxq023VEPqSGm2yNR5GgIsxWq6XWpzA43rjN6cNBHOfB8nBDQjXVxqDJ85xY0nktkmlXIDnC4nzSaSEqdzo4ryIlvL3Upj2MnNfpW2QkhZdUN2iG/b69dCxTr3SnNAH5K5fR0b1bWdCX7T34pa79feGCB0c1l0o67rtQTqdEIKXWY1il6GUpbl4HaxzGWJuNBvJMtdtE1hWFUW8TC3jxqzCGllo5fa0z5i3EaF1xMQLYNuXk51cjou8DIVdyD1tsPviNRu6zSAspOB5LDQtAFzzy+k0OEtyOWHLwhjXWFvC96o6dPWeqK7fS6gjK7gSK7+Itp4Do1+OZJSG3KRbUgVhjnYk2fgJ/ZNB/9iGnzm0ewlhzVz0Msj3ckj4MniTTe/bNj3L8Rbrud4FpNFX7OzWTft7HSF/tLZPL9ie0+0j+jQ6ri8wps9Ccb3ni+pxwtYdeIbr9nboEsLSeYTUtfm2bpQQRZtybFCP0JtU0keI6nOLk08bCB5ZHNFmrOf6cj8u0ua4bdUtX8a9LOQG5wOCBVbFXNDLTQxpSfGQG9myzRps4GM+HZwMGVqOi76wvFF3QmaePRzVW41xyGRC35A6fU/4+T4xpa97pvRReEKvY21PH47r3h0R3QovuQ5mfDlx/wKs1RaOrLP06Bfi65ZGOhViZyOAhCobxs7Y1qe07QNaVDWgM2nHAiwgGc9hSlhs+biNtP0C6dripVzJAGkB7nkBbnohbnchbHoBKex8rrVgG9epHuZag94aDj5v2/xm8tmlpTaVG9RSvJbtPZBty/uxdFuLmFyBsZACJ1XZhhVRx/xthbLtHpfNNXK2+mD4jVr5S63WbT2m8/KOQaRrAVS9rt+G99rRqnt2+fQomYTt0vZO+5g+gel+1S99Qyj6kpz3w+4pvebr01NH2nXnjkadA7hN4UvgDTmItz0BXoDftpHJNDKyZAcE8wgGbID5ZzzCgcSw3sWVXkOuvwIUL8q1ES0uanUIJVgf4cHKo9LK+pW1bULplWN4iwGdQeefCUBsV7I0PMkyrGQ9sfF8GnwR8fOSskZdZgtYd7eRRnXqb7Dat7jhz2Bg35OC/hQR+SyPQf6GbL4P2Xz0AB5jl183bfPpalzkJeWt2lRBzKzE4is7tII4ajud2MYQtuGl7ZOciefKQZYA3JUlca3kcSntysEVZ/N+FpZvG3daJfUiUuIkgLsQq1yA9dveiEZebTOrRTZbCkFNhrhlWgUwqdYSQsBSQsASPM1iLDgb92vzAekowgpAbAs9KwlLJ7PKwsMtLg9oWXmbVhPbbUugi8sa8LRNugfFPwWJfvVop96vi+mz5l7uPaHcWEJbYgP6KTasryB/lgo+19Svew5FddX2dm3keucA3LV4n1T0sKDQiDYARC9JtDmJ+1sA+ExsCwJbLJth8z1Vfdz3nwCC5d1748N6GzZ6dXGzVsJuU7Zazg8LpnMzcXs2j5Bh+w+X98Id+nCFCSwL5BXCI/KJdRC7LH5oMQ1dZkPPhIxl/OAyOnE5wDiLGzkP93wFN3bHvrCeONat18hSPiLr+Abv8HPXtLaQ1H7H4zuhUb0WGNLLbQN63uoHW/r1OB3zUH2/7q6J6ybb8WQ3sXybX+fT4efR+RdBSE0uqOjUxVXduqgyCoHs0AYUvZ5UeB3WvRalrTaglzZoGenc0rw6whEWC8NeU+DXWVj8alK7VbjwNbhvI2y2lO6c4gbS52ada2Ak1JyLYmwF1fnIRpS/qbJNF+4I6JK97brqKF71eEw31/XoTqz8/oa4Hm/E1XMPb0BAPwyO6OuOcf3YOalfumwiakBfBeEBTR16xTKxw0HdC5e5flcH1213abPbzpd+TcMoF6LU+WRgC+051p9kI7eAeKGRVLyRiW2qkYbntA3DsyChfwoIexwQ8AgAYTUuLZ18OAursk2ul+ACc2wOHHdok0sLsIYFWL95iQzbLcXWRELssm0s3FZDWWk1YEiH/WYQ/7KqbDayG8vExeLyzyK/vaCwVtdXNeleS4dqu/UynuL1wIjeoYM2W+hITOvT/ml9PjCjL5DPcZMfky+/3zWqN8nhX2np1nN1YT15NKhHD5NT480ex+M8CPd46ECXHtgX0V2A7jaI7M3wl5tg1Dfinew3ryH3v6KiXpcXH3dnMdyA1d5cCjNHbrLHcp9uIY28bUe7bof33L6tQXfsbNEddN6dkOJ79ob1wJ4uPbq3S4/v79KThzv1dG2XnmuO6dWOfr3dPaL3eia0OT6tD0k1P0Y+QT7l709jU/okOqWPuc/328chg716YG9QN+MxLi2o0fn0jW2gYdvfGA+xjcLdYBC6sBXppuS5+lCrBrMNtVIIS6nl5q273euuegxvaSXxtlv9aQPBikcP9I/rg/qYboAjrM0LoNRO3GBMS/AEi1Gqxcv0/Da5XVC5UFYxbtBiE67IPIFNhlgBZRoxOoXswuroXAmVuW9IoG2QaSnoElixrU1cDXM/C0uzUcF1Fa1aD9vfsAMrx9Jv2+/Xg0dDerqxW6/4E3or1Kf3OyCfEM5P2mP6ItSt7zp79FM0rp9NuuNumf0PUVKrYEJfWooVGtEn/kF97OvXJ+T8n7TE9TGu+P3WhN7g71dIlf9eG9UbtTG9VxfXB3V9cCR+x6R+QJubhlyZ+YeQ3o9t06xAvz6G/H6K9/qq0wtpuaSSUCdt6ZzQj13Dbtr8J1K6n0MJ/UCbvwoN6KPgoN5sG9Tfmvr0IF7w5v3tumxHC56sTuttUzLCzzL6cDkWvRRrzsrrUNpWMqEtpMeEqHT6zHadzYQL2BT1YvrdQlU2Icu2Hs7AY6STcWVgqLZlkdWLWrlaEh4uiWwqA1B4A0q2kPnXkcVHAN8/jSySJqt2aFKf+/tcGddKiFEaaWI2bHwxSl1qbN6QxQ8k0/B0YqI1IMPFSRruqmZBKZJi9YyFILIQIFj8heAZEGyixDbCnrshy72ziNEZXC/Nfo/rWSHGYkB2duFxmD8WCyu2qe/bcLl3Y+kP7A9BrDr0NJb/Qk1Ur+J+30G5H/vj+ry9X58G+/UBxOojAwAu+GM8zCfBUV4f1ecm7aP6DLf8ScekPsIaPw7AVQLj+jKIcoOTTr40aZ8CTNP6sgOPxOc+a4e1d4zyvTHAMAEYp7jetL7wT+mz1gl91DSs9xvwBHUJvQxB/tu+Tj21t5PO7tK9yK2kolcD8guqCFHwhmVFDRhOrVJya+kbW8xCNkbcTyvCcon3iwBDUh4WjdiGoDaOYwtUrP+z4CpZhKwMlJkOELx+w9BI+a2GwThQshvQ8uGx4Tn2Gl5lAYa5AKKbjUFbVfbTh7tVGJkQt+jNNcxM2oabU263zh+jQ7p2D4gr4yIozVx8jlW7bAlpFTwhi5jjys4Q25bl9MSGUD02/ccCmIjT6T/XKvOnGuXwuNQyh1xSpDyIF97I5tov5LqXcOOXYwU3buvU3bvDus/c9f5OPXQwQqiI6bGjvXqiJqGn6/r1LAT0ucYhPY/CXm4Z1au+MZj4+B+Kfe6lliG3mOXZBq51PA636dUjh3v04P6Y7t0dJfxEdHtVl26Dm9xEp1+MxW3Y4te6X9p01hYII9nHCmSpq99oc+BPR4m2eUgqinR9xH2fuj9+IzbaC1m1yjDvkTTfXpsTAOHeI51PLoXnoccsqyXlN/47t0XzSWEXk2ZeWhXU3+uGRNR38y82tW6VFvNGRofcXkSliUndezCMu25TCkjNLrFBEdvtM0SYsIIJ0GqN5kc9BZ+O2GdPHwg22ZKa36y0/CY3Xp9V0EIHtmo5MXMVnsOKMdfhic7mps9BzqZDz7Iw40q+Gt1M6NlwgnMgcOcZmawOahOx/oKdIV2IXLSzXRfvCOqS05CLIYCbqlt17rYmnQO32FBh127W2Vj1ekinzYNYLF+Dkleb0GcrcwNagSUvR5basLhZIeHRajBclkH7TVmLSElN3JK2U/bFKcRlNyjfKdxAYBNUpmjL6HjEONx7Vu5uYCBzSy2zRbMQScJLqo1dwD+ugCx/7BvRIVJUO8rQIoJVWs0bnhhS5+SU9pBHPnuwyy3qsLzdqmcyrVKZm7Ct8m05vDHXFH70lA09pRgIThcIiN0gWYatzjFJRaw021ZS20bWlr6ZLEGWGpkCHLbbm9vJncdUt+ubz60FyKRDMrlWFhlLdgV5PZLN9bJ5L9vi7B9IFspOhzynFDbMSiNif9s8Ap2Mm7XVXGmEQqvatoJdd5yQje/jUS0UmltPnfWOpqQkXLfJQoi0PdpygFP2w6nEKd6UbR7AnntL3yyt9x5/C4aAI5hJTmed9Bk8rKBOt5Qe1y+EuSYQYNMLxhHGJkc1b3R6xB2aeRwf8c6hiG4ECGu2NmkZOXsqnXdmUZvmE6tSSCczy/q4MWIZ/OH0BPJ4qps6lRjAbI/GbV1aVE1OjNtfVIVUcnMVWE4ZQuelAIIUQJBqnIWOTqJzFprQCbYHoZXb224hybOs+h/EdSIdxff+SGwByUKseAF8xhN7zmv8li0ydUvPbACnLE7b+pwk85r7fdeWuTUftO1kwbgWIPZ8bpu80xKn/Dnh3uAU3uIj2mCPDgy857yGhQ76poRUv8j2vu7UWRjBZXiDR6vrVRkdE3TJrdKeNJ4wQWgYwznYoJKfN74npj5USY6c1wCCmmU7p55BrFlopesAIcPtsA7C+OHTEwPNKW7qVOKAQPjZFgUEs1Jpkzh0erkp1xQAkSLkJDlFYW3cYAbZTSYKyeTRntsezxlYgSdzr80JGQ4ddnpiEzcIrtW2yLW5jkzydiclvYhXnJtJZ2eV9LtHqzhOgkslAcKFiD3avohub8RTiCn0lH3xL8WMy/qV/rXq5cJenptO7DXec+HYDMbI4yDeMk4GEiSc+nTb9la9fbRdB3rG1I1HmJhCJqbdJqbzbL7dLTbFR1S0T+rVgzFdQz69rLAGVNVpIeldapX348lb+bEC+/HTlD8DBBM6MYWcOKUCsUdyZKvmda+jkLmwZIs5bL2/LcLNwvNYcYtJZiEKMymIQHbnpMtN9mQgmTzPOk2xekpb75ADCH6Vbl7zfst2nT2xEtn2mELsft15CyeJt60uuT6SRttOFhsp/Kc++Bdin7frWJaRajUegMCTHu81976FccISBpNZ3Of2usj8uUUXlLXqiUMd+j6Q0NHeEfWM2JYDeITJGYAwrXn9U2OKjk/LNzytXTDJz1tHYd9dOq/8OPG4RunlTcqBGafSOUk/43ryURCNOC35k0CwCiZb1u2JLfE2iaLwX8WtmaATbZbPRtwy+I63C6wBw1JZOoI4bfs3maRAdt1mUohXNGti5V//WizOW62ApWC2sCQT6860MX0szg2Y0eHuBDn3eyaWQptiTcGmFNqOctIRt0DVjbfYoI5VZNmjgeHU/fB7YvsfpPEbHpBiSA/3ZJub20ympaBWNmDtspTTJuy6tPiXdjdiesOuDr3e0qfinnEdjPa7qu8pHIDVYtpeFABhSq19o9oTHlRx54S+7ZrRm6Fx3XWU3Le6QSsKa91ef5l5uGIubLmu555OV/75hn5PrGPmLNms2hOzcM/Ss5x41miewIa+UyC1yZW4WhMLI6RyTmxmsJwYbUJMToJjJBlJK2tHrI7yX8siW0peAV8wjuIEI5h9brxlkfv7JOE3bbmfAdQBlTbbcYFz7TfFm1iharatLs+3z526H04tXN+A7sBufWVgMLAZIEz4270PebUxHqvJ/L7e7fd4zc6IniR9/jgyrcJeK76Nqik24FY42cjimK1rsHq+2tiQfqnv0McNEX3cMaqPE9KroWHde7hDFxMeVufCGWzmDes0q/01Gzgd+e0N/b64JVvmwmfd+D+IvUcnz4l5A9uwOgkgOC4xJ/b3CSFWnyyAYmE5rJ1M4rQEkrqwgu8gVnCSBABOCETWZJGRWiSZ57Ya/ORdTE6Wufs4+TWz8FP1w6nEA4EN4JkXmgPDnHewR/5275PJ2MhvIWnuz8fciThPAIK3IjMOCLYFwPe1QR0M97n9q136qNkFLkeiw/rkSIue2VunFxs7tbl7XF8Chjd9Q7p/d7s2FTZpFelSDh1vo1inHjM4lfyZcQS7kVmF85hxQuZcvsmcG+a6iDupldht+wx5Ykz+n8Vm5FLKeG5kFBdvJ7CdtvxTJoLSTxbAZZKCuC3150LGb8TFbsTrk1n5E4ZiQLARRieEPtvZ3krjXJ2Ge7RwhScgw0knhV4G2b+2vFHP1Pbo/Z4Zbe6d0Wut/Xphf5s2H2jVro5+t9HqiHkE/MK8UTzC4di4PqoN6O7qI7pjT72eqMczRKf1OWHirZYR3bW7UxfZiSOW05OW2A7tRkhcjsyPe8Jz+9vJLBDoGNvdyxv4mGPJv4YNswgX93jdO9LPsgCUPytuNxbec17IUiM60k5U84Q0iU6wlT62AMQkHRdpkjErv24rQ1bhhOeWBrvs4Y8lgzjv8RFPMpyYS/fceoYpwCqPTAyopmxj62YsJ4mlrZbxuKxnTugfj/T+o8LdyuZZoHvbDxkvgaMAHBueN7HhZhu/MC5kn3NrHHg9szigJWVtWlHRpo07AnqyNqrN4XF92ie9HBjVvXv9uqXokF7d16odXSNKoHsDgq0UnWc7nR7qntDHjTHdXN2sjbYRxTa/Hqof0jud0tcgaXNgWH+r6dLNO306q7wDEmk1ASE6wlYtBSBkAdKUIDdBTKXBTvlmTViMF6Pt+az10sG2eted9kKosbOV7QibbEhZFpKB1Vnhh4lNp6byHZMUxL5vW8x5gnXboMo/AMvc5ElKm4vPs+IyCpR7unJqIHjX8fhKhOvOCs9dcYitCkdSKrhXsh7nhWx0DzDbYaFJAGah1Q4giwiBKXCGFL5vdRU2cpuEUk/MHtKvi1H6Svp7DTzHjkxYgcVno3Qb5zgT+S/kvwvb6NdWLSfdv2gnyj4c1hPNvXo3PKL3uyb0sn9Mt+6P6MKyBrz7ET2x36fyyIhb70HSoImZEc2z3U0dEJoGdP2ODrcHUXpuqzZWR/Rw/Yg+iozrO97/KpTQGw1h3cwFL97RpXOsSKQYFFrpe56VZEPEQKgbJEGxqSg/FdAkl/N+uQ2pmiVYZ6BQSI4NgriaB8vP6axsYnpWOVYGYDwQYO183sQdXGGKd2KAsIEbhI7/hzydzp7LzT2GbW6Ta1pMdhaM8LrLNv5A0hFj4R7AvOdzmUumEyOsntgRO1kGbJsK/g0ILJy4tvG7to2uO6AjzxMrbUsjg7DUz9JM+0ySeTvAkOIyl3aIekgr8X6r8SAreLRqbstq7EjkM4v8WlDSRl+1aHVls67Y7dMjtZ16O9CnL6OjbsnB8839unNf1CvhL6jX6tI6dxBYQaftC4k7IG2Ynh6GLEIbD/dM6MOGhDtFxYCQvLVFy/N9upxwYBM5rzbG9VFoSJ92DetNf0LPNPTo7iNRXbozrNUo22LWwnxIVb4382huKrsETkEj00ta+LuVG/PjNazolM/lQdzohIW47YWAwQosrAbR5tUzHBhwtXgHO2bHnW1kYcd5Gy/seO7XADfbybPiQHAKIHhu/M8Cge/PXufX8MXrJwRQmADMDBNec2c5wtiTndgIpY1+zokp18TcuefWvd8y5g9oeG4ezsBti2LtnIu0MlvjaGDhnvLCOjMvojN5bv1sZ04vL/HpvMpWXbc7oAePdOrlph53JuVXEP0v2of0NKHhtj12KHlAq/JayFYatLKsHmD4lNvep7gxxckpzZhHsGHGo/FJfdAQ19XV7bLNKpOsOGWLFak06JKiRt25M6hn6npd9dC3ZBifRQb1Buzz0bq4rgNtG/AObkEp31n0c6NbOp9pP1zQSufbXkyg1iaUuHlbKOtqIg0IuOv5WMmZuMszsQQbvk0zECA2rWpAMD5i6ZCtsUgvJbcnDcyGwWeTrmWQIp68df0/AQGZA8IJMPDab5V+Kjk1EDww/LqdIGEAxZlYGPM2EaOdc0Kbrd0nhPafELiWjUXYhttWU2kedUGBLXzFKwCElMoEYaZPaeUJrh8HKD2EgG6dyectJK8lFFxd1apH9gf1dlOvvuoY0U/RCX3dPq73Gvr07L5OXYuXsIWv7mhBdJqBPlZWtOiOfW3aEkgoNozy7fTwmVHvTKdjCQNCr64CCFaouTCXmL+1TTm/NGnNL3W6wHbd4L37jsT0drBfH3cO6SO8w3uhQb3UGne7q9y0s00XlDZqVW6dcrY0KMPWDeT53c16p5fRecRBN+hCTHQnw80SHTszMpnYl0yosXF6J4DCVgV7XqCdTp8FAh4om7QuBzBkAgQ7Qf4fQGAyp7xZOQEGe877v1r174tTuvu+kUDcOCHPLdnj97wKIe7BxNy/E65LSLRtbzMBRCahMANJB7hpTlA+4p0VzT2V2ZwJjyg/ucB4Ae7eBLdvQ+hGMM3rGWE24uw2JysLah3p4OU723Xv/g69VBNxRTc/dYzp565JPMGEXqkb1j278NaF8Lnceq2wxTVb0EMenA7wrUaPdx5oBwh9itnYge0RbEDwPMK4Njf2uGLJJTDP+cR8KyjJygtoea4P5bZqDaHiXBpyw96IHjzWoxeaE9qMe/miM6Gvwj36oK1Lzx3vcKtxLtkW0lpufgk3YGc85CAujgICq/J1y8wAgG01m4Pyl5RCiuASGaVWBmfeoUvzUZx3OKfJHCgQbsYmnlJ59I7EAwxzADDhu3NAOBkMJ0DBZ06l+N+KBwQvE3DZgAHBwtFsSPIO6ERsDykTnhsof/UcBhr77KzYTO6sLALMJpZRuGyJz9nyNzvUMz2/FaU14lHrlWM7qBDX1xQ36Tws+aY9TXrsWEB/b+nWJxjhN53j+rYDfucb1UvHB3TfgV5dsT1C39vSQEglOsuxBS+EkzTLmGyn+d0RwnqX8vh+3MYObLn4zJjtqjatgzGsu6FbV+3gS8R22/fXqlpsL8UcHhcjOSDX23gqRKNCugFUPnm0Xe+1hPVdOKpfYnF92z1IukKG4RvRvSDzqn19OhsXfxYoX4M7W43YcbbLsf6lyGIkBw9ky+oybUqZay+AdM0viUGCrEjT4w+eeJnCQpSzgHZYebqRU2+gxW70V+XPgeG3Mvf+6cvJQPAs1ImR4VkwnACECe1zs4Kz5M/NCBI+3BjHrNfwNiAjpCFuAIrruuqjAjwwAFi6tUYrtx7W2fmHdXHpMfq5Xncd9Onxuna97+/Q153d+p5+/j42oc86p/V664QeOJTQFdssq7ASNvhYBXysCg9AxmaVzHZgaIrtV1HVo7V7orr3aFSFZBR9ZIy25N8O+JrXPzWjfcT9d+ojumKHHyD4dQYuar6L5zQSC3ajeTaLh2W7LXDwEGflN+kS0hFbbvVsTUjvBHr1SQSSAvH8JDap9yxt8Q3p4cMR3bO3Q7fCM66p8umismadDe9YaUfMgH5LkSwnNkU55gwQLCNwJeYAwG0W5er1Y+41m8hZSJhZiMdYZLk7j96o2q9gOKF8rHIubPxZ8TyNAcAjrE7MgmfFrNjbKYY22KMBBE/iza944iaIeM2bQ+FzDkyECeMHeLUsZDEecXmxdzzfhpJG+qdB11Y36m5y/adqg3q1LaLNnXH6dUA/9A7om0i/O8j8paZ+PXCsX9fvS+jcqojz5MkFjRhSnRZW1itlRwuKx9PQb2nwi4WA00C7BoJvK7SLOkc0YLzAxphnpry1j/vjI3qzvkuXVrcqp7QNa8R1gWC7CRssseP6Uu3kVhSSASnMyG1W5tYmANGkVUU+t4399fsieqCmh3Qlrrf8vfow2KvPOriBsBVx9unNlpieJbW570BA1+/y6eJtbdpQEdQqiOEy2PESSNHisl7CiS0To4PwDpYq2ZL1LDyADd54o4zmuiFnJvbcYv9JYJiz5pOBcOLQbZRxuuLN+9uAkHEUwpBTIO4bQNjEk22jn32S2BK3LNpou5qZWJttEWoO92Crp5biCZdZsSrebzl9tgrLPRvL3VQd1GV44utg93ce6tJjx3v0Ymuf3iJL+5Bc/5OeEX3aM6yP8QKvBwb05PFe3b6vS5dUdWgtHMTOrrQt9Ww/hUUlzRhLLan7UaVXHIOf2NoL7tuyjVzSd7jYqm0B3Xc4pOLwkNvvwVWmuLkGA0JiTG8AhIu3wS7L2lz8sp3SMivwAlwomdzX1gjaQEgqmURqbqNsybvbyQOwZJR2a3l5BGSGdPX2Nt21i1i2t0Gv1Pj0SRAwdA3p8yg3ZGsiu0lB+fv5IN6iaUi3Hx3Q1XtsB/Qebaro0oXl3j7E5xS3aF0+mYsdmOFWE9teyD4tsWpofncJoMihbTYkfSow/AMQAIEbazAl873TEvusGQRAMF5iQPBAAFlF6YuRpSh7mYVLPOdywugyONXSPJ+WIyuJz2tIxdeRNW0gfbaT5S7gvi4qa9WlyJUw/tsPhPTQ8aiehm+9EiA8d43ps95Jfdk/rU/jM3q3a1wvODIe0h17rd4woA2lKNMGlfCkqQDM6jLs7OiFxX6eW/UURL3Ituerx1isggsiCgjmb+WzZG+rt/l0/6GgijsGNeA4AjJtG24SIvY4IER0cTUpX2kL8Tjots3LqoDg2fwCHbyQ8LCAx2Rime327YiQjd/jemws31yfbU61urBF5xaRdpZ6S7vuP9ilJ0D5c819eq190C2M/cihfEQfg/jNvPa2nQhPevpCbY+equkmnNg2eCHdWO3TFaVNZC11bheys4mh6wkn60H2ehSzit80K7S08GQwzAFhDgRzQLBVTadU+qkEK3dDwRDYRbPkNB3PYGX8OXippYBxBbxpVV4HYO2AoUOQ82gb7vlcQt8FWOflFT7cfEC37u6A5XfpkSPdbot8OxbwpcYEGVjCHRr2cWRIn0ZG9UnXqD4kDXzTP6hnSQHvPdSta3a0axN9sCYf5RKSMwCbHXlgW+xaAWwyYWWRe7Q2Gum0wS5viN2mo22DEuN6yfm2XtOv9Tva9NCRoEpCA+r3JhosMmie7fq1u3dMb0EWL6fjbU8j27fASp4yiH22OXeWxRkXp4nXVihiYYNHm/2zY+4t9tkPWg2+LWSxvYls1HENjdvAdTbhYS6v7tCNe+iQQ2FiX6f+3kTs83XrC7jF96E+/dzRr+87h+mQMb1PZ7zR1q/n62N67LBVKQfgIm26ZaefNDWom+jYG3d3kkZFdHZVt86CDa9BVldGtaoiohV4lmUw+aUQssUQphyYejZZjD0uxo2etpDmLSZ8LbHNMCDIq0hbz6oMa31lp87BUM7n9y7gdy+qjGGt3tlSN+8O6Pa9Qd17sMNtefs0AH+xuV+v+4f0bmhMH3VOuSV/n0Wm9CHu+b32hN5q69UrTTE9UxPVg/vCunk74QLPfA4WvtKmk/EumQWkgPRxOvzExlKsHjOj1Eff4wWsMtpAUJYgbR0BsJN4hjGnF5uIctso83wp93D+joAePhTAI/QrgTeYMZmeAQh4hH24o82g9AZivbF7O53NBjmssMMmPJZU9NIhdvZzHNTZuD+kyASLc7k1FjQ3uzaXd9uMobntJaQutgHkilyuncfNFeAeafw1FW26g9j4yP5Ot7fjK1jA27jHD7vH9XHPOF5jjOdYCGHkg3C/Nnck9F6ol46L6b1gDHLa7dzm/Q2DuvP4oO6o7detRxO66bDtUYRSiKNXAZjLAc6l2/26pNoPB2rXZdvDunw7IPpDCZOKhXQl3796V0jX7Q3rhv0R3XIopjuOJXRP3YDubxzRQy1jetQ3rif943otNKIPuvB4UYvpowj30T3BfUw4t/82TP2N4DAEcFDPNcV11/6wrttuZ1zSNvrjgnJ4UwkhBQ6xrNCHt/OKZG18xSze+Ip5JjfQhpcyScXqXd+7lBcyX9zH397+i7ZmxAptbVIwszyKgYQBLh5hTwtZQ596rR7BdqGzrMHK1A7yysd1fboZxKwzF4LikvO9ES+b+l1SGXdAyCrtdT94gpX/gRipy6Fxi2HQtlgmx/YA2gpZ2krWkUcIIX5eXObXVdtIR3eFdYctV6vp0qOEqSebu0lDe/VyIKE38BjvAIb3u/r0QaRPH0US+qgroQ87B7Q5NKr32z15LzgCQGwjqSG9TWe/5RvQmxCvN1oSrjrndZj2q42DehXw/JG8hrzRNKC3seZ3WpDWAb3jG9S7bVixxXP7TfvtjjFS5jEAgLWb4knrPuweI76P6HUI30v+AT0DgX6krlv3He3SnQfDumVfu67dGdD5GMSavGatgnyvoD+WEva89Q9+4ryVv7c7fjI3czlHXH+d4YUkur42nWCgLluxyjCrEMNjQ0yTAZSRxHQDAh5xU5lPD+5sVn444XaFN4pgjNGtfTyUmNYnWORN5UEU5G0ns8hGvIiDFvtzbEfVcrIGUsiTB23+SNIsh+V72eU9gIjYRcNtECkbN7eEG15mQ55wijVFEMOSFneG4/llTbqwktSUDObK3X7duB+idKRT99ZE9BCd+Sgh7PHGmJ6yJXFN3e4Iok9byVB8cX3e1ucKL76Gd3zbMUSoGdEPhJofo+P6CfkxMsFrE/ou/MfyPfJDmO+FR/Ujoep7lPpNcEBf+vvcb31MFrS5Mar3Grr0bn2YrKtTzzXEaF9CDxAO7iIs3HKgU9fuDuGFAoSPNm0s9+k8xJa3r8fyV+H2bU5nGWKbmObQL1mQQG8dBNY+q3A3o2tK/y0I0I3X1ycDYQ4M/G0jtTZSbF6DUL6ULMPOp3xwZ4vy8AhRgGDTDdLsItjD/VP6tCmhG3FNq3JblILVJhnbNJdD7MmssM2fY7DO0/cGJo6swSMsFZ0bdEkFlWk0yHNrEB7AkEJ2kEJ2kI512I4sVhq3jLhnm1ucRRaxviKgc0i1zrOFK5WtOr+iGd7RpKsr6nRv1TE9VH1Mj+yo1WO76/XkvkY9c7BFzx1p04s1Qb1S14GFd+q1xi69iZd5Gy/zzmnI24DrjcaIXj0e0ivHgnrxiF9/47pP7W3UY7vq9GD1Ud1TeUh3lu/X7aV7dFPJXgjycXeU8jpScDu6aCUu3hbn2JrPxSjZ9n9aggKXlBIykRwUZMvQ7Kh/t8YRDmDrIrylhBZqTdFzyrZxDQPAHAh+C4TfgsFCOGQX4CzgWjawlQO4ziUbe3hXK0DodxuYGl+c4T+3CPbY4JS+bCW+VrQCBNsrsdWtjnHuyCaAKmygx1uH74opZhX9R2JDw2dwkybzuTk718FqFNyW/jYsy9+uoVjAmViCjbWbB7KxdSsUzYIYZXPjbkMI3GUWrjMLsGTaUUNb67XcTkYrOEaIOabzimu0seS4O5LvwspGXVzVjCW26gpY8pV21vRuYv2eoK6ByF2zt/00xLiBX1duJ3PBO11mZ1XjqS4sbyC9raNDa7Sh8KjWFRzR2oLDWp1/REvIbDLJHGxTrHSbZ8mH0GFQtirZDV2XdEPoet2OtBm2Qws8yx28fpLi58TrQ0j5SeKBYRYADgQn6+JkMJg34Ln1L324wOnC9pMM6LyiZj0O+S4grHYCBFvyBlXwxhHqhqf0PS7vNnLMNXkNStrS7OKKtxU/DURpNrR7JpzBRvN+/fF/LYtA9xm5bTqTlMcNCdN48xDJrlQdD2NbzhAy5tNom19YYDeM57E9ndNcpmLTvNZZNoJoaRBxk2vZ/ke2C5ltypUxW8BhdRG2ybYLPWZpAMw23jL2byfJLAGASyxzIDW2YfTTkcXEaCsMscEts15nwfxti3ltWNgTbzmbuXJXL2jh1ATF2nyDTVOnz2ZdaYDA9pg0SYF4u5FS7s+bPaVfZuVXpXoAsGnqVORUffyPctJ3HRAAALKA51YQY+c+2mzkswdDKiZlNSCYR3BAsDGFprEpbekY1N072yCLDXiERjcbaCuLUuk8KzKxswfPJF9O/hNAcLOLkE9XWs733EggN29nD6QZ8SyxA8h7AFkPXiHGb0TdMLP77mxGMlcDYNvmZBHn7HTUxeUR5UB+suAstgNbWj4MGUk/WQr+UTIK+nC7WCG/c1pSgPJsZ7ethEUkZWuvUnKRvFnJJ4Pid1K4dopj6JBplJtDGM0G6NZW26zCTVefpFybf5hb8+A2uUDscU5siN07vMv6YQ4Icx7ht/Kb/j5ZjMtZWLY5Gvu9AtvU1KeLi5sIdZ2qjA27rQNN/+DBzoaeVmBiWiXRUT0Cmz2vqFFpWxpc2mFL1W3u3MbYk1CqFUT8mdBgo3w23Grb12SjZK+iJybbhMO2f7Ot9GxnMVukYQtirFLn1zUKlorajJwnttbfkU1CRrbFV24ym47LdCedxU9IBtcySTcp+FUyTPgNV4ZGR/+h8LmMfNqT+6ukmeR1e1v/5SO22GdWbMGJAdbOs/KmosM8n52TsEe8mol5N5vAMhfvwGCFOfyem2PhbwPKHAisD21wzE2Duz6de2/u/ZPAwHU9meMPCH2UYhNeeCUzxpXwr6vKm90Eo50YHwMIjiyChHlTmlTX1Iy2Jyb1tyNdpHMtyt7aQMfZRgtWEWtxG7JBY7yw8OeAYLV92Sg4B7Gp6Gw6zIkBwhSDmII8JVlmQUeidEeaCCdeOEB4TMO7eItUDBjW0fAJbtbChwshLox44xq2cNerd6Dts+JisSmFcPGHwuece+d7tl+EiRWRmFiFkduZ5GSx1+BVNuxrFVo2Cml1CXbiSrYTQMx1rSbAZQR81vrIW79os5X/6AVM8Y4v0Pduwsvuxyn+JDJ4AhD09wkQzBFKvkP/WMGM9YuR0XVkZzdvayHzievI4IQSYMDmnNwQs2WSNqh0YHAGhtyrq6v8WgZhzD4pn50jO97hkv+s8H8labaQo8ATr/DT6hLMM/xWbGgUqzEuAGlMRekpVheRG0Bsgy84Sx6vWZhxHcT1jQyVhbSwtB0JOrFzJucX+1093xnk0WfA2v/bBGuwBb0LyUQWlkFM/0hKEa7lpPhXWYDM57UzZ+UMPmdypq0+Jl1zq4xmAZBTEdHiyqiWIDnwLFcBTpaQQqq4CH5joPLiv1eu5op3ijwP4E19c68uXZwtYnGKt9TwZDCcDAQDgJdizi17s9Fh2/bIdmI7jxT97p2t+gWi2AAdsAnHmRmUb0vezDm4zAHW8A458I3V7W5DKcvzLd93JAzEux26iMl/FghWsJlsFUk0Og3xav0sBPDI+64MHOWapRvJcu7TLJrXbUAr6YTgSguNVOGay+aIlzeuMbdK+Ff3yG9DwE4WrwjW+9zpihWjuCH0WfGuwe/Niq13sBXYbhU2HW5D73Ysn6u+pvPt97wwgIIAiHmB1FlvkGrDxVZUW0C/mhA+f12fYGTTlGmjiUHEdm/j0ZSO5/wVDCcDwX5nbpyB6ztPDrHFs+XQNqt+vrC0WQ/t8amoZ0RtkzPwA0BgEw12AKjsWH7+tmN2v2sb0cP7IqRhrVpRbNvLtigD68riprNsBXBxnEZBeGY7dK7jvTIuOm1WTsRCFGpbvlnq4srOjTRZvDLhuXPhKD8FD5CM6zdrn6sJtM/augVTvruGPbf4CdFMBQRpdlSxkU4DF9bkVRgT123dQglhhvdsJDSLz2bPir1uW9R4S8X+WKyw1NZBOE5j1+S5Xd8OzXAHZwBKEyvNT4OvpFm2Y+AstXhvTB1uBcAX4t3sMRnlW8iyeQGr1LZ1nB4QDASeUcytjzB+9Ks3MEDYLKiRTDgF7bIxHbeuY/bzbj3myZzEhUCbJAtqKQZ9Dnq8aUdAr9SGVZ0YURjl2zFomp7wgDA9MapRyKIdjXMwNqNPmvp0116yh4oaZVYcVwqhIr0KwlUyiNUOunTP1im4tQpmBcQ9N0/PDxv63Nw8FmBic/ZevAaxJ8sJr2LvzYnFwFN89rdiYDIQ/YE4vkDHufQNsefuvVNd81+IY+3IXNw+1WeccE/u+vyu1wb723vdMxbvbycYltcWTzyrPpX8en1LKxeW9+pM0u4zuZ7tWZFkqTQe2/adXELfLyNTWQYQlwD6xXw2swq+ld+i5d/X6poSn14k9P/cO6oD/f3qGRnUzARUcXzcnVAzb2R6XO2Jfh0OxrUjPK6tndN6JzCqG/e0am3pMdBaq6xySE45aVgZYNhG2lQF6q1230YLQaCrvePRMWYa6YiepY0W552Cf72h/6ic6Ny5zv8j8b5zymv935W/uC1G1m3gzTbssJlhd/SyCZ7DeJXNMHrrQvGILv2lLQX1WlXYoCsr2vVUzZA2d0zoR7KF0s4u+eM9mhkHCBMTmjYg9OEgjka6lVvTqp+bepXbJf3YO6MXbDZyW5PW5h7RUnJPKyxNRfmZ1XiHKuIUebwNENnooTFoQ7kr6TaWapaNm0/ON1d4Glb+78pf3Pl/Sv7qtlhWkt+McptduLapaPPClhXZXtRzq6bcohl3cFpAOVsP6hJ0+HjdkD6I4u17pI/CA/qq0aej4Ygm7Zi8ySmAMKV5lkLs6Y3r06MNemN/qz5uHtDPMemHLrKIY3HdUlavtVwwLe+wFhbVgcYQcQryhmtaYEWuyEJTut1cKTEUz5FZkVBGmRfD7aZPeWP/CfmrO//PyF/cFkvhl8LdzCgzAcOi3GadubVN/72lXWfkWgUZ/AlPYKTTTsRZRmZyfskBPXg0qA9j0/oe498MEJ5v7Nbf99dpm79Tw7Pr4qeMI9ik0/6+YX1YH9ADO2r00F6fXj7ep6/D0tfBKb1Z26vbqhu0ofAgKDsA6lpAZhvidwTPavK986KNRBpR6oU92xAqYs+56VPd2H9E/uLO/1Pyb7UFb+nY/h+LpYJLSH0XQ+BT81q0ILfN7YGdZOMQ9LORZjubaiXE0ErjLqts1cN4+TdDvfqsZ8atY328fkC37/Xryb0NKgn0qt/qFZEpwoObazjYN6r3Gjp0Q/UxXVp+zJ2r9ErjgL4ITenbjkm9VtetO3Y36NySw1qc3+BWMWXOVs1k4Bks5fFuzKqPbbvYOEQS4fn/AuH3xL7z54CQjTe2eQ4zPsuirK/TXFVSj5aQbq4paHEnzd60o0WP4gnei8T0ac+g3g+N6JHDvbp6m98dRfzQPp8Kw4NK2JIGgDBtQBjnycGuQb1+LKArd9VpbVWN1pAtXF7dpGdqY/qqc1I/x2f0QXBQDx8OaVOlT2cVt2hlYbOWErNybEbQjTVY1gBDJ8e3FM9AYMOmf1nHm/xbnf+ba/yn5N9qy+kDwWUelv2QEWRU9JERDMo7XBXehnewY5svLKrVPXua9FpjWF9EE/p6ABB09unpo13uxP01Px/W2oIa3X+4Q4Xdk4qbQxib0cwkQJiCLxztGtHbNWFdsatZy6wmHtQsR67CMzx5LKrNgTF9EZ7Wh3iIx5qGdNvRHl25M6TzSpu1Kq9Oi7fUKYuY5Wb/LHMwwmibU9Dw/wXC74l9xxT865DwvxIbLjYjy4SD2eRWJqHYVqIt2dqks4uadN3OgB6vjerNQEKfovxPuxJ6vq1LDxwN6cZtPq37qUZLfjyiNUXHdd/RsApik27DTTu3TEYWbYu1mp4JfVQf09XVdhZik84obiQraNGqimZdVt2iBw90udNLv+72CMcroXE9Wh/XzXuCuBqrLD6ulXn1WprXLFdqZWPtuCo3KPK/WcPviH3HgDA3GvivxUKDbbu/FFnOcytqtWOMLyIU3L6vXc+1JPS+bW+ALt/r6NPz9WFdu5dQUdGi8+B1y36sV/bPeIXSet0LOPJjY84jCP27dQ023lwzNKMvW/p1Q5kdPQMRgQym78DlVNlJIXVan1er23d26rWWCX0Zt+PlprU5MqGX2wgXhI+b9rTrYsjJuqJGV5yRsRWvshUw5dlyeG72VB33n5B/q/N/c43/lPxbbfkTQLARQvpzbV6jNhY26KryRt2zt03P1Uf1fgSPbWshBqb1cmhY9xwKAZBawrZXAr8st105W4LKxlDXlDfo7sM+5UUH3I4prhhhZkbzMHLtGRjTRyj01uKANmxthwxyQ5U93i5ipa3Kwf2fndegawgFTx9o1usNIb3f3qePcS/vm4eARzwEubzuQFTnb7MDMlq0FA6RXeg7ySvMyW868N+VWaX+zwPC6bbHvmNuf3YI+YRY0erJ0i4r68susUmjZl1f1az79vv1cmNUH3X065ueEX3ePaTX23r18NEOXbOTtLGs1ZXJ2b4MtgteVn6PMkgx7YjEVYT8uw40Kbcz7s6wdkCwbfrtoOgdpI/vEV9uKQ3qHDuYyubaIXvejh82bYqH2ILr//GoLi/Yrzu2H9fjxJlX2of0Tu+03u+X3iTgPBeaABB9uu2wFW0GdQHEcnmxnZRqu3yZzBVm2ixdOwCxjvCIkImr0Ckg8zApNLFCFV6jo72JHj5TyuetcqoMseeuQ8lMTktsmNmbG/hjsd+2tHhuowsTUmXa7L0+99u/ik0wmQv3xDIpbw7G3rN7cxthIElOusisvHtxyi4iA8NwbCPyHDuOsKBRy4n9aypatWF7QJfsC+vBY2G9XN+lt309+sxOf+ke0WcQ/b83R91ayYtKauFstWR2zRB32/M56rK3zELbeLNbGXl+rS7FI+xvVl44cQIIMzaOYFPQ+/vG9H5zXFdtC/LjoMgmQWyCpcimhyPK5oK2ctf2MViCpa8sbNK64mZdVO2HOMb0LGTyA6769fCMvifMfI6rerclpqcO+XV5hXcu4wZCzNrCOmJbg5Zyk7b9m500a2cOWGfYDmWuUCM37kkeUtCrReTJ9rrbg6k8LDtgfFFlQIuqbEseFEOnupXHTuhoLGBO7LyjOfEKb232lJy7OP6HYifem+KTClu1EOXYY1JhG9fhd+kjK+x1i2WNEJd4xNi8n21i4faWKgx5QOdztnzOJt4WAOwzkTPs0dpaTr+W2yRdu6vHXIbXPSu3VufmHtZFBYd0VdkR3UHO/yge+FUU98PAhLYMTMLVhvV2W1xPH+t0C3/szMcNhIvlpPY5RZD2Uh+ZRVBJlYAQ0p5lRTkAwQ7uWIu3uAePYie4nACCLYLt44kDAmTjymo7i8nyVKsSisFMrZjEgMCN4h1sRNEOvcrJa9GS3CYIYiNuqEXX7mqHicYgLP2yY2o/6BzVx2QiH4YGIZk9egkUP3G0XXcT067b1uxyXWO6djj4UlzeYjd3361MAGdTzzY0nWwzkYQSr+6vS26TLRvGxitYB7siE6zu1423TPi8ve+s0RNvrsMUYt/hNZutOw2xcOYsmuvZXIpn3TbCR0YEMNPcDKRtbdOLGHgALV7UzltaVNoLsAGTja6W8z4pnyvPAzBu4sr9RljLAfZZAHt9WZurFbgYJV2/rU337utwRxz9vTWhd8j37ej/D3tH9Tbh2Er4n67pckf/Xlvl00YUvwZdLCZry8j30UYMy7wlYX3hSUDInANCuQ8geEf5zAFh2oBgf8x5BAcErH5RAQ2dAwKWZB7BCiEXAgQbQMombbFCSMsSVrn1iPW6oAQOsa1Vd+1v1+PHY3qpbUAfhEf0M+7rp8iQvgz16/3WuF6ytQmHu0B6WNfsCOvibWGdT4M3YBlrytq1nDi4jMxlKY9LS2wJnl9LAKcdpJlT2KVsvFVmPkQWcXP4bvKlg86eFZ67cnlCmne6iSe244pN61odwGmJAc2s3NZzoEirsbTDztJLTPFWZgcQbHLHTfDElIYsLOzB0ns1385Q4nMWXjNRhJ1guwKPtros7DaxWM99nltuq67adf2eDt26v1P3HYroidpevdw8oPfIyj7pntEXvTM8TugdDOpFAHDXvoCuJRW8rLxVG4sh55YN5BJOtvqVmoverG4DsC7E0yysjGpBJaA7bSDY/giJUb0HEK6A6P0KBGIKLszObToBBCzKNnay8rOlxNEVpRGtonOtFs4GNNbk1mhDQY0ugtEaaXnwcIc+aul1C0O+w0v80D2l7+1sw5j0YXhar/pG9FRNXPftCesWLOG6yiZduwNGvL1Bl20DXOX1OodUdh1hZHW+Xyu4kWW0bQn8YbHtm0gbPMI1y65LeD4ngOHkv201s9uEyzyFeYY/EovtpRaSYrIDPu1Qc2/fBvrCWTWeBq9lxblWSZViw+1OrAKJeA/DX4KiVhfYSXFNuoR0/FoM5fZdfiw+qIcPdsCzuvRcY1xvtI+R9s3oG7jW94Mz+q5vSp8BgLf8w3rySIdurzyuS3P3aT1hYyXGZ6utF2OMWXmAPI+QjVEkAcQF9Ml8PM+ZgPeMipjmVxIOTxcI8anpPwSCVeTaNnELzTXayW5FCeWUxLFWW87WpZwCUhPSzpxc4j9xzjZ9OBvUXlDhc5nGre7Y4E49U5PQqy0j2hya1KddU/oiMqkvAchnIP5jP3lwc7deP96lFyFFTx8O6UEswGLgddVturSyTZsq/DrHXGllh86q6nSLXXOwNCtmtRNnvAIab02Emw5H6a62Eet2dY6IHWucdRqSyWdtI68UCHRKaQCO5Mcj2KxfG4bRRjhr01I6dTn3uQJZDak7z9Y+bGvS5dsadXV1g24E1HftbtJD+1v17NGAXiO339zarc+CcX3ZYcv1iPXhcb0XnXLyBv3yfJON4EZ1x+52DKNFl8KvNuYd0/otR50HdothaJ9tGWgbfqeij+TiBGE7TliKawFAmI/yz8QLzf8zHqFnYsoDQlOvA8JSA0K+xbB/BoLVx9siy4zifjq3D/eIm+QzVthp9Qe2viCrKKDFdN5SXJ/F/5xfWt1ax/WQrEtQ4E27I3gK+ER9r94kVHwctD2YEniMhL4P9+vbIGHEP6RPfYPwln69DkCfb+zRE/UxPUhYuft4t24jft5U062rD8Z08a5eXbgjrgt29GpTdQ/pawyFdOtcrOEcgLIB/mHb99gy+vUo9myI3unIesLRujK/1laRu29r0dnVzTp3R4s27mrVhbt9uhS+c8U+n6460KZrDrbpxsN+PVTr5778erEhoFcaA7S9Xe+0hPVBW0SfBnv0VUdc33X166fooL4nXL4Z6Nez8IDH8QoPkL7fdqBTV26HLxTVa83W41r2S62WWLaWR6gssF3RjMjjiQiJbvd3PEAqAEgBACm2NMD4CR7LSufsYBA77fa0gdA9Nq698RG9CxAuryLuozCrD7QFFVZwaptf2R4JlrrNx8qS8QYp7gAPq+fv5TlM3BoFgbLd0jPLyVtt80xiVFYlPMMqZXCrWXzX9k9YQRhZV2j7B8ApKht0284mPYjFPHEkAH+I6L22YX3YTowMT7iT5z+P4Tl6p/Q58gnyUc+4O4T83ciwXgU0zzYM66m6IT11fFBP1g7o8WP9euxoHzwkrocP9eohwPLA/m7dvy9KCOrSvbs6dO/O05DdHbr/QIceIE1+CA/1SG1Yj9V1AsguPdMY0XOkbC+2RvWyL6q/t3XrjUBMH3XF9XWsT9/2kN/3DurrXkAdG9anUQh0eEhv+/tJ9eIApUdPHYtgFH5S7EZtKDmuNUW1WlGI0iHROZDoDFvJDCAtvXZb+NleFHi2RQW2AxshCb1Ydmd6sp3qvE1CMGBLRYvxYCXoscLS09MEQmRkbBYIPb8LBJs7sEJNtxciOf4iSFGqbc5U1qdMmwCpsOolI0feJJPl2G6vZMTSTm+/RBpIxpFus5Zu1W+LVnDDtgHU+nJcPinhhdXtunpPSDceCOuOw7YVT0xPNvTqRVvJ7OvTu219+tAf16dtvfoMsSMKv2gfQUb1RWgUQnqSdIz9k9hnPw8MnpZ8ERx01/mqc0JfI191juO5TMbcnoZfdgzzaCTYPsd3QgN6v31Abwb79RqW/op/QM/5BvQE5O+Buj7ddiSua/Z26+LtnZBjPBPhZi3hZQX8ISuvTil4gCSIt216sQhSmVQB4asgC6kgja7sU3JVP0q1zMXGX2ykkT6Fp5zYCxpw2E6tBqCMIh997uMaAOZ0gdA1NPIPQFhiQMg7BRCw6DOJm/MhJ5aXp+CGbP2eAwFWn1oSk+0n7PYYRrwVUVzHFsmAzlRDqaU2oNwbnDGgmIcx4NhYgLk7q5YmNbXJrPJmbaggpYIlX4e7vGMH5BOi9RRW9Pwev17ZG9Cb8Ij36iPabKuim7HI1l590pbQZyjii/ZBFDWMEkf1bdeYvrWthLtGCUHDyNAfS3iYUDWm7zom9G0IMATH9YV/jJA1oo+aCVuNfXqnPq43a3v0OmHq5aMRPXQoSgYQdVsQXrMnost2RbRxR0Trt3XBIzplJ7saybSFQiaZKDSbPrGDVZOQhSh5YXmXO3x8YVUvrp2YXz57mn1lPxkMaTSZkYk7UMRxISuC9coDbe2CnaXpgEBW8aeA0Dk4fAIIl0HIlhTYKaIosAAgkCFk4B1s42zbSuYM0irbHdTWQdoGVd5gig3k8L4BAG5hO6taqXpWWY+ybBtZQ7EbQbNHOoJr2SifdxgV7s4N3EB4EKtn8PYACID4NkDYAjtu0orcRp21tUHnQEYvQC7j7yvzG3VtUaOuL4eU4V5v3gYp3d6qO3b6ddeeoNuQ8v6DnXoI4vXI0ZgePdajx47FYOpRJHJ6gmIfJ6w8Slh5iLBy366w7twe0q3bgrqhAm5A3n8Fae6ltOPCwgatt+yJtHoZsjiX9rs1mm1ubcbCvPYTO6vOx9UvREG2MVg2fWkENwMelgbTTyWcJlfgdQkFJzYxJ/xatbTtSJtu9aMVKJ4UMbPcxl5isj2svOUBxu3oP8CQbGs4bC/H0wVCx8Cg9vYMOyBcARCs9Dkpz2IQDQMI6XNAwLrngzhba29bzLuj6iCQVrXrbZ9jRNJGJPEiBgTChG3tllQGmyVsJJGD29Fzi+ATNnRsO7WlAxwHNLe5J9YBEcrm5k1sRNPObcjEgjLM7eWHEBuBa3c3lANxWgw5tcM1l2FNtmOZ7d+4sqRdq0pDbo/os+iwtTDndVURJ+vJNM6GsJ6ehHROeVDnkimcU9qGK2/TWsLY6hK/Vhbze4idJp9Fh9sIaTq/n40SFmMIOdxHFhZv7XUFvKSUyfTrIj5j+xU49w/Y7f1sG9I3Qm6KnAurXMftTcFzt0MbfWTHBdtKKts4y/o+GS99Yn0HfWtjFmZItv+T7fBuJ/HaiXKpBgRbSZZLv5LergO8trNdAV7vH4DQ3tevvTHSN4BwA7m8HbRpHmGB5aXkp7Zvsis4QSGpdkPm1rFa2yLWLeBAXJ0+gDhx1gI3ZItXbHJlIWzWxEBg6/wWFeFFuPFU8xzmHumMLBqYzbXtZHQ7PCubz2XZELcbvZsb96ctgMOGat0+i1zf9lpcCJjmJAlxO6CbEKZMvLBj3+eRz3vL36xT/7W4MxBI1dIBm4kdR2DL2UwZbiczwpgNsC3AUxqJNku3+zWFZpkx0D5vO8AwCrUBqiASwLptY1Hbzsb4Eq7cDIH22oZg3r7M9K2Bh76wlNcMwUCVOTvaaqua7VR45y0wNNuL0sSe2ziHbRq2kPbYjrW21iOr0JYW0od4pKz8FrKoRj12KKiSrmHFJ90MtKanJggN/QM6GBvQd8TXu3f4tZ5GJmGd/w2K/q+CHp1hC0FxTYbcbFycjbp5gzgAYVZOHtI9Wey9k1cO/UNFjvEHJ95wsSf2Pa9Df53JI5Rw43PicYo5MeXSISeJbRnjBM/zz2LzDXYd4y+nI/w+YHJL0t01/1F+nePwxK7vrVk8WTCWf7rur+K97332VG2b+773PkonZbSjF+fmN2yhq6X2JnbKjDtiELHwu2RrTEsICbZHZRJhNruwThdW1OnlmrCqo2PqtXpFgDA1aSfBjk/oWGJYuR0DkLE2bShoUtKWNjKEmP6LuP1f+bh3PEN6rrknb+j1hDL/CnEdMNcpfySmWFPAbxX+ezIHhNMV+/yprnMq8YBw6uv8ZyTVpeo2dnASEPDEdkiKOyjlJLHJuEyAkE5IsPmbRQXNhE041c5WfdAU135S8YRVMM/gEabxCEQJ1fUPq6JnVE9DIjYW1GvRj/XO/c4nRTwDMJyZh1vOgwPgwsxqT6nA/5T8ZUD4dxT1V1//T4oLk578CgQT3iM8e4Aw/oDwmhFwS/cXEBaSId0bylr0ACT6R9LougFpABC4AiXZ2kf+NfQNaG//pN4mFbuGGJL1wzE3dr6IlDCpvM9Noiws9KaE/1zB5b8hfwoIJnPK+iOxz/07QPgz1z/VNf5DYiESK/9V+b8V3ncE3jIFxKb1q/tIP3s0H/6VTrZ1KRnDi0e6VRmdVnDU2y3FShanbFc1A0LX0JCODo7rB8LDI3v92pBb4/ZZdmSH/DWFPHZhaT+EKI7LsQb9Rnn/Sfm3gPBn5FTX+D051ff/lZzqGv8hsX53yuZ3nHgAMCLtxGVvEFM329quNLKmRXvQW7Vlan6tyKvXbdv8bhvFI30z6gYBtknG+PSUxnnmgDA5NaXmwVFt7xvX+80x3VbdrLPzal1almN5alU/nqEfz/D/diCc6vt/JKe6zu/Jqb7/HxIHBPrGiT2fA4EXKrzUnVS7mDSb1NQ25E7aCT/YFtbiEp8uKWnW3/Z3qjAwpgDewMKC7bE4Mjmu0elRDwj2rw/SWDc8oaLosN6si+jG8nqdV9jg1tXnuD2Xe/EIpCn/o0KDteVPyJ8G2W++/0fyp6//J4TrW9lgchkCF/CAYCCIkZ5aZmdHEJGKkt5nFbcBhlayBzKFsmZtqmjVw7tD+rqpX0d7Z9x5j7Z30vjMjIYnRjU2eRIQbOeM3vFJHe4bdaNOLxxo080VjTq3sEnLXekVMcdQfyrl/SflTwPhFNf4XfkzyrJr/8nr/6VAMBIYBAgQPxupJRR4IPCKZNxuNADBlhJkF/mQBqXnHdY5JbW6d3dQnzb0aW90Ul24AXeUEzq3o4BHAMIkXuEEEOzfNGAIDgzrYO+gvm+J6IWDQd1Y5dPZRTZJ5B2w8T8rffyTijL5U0A4xff/lfzVQCizOs0Aj+iA8OCOSyQzsM3DvLMowwAAD17UouVF9dpQeEh3bm/U5vqYdkYmFBomFAACb8njDGCY1MTUuGasitmDwK//hsbG1NwT54sJfeuP62/Horqy0q+zimwrHRsd+18g/K78xUBY5IDgd+HhBBAMBAW9sgNOswGCHY20uKhZa0sbdOeuJr1f36WqyJiCQ3IHdUxOTRMSJqCHEw4I05ZATs38MxDMKwyMjio8PKo9vWP6kpzzwf1hXVEZ0LoSb3cO2zHMOxbYkNnhhptdqbmJxTLngr3OOXEMzj/IbMe5YerZ57Ny8ojiP8ipOoeOP9Vo5u+LKffPyKmu4Yn3e7+9J/sO7bI0zwm5vP19Unu9GdeTxT7vfefkNQ8nj0pawa2N35hHSC6fLU51oaEHL21AiCmnIKJlhSGtLmnT2rIWt+vsu01RVXWPqY080c73nBif0cTYKOFgiNRxFChY8mhDi25XtVP/m5yeVvfopPZ0j+h7X6/ePd6txwDEJn5kdXGLlsFEM0utYR3kql06szyq+ZBKt4GkrUkAoTaf4FIZNxWNlPLcikrJc92MZJkJnWfkB7HNNjK4QU+iTtzWN7Bjt6Ob5euzw712fXv0diGbFetA16mIY9aezG1+5TFuD7ynJ78CfI6xz9U9emsXPIPwDIPP00abTfUWAFsZfjdiU/g2aWccy+o0bJ7CEzukbCHv20HmaeT7tud1VnmMfuXe+fzczjMZ+UE3J+OmnG2msbSHtpDBFfYoOY++yg1qVX6bLipt1W07fXricFDvNUd0oHdY4dEZDaLoSTenMKOpiXGNT5o/mED/vGgbavHwu0Cwf1PTM4qPTqgmOqDqjj792NqrR/fBG3a06dLqNq2r8ivH6ucBwxmA4QyAcCaNtJ1UF4FS203NnYoKCFJnQZCO8u30MZtOtefuoE8DBh1vnenqDLEsm7jyxJvRPHFuJNdMyffEzWDymjvnyd43cRbF+4BpTtzpa25M3gCHwmjHH4t9js+XcQ0UY2P6dlCJ2xkGMPwjELg3mytx6ZxNp5vMzgnwmmfxAIrveKfE2sSVHb8DEGyOoIzvlaNgOwmXPjQD8GZeOwFAhzLzOpSVBxGkT40PpBVy3QKbSOp0M4prCdvXoIvH97frw8aoCjoSOhQfVu8Y7p9QYGcyTDuZ1gwyDUl02+qd9O9fAsH+2Rf6uWBtd792RQb1tb9fbzb06MkjXbp5V7s2wR+W445SiU0L6ZQFWM0CbmQhYjWO87kZd34jnWHKsP2VM+jcTDrZHZRJp2RCcGyDz3Qk1XiIk3Ynbg/mOSnAQhBvOz57DmhQvndy6yxgZoFgAyynBgJeyCn5jwRl006zVDua13ZLsyndOTB46xwsHAAalJqChduMq9vZ1Ykp04R75d5PFNNyz7bppj2aMaQh9nsOHNyjN/Np3s28oc3AWlZgIYDfNwPI5TNb/Urf2uq2+N9EuLh9b6deruvV9+3D2tU7ocbBSUXGpjUKCEz5J4vpc05O/veHQLB/9p3E6Lgaeoe0D95QERnRjwDi7dpuPUJ+agUa6/IalZPbqOT8FjwCoMBLLKwADDYNbUPUVuvPTdksncU/m9a2SmE7Bc1OdVvi2K63itorxTJrAwiIWZwdtWtiwMlyYptG0Klc62QwnADCb8DgyVx4OB1BGeaG3eIUW9fQAwg8MFgOP7cEz2oDXH2GeTMAbweOLUaRVt3tBBDkAAITq1DK5vNOAFompC+d8JpS4hWSpJCm28xuOr/hdm8vt+OAE4DEVn0RbrdasUuTVhQ0aWN5qzPEp4916+O2AZVGMdbBGYUhhH02amgc0MLBfxII9s9IZGJkTE3dcR3p6tW+cJ8qgn36rimuNw9H9dDOdl1dQapZAn8obSHW+UA7bhDF2+nwJhbT5wotbT9Bmx7Ncp1nW/Lh+szl4ipts0p3yCZW4058dWJnLQexJDvLiJhpYh6Fzvbm/j0xqzSu4PiCWa5T/sniAeR0xFYz2QomJ8T9VNsayCZ7UJQd6mk7zbtpXxvXR2xvSVc/YIUpDug2wGNeyxOvNmFWuF9b7mdFpibGoewsSCtBy8ITWeW41YEYwG2yL4MQsZo0/qLKVt2yJ6inaiP6sC2ufLy07avcPDCpmPMCHgCszsB0/R8Hgv2zODNMehkbGJA/1qvWnkHVxsa0mxx1S2BE79Ql9PCBLndMzcZtLVpT2qycvFZl5ZJ65mPxWL8p3dYgZNLRFgu9ohMIlYnFU8hSspVp0RluZ1MsxM50cJU5dNwiOi0ZsR1JLT7btr1z4ggWMrfhp9v0k2t4y9Y8Kz8xNn86gotPg5CZ2PSvVweAOCAg1k5I8qJy2mrC9ef2fbYiEqs2npMkxJX5zT4uwBvamRgWEmx+wM6Rtq1xFhfbcYZWKWanu7RqdaFP6/AWG8uCumNPB+l8tz5oTSg3OqK9fQBgaERdw8MaGCcHQD+/0e8Jpf9HgTD3zzZoHJsgF52cUj+ZRRcxqbl/RrtjU9qKb9rcOqDnCRv37cNLVDbp4rIGbSpp0IbiRm6smZu0E2Bxh3AAqzI6E29xBh0932rzicfJtrIIyzNGbaePWKctAEQLUPxCOiuJTrNKX2Pw3v6Cntjz31qel+ZZLAcI5iXMwk5LLCOxARsvRtsyN/MQ5hVctbbzDIAYj+CKQsq6tBDwLsCSF/C6E8DuSRf3xn0CRqtmcgJg5+dzT7bfNEaSludTNm5/2dY6rc2t1abC47qmolF374YEwsdeaejVN4FhFYdHtZPQXAcZ7OgfhL+NaGIK/v8bxZ7q338cCCf/swZMkpZYTOrBL9UnJrWDeFUUHtG3/j690xjWSzUBPXnQx00169qqRkDRqLMKbem3jxAB+cH6rKbRdmFzaaO5d8KGK80ibVpoW/iZ8FkrD/NOgkFZ5lkcCKykixg9K95exp64yie+4wBB5/9DuvkvxcgnqRzgnNvS1/ai9vaSNqDYZ/A2dn2zbEsHAeaZgMJkPrIAWUhbk3D3tgR+bkm/nYFhmZLjSBjDsny/zsI4zsNIrrAdULY16cl9rXqzpl1ftkZV3NWnA4kRtQ5MKNQ/ru6hMY1MTHkAQLmn++9kEPzHgXDyPwPF6OSMekYm1RIfUy2yr39I23r7lNvZo09bOt35SA/v9elmOx6n0g67CmpdRafWQCxXo9zVdOhKLGQZ4SRnq08ZW1qViqTwPDnP8yJuQIdOtn2HrTOzCuzMSU8yEHc+4hzh/AcxcBgYTkeIy7h/q8R2h5PhpbL42wp5XRgy0Lkcn4yHdqXntQHaNs3H0y2wAuBCq+/E0ov9EFu/W8y7vNSvVWV+rSkn9S4PaFNFB33QqWu3hXXbjg49ss/6J6LPmmMqDSd0ND6o0PCo+vG8oyh8Atdv7t/S+n/n3/8xIMz9My4xQszqHRpV18iI2gbgEokBHegdVFV0QLkd/fqCOPdWXY+eNaK5N6y7IJu3bAvq+nK/rirx6VKsY2Neg9ZvrdfqX+q07Jd6Ld5CZrK1Gb6BG6WzbcjbqppNMgGIiS0L87b8s9TT8ntbEOKJAwMgOXHczh+JETrA5g4DN9Dxt+1U7zIdfmOZkyCxHOAChOwtTcqkrdlbaK+1206vLbSw2KhLy5p0TWWzbtzWrFuqW3TPrjY9fzSGx+zXRy2D+pnUb0f3qI5j8aHhCQ2g/HFT+m8U9n/n3/9xINg/+yFzW8YnxnFhA6SfkcFRtQ+MqCE+ogPdQ9reOaiS9j5t8ZEDN3Xr07qoXj/arRcPRvT0vg49uIMcuapV15U167LiZl1Q1Kzzilt1TomVlwe0GvJoC3CtCjpzVuy4XJN0EzdrCjM/Sezv0xH77CJc9gJAZ5Zum4xaJbNtJbiU91YCsrMAlq2n3EDoOZfHjZC6i2jn5SWEQNI7W+F9705i/L6gXjgU4t7Cev94pz6pj+jr5m5VdQ7oGIw/ODSh/gkYP4q3U/ytjvCv+PeXcoTT/Wc/bC7NXJuNdvWRiobiAwokBhVMDMsPAz5OKKmKTaigc0w/BYf0RUtC79bF3Cqipw6F9dD+sO7Z26k793Xp1r1dumJ72O01sIa0a/WsrCKbWAlAliPLkKVkGEtOEluYezpix/BnwNpTchuVmtsAyJoAACy+2EAY1Ebc+qVVXbqqOqrrdsR0y86YHtzXrWcORfXSkaheq+nRZgjel9zDL4F+XP2QdsL0D/aOqr5/Ak85qeFJz92b1f9Fuj/x72QAzMnJ//6PAeG3/yx8jBE++geHFIsn1N4VVWtXtxpilpIO6Uj3oA5EbTSzT5VdCZV0kTMjW5CfInF9z+PnwV693RjT6/Ux/b2uWy+TWz9/rEvPHOnUE1jgIweCemBfQPft9euePVjnnoDu39uuB/aGTkse2tOuR/aE9JjtYHIgrOcOw96PRfVmXa82NyX0aWu/vvYP6jtA+1NoWEVdA6rq7tP2WEL7evtV3zckP16wAzFv2E2o7MMzmiFw+3/5v1Mp//fk/zEg2D/rC2uEuSwrlzNgDI9NaGhskrQUjoHX6IYsRUZGFTauMTSk4wMDOjzQp0PIwT54R8+Q9sWGtYdQszM6qG1d/SoP96kolFBeEOD4AU5br35Evm+L67u2hL7z/7F8j/wcGNBWlJwfGlJF1zC/hTX3jat1cIK2TChILA+NTKjDhPZ2jY0pOjaq+PiYRrmfSe7NrN1I9JzY/f7V/1x/2sEcvwkF/0rm2Yf/J/1z4DDhf3ONPLkjJ2jv0CQgocMTY+MaGp9CpgHONNnKlCLDU+ocnlZ4eAbSNYOyZuRH2pAG5Bhy9DTl+OiMGsdm1EngHiFwe4q17Oj3ZFbZf7mj/+d/UwDPxABgYs9PVvQfyby5J/9v+2ctnhP7Z48WbibJr8fHJzVuj8TgMWQYIjYAWHrGAAkeJ4z1/qHwuU6u08f3yYj/R/2bU/rJyrfHP+MBfiv/j4aG/9P/TgbPn5H/L/z7/xQQ/vff7/2T/n+GfcWIk6+RaAAAAABJRU5ErkJggg==;fontColor=#FFFFFF;" vertex="1" parent="1">
          <mxGeometry x="745" y="244.5" width="110" height="121" as="geometry" />
        </mxCell>
        <mxCell id="IYNB7ZwwtuiIuKCf3Mfz-40" style="edgeStyle=orthogonalEdgeStyle;rounded=0;orthogonalLoop=1;jettySize=auto;html=1;exitX=0.5;exitY=1;exitDx=0;exitDy=0;" edge="1" parent="1" source="IYNB7ZwwtuiIuKCf3Mfz-33">
          <mxGeometry relative="1" as="geometry">
            <mxPoint x="283.14285714285734" y="550" as="targetPoint" />
          </mxGeometry>
        </mxCell>
        <mxCell id="IYNB7ZwwtuiIuKCf3Mfz-33" value="" style="swimlane;startSize=0;strokeColor=#FFFFFF;strokeWidth=3;" vertex="1" parent="1">
          <mxGeometry x="135" y="10" width="295" height="550" as="geometry" />
        </mxCell>
        <mxCell id="IYNB7ZwwtuiIuKCf3Mfz-35" value="" style="shape=image;verticalLabelPosition=bottom;labelBackgroundColor=default;verticalAlign=top;aspect=fixed;imageAspect=0;image=data:image/png,iVBORw0KGgoAAAANSUhEUgAAAvsAAAHRCAYAAAD0XnaDAAAAAXNSR0IArs4c6QAAAARnQU1BAACxjwv8YQUAAAAJcEhZcwAAFiUAABYlAUlSJPAAAGntSURBVHhe7d0FgFRV2wfw505sssWS0oggJaESCoukIKiAqKiAkkoIImJhvCA2YGCigN0NGHSKNBKCdDfLdk3cd+7ss4hI7Mzcc2v+v+9b+T9nfZHY2XnmzAmpRYvbZSKJisvhcHAqHrfbzal48PNfGH7+C8PPf2H4+S/Maj//qVNHKC3tKFf/5fV6KSGhDCUmluWRC8Of/4Xh578w/PwXhp//wvDzX9i5f36Z9uxdSpLT2UV2ubw8CAAAAAAAZudwSJTSKotsXAMAAAAAgMWg2QcAAAAAsCg0+wAAAAAAFoVmHwAAAADAotDsAwAAAABYFJp9AAAAAACLQrMPAAAAAGBRaPYBAAAAACwKzT4AAAAAgEWh2QcAAAAAsCg0+wAAAAAAFmWTZZkjAAAAAABYgSRJ/h8xsw8AAAAAYFGSw9FZdrsxuw8AoIfSJQro2LiFXIWu8aTmtP5gHJ39pm2E3UsFHszvAACEC6fTRi1TMtHsAwCo5ckOuyjK4eGq0OPtdnMynufmVuNU6Olfa5DbW/i2LwAAmBuafQCAEOS/PNc/Wx4O8tw2SpnchFbtj+cRAAAwOjT7AADnMeTa/f4f37xli/9HOL+HfqpJuS47TV9ZwfcjlgkBABgFmn0AAJ9tjy2ly0rncAVqyfM1/vvToqjm8y14BAAAtIRmHwDCzo11j9Mnd22k+Cg3j4CWbprayP/jjM2l/T8CAIA4aPYBwPISo1104pmFZLfhe5wRvf17JRryTW2uAABATWj2AcByhrXYT5O7Y529mVUel+Jf/gMAAKFBsw8ApvfhnZuoz1WHuAIr+mj1JXT3Z/W4AgCA4kKzDwCmdF2NVFowZDVXEE5KPdmaTmY7uQIAgAs53ew7nV1klys8zooGAHPyTJxNNtz1BGeRHuzACQAAzuZwSJTSKgvNPgAYU86Lcynaie9NcHHL9yTSNa834QoAABRo9gHAcORJszkBBGf0jJo0YUFVrgAAwheafQAwhLyX5lKkA9+DQH0H06Oo4tgUrgAAwguafQDQzWe9NtIdjQ9zBSDefV/XoXeXV+QKAMD60OwDgOYOPr2ILknI5wpAez9vKUWd32vMFQCAdaHZBwBNjEjZR6923coVgHE0nNCc/jwUxxUAgLWg2QcAYSSJyDsRm23BHA5lRFKF/7XiCgDAGtDsA4CqkmJclDp+AVcA5oXz+wHACtDsA4AqxnbcSU912MkVgDWs2JdAzV5tyhUAgPmg2QeAkPwxYgU1rZLOFYA1ub0SOR9qzxUAgHkUNfs2rgEAiuW+a/b7L79Cow/hwGGT/V/vyofTLvMoAIB5SA5HZ9ntxjcwALiwLY8uo8vLZHMFou2/6g265PIWdOzgbip9SVVyOJx06OhxuqRsafJ6PbRvxyaqlDqL7H9/xv8L0EK+20ZRD7fjCgDAuJxOG7VMyUSzDwAXpsxoQvHIcVXIU38QOZo+zCPm4CrII3ndG2TbPJ0c6dt4FC6m5eSraenuJK4AAIwFzT4AXBCa/HOTS1SiglavU+RlnYgkO49am/fUdipY9ixFbf+UR+BMc7clU/t3ruQKAMAY0OwDwDllvziPYpwersKXK6YS2ev1oZPV+1Hp8pV5FIocO7SHkvd9Tu4NH1Bkzl7fqyB8zVR/tiXtPhnNFQCAvtDsA8C/rB75B11ZKYOr8HO05giKa/kYxcQn8wgEKisjlaT9Cyh6yxSy7Z/Po+EH5/QDgBGg2QcAv897b6CejY5wFR7c1buR4+avuAKRXAX5ZJvZg+z7fiOSw+u5Bk0/AOgJzT5AmNvx+FK6tFQOV9aVXbEz5bZ8nUqVw1Ico0g9dojsa16mhK1v8Ih1rdqXQE1wORcA6ADNPkAYs/rmWzkqmaSBu4kcWD9tdLLspdxThynmk1pEnnwetZ6PVl9Cd39WjysAAPHQ7AOEGZskU+6L8yjCYc0bszPLtqO4O3/hCswqJzuDPAtGU9z2aTxiLUljWlNarpMrAABx0OwDhJF1o5ZTwwqZXFnHyS4LKfmya7kCq3G58sl7fAtFfn0NkdfFo9aA9fwAIBqafYAw0OnyE/TzoLVcmZwjmvJKNqaIy7uT7crhPAjhwuN2kf3nnpSbcYKij//Oo+b26ZryNOy72pSW6+ARAAD1oNkHsDjXhDnksJn/sS3HVSa5799ks6Mhgn8cXvUllV/aiytzK/3UdXQiK4IrAAB1nG72nc4usstlzTW8AOEo+4V5FBNh7guOZMlO0v0ZRHY0QHBx8ooXSPr9Sa7MK3J0Oyrw2LgCAAiNwyFRy1ZZaPYBrMT0p+y0eYPkKwaRJEk8AFB8niNryTa7H0knN/OI+SzYUZLavHUVVwAAwUOzD2AhqeMXUFKMSTcw2pzkve4VsjW4lwcAQrN3x0aq/EsLktzmvUfC9mAHwgJbAAiF0uynoNkHMDelwVcafVNq/jRRsye4ABAj88g2il3xONl2/cgj5vHeHxVp0Fd1uAIACAyafQCTO/HMAkqONddsvrdCS7LdNp8rAG0d37uJSn/XiCvzwDGdABAMNPsAJma6tfn1+hK1n8IFgL6y9iynEjN8DbQ7j0eMb9HOJLruzau5AgC4ODT7ACbUqfYJ+nmgec7N91bpSLbuM7gCMBZ5+w8kzbyVK3PALD8AFBeafQCT8U6cTWY5pObgDUuoQq1mXAGYwJsliQrMcct01WdSaO+pKK4AAM4NzT6AScy5bw21q3mSK2OT795MUsmaXAGYj7z8GZL+GMeVsWGWHwAuBM0+gAmYZm3+/Zm+7yqYaQTr8HzYmOypG7kyrphH2lGuCxdxAcB/FTX7+A4BYECDmh8wRaOf0+8w0UgXGn2wHPvda/1f23L55jxiTDkvzqU7G/sehwAA56Dc14GZfQCDyXx+HpWI9HBlUMPSiJyxXABYn/edCmTLPcaVMWFZDwCcSZnZV27Qtcky7ugDMArPxNmGbvS9bd8unMlHow9hxnbfQZJ7GfskLOXdQJPs4QcADUh8qofkcHSW3W40/AB6M/KyHbnbzyRVbc8VQJjzuolei+bCeDLz7RT/WFuuACBcOZ02apGSiTX7AHrrc/Uh4zb6Nbr6Z/LR6AOcweYofIfrll95wFjiIj3m2dwPAMJhZh9AR5sf+Z3qlM3iymCUZgYALkre9h1Js27nylgSHm9DGXm+FycAEHaUmf2WKZlo9gH0UvDyHHLajffYS7trByWWqcIVABSbsrRHWeJjMNi4CxCeipp9LOMB0IFrgvEa/bRyHf2z+Wj0AYI0Ipeoz3oujENZ0lMyBu/UAYQrzOwDaKjXlYfp47uMdVGPu1YvctwwnSsAUM0rTg7GkJnvoPjH2nAFAFaHZTwAGjv0v0VUPj6fK2OQ71pNUpkGXAGA2uRPriTp+AaujAHLegDCA5bxAGhIeRvdSI1+ZvnrC0/ZQaMPIJTUaw1vdjfOCfg4qQcgfCjT+Wj2AQTzGu2JdWQBxfWcyQUAaML3uJOT63KhP6XhN+IBAQCgPjT7AAIpjb6hbrQ02AwjQDiR+qwnufc6rvSnnAgGANaHNfsAAvx27xrqUOskVwbwQJ7v0W7nAgD0Jm/+mKTZ/bjS11fry9LtH2FJH4DVFN2gKzmdXWSXy8vDABCqdaOWU8MKmVzpy1uuGdnuWMIVABhKge/7xJsludBXgcdGkaPbcQUAVuBwSNSyVRaW8QCoqe1lqYZp9KnhUDT6AEYWEVe4tC66NA/oJ8LupS/7/MkVAFgJZvYBVLJo6CpKufQUVzobWeD7B9bmA5jFsRXTqczvg7jSz4IdJanNW1dxBQBmhpl9ABWte2i5IRp9T+OR2IQLYEJlmvblx66+WtdIpe/6Gu8WYAAIHmb2AULknjCH7DYDbHJ/IN/3iMbrdwCzS585mBK2v8+VfnD5FoC5YWYfQAXK0Zq6N/pKg6/MCKLRB7CEhC5vk7fzV1zpB5dvAVgDugOAIOW9NFf3xTJpl/YrnNEHAEux1exGNEz/pYFo+AHMD80+QBAynptPkQ59l795h5ykxJve5QoALMdZwhDr+P94YAUnADAjNPsAAVLW6MdFubnSyYgcskXGcwEAlqY0/JWu40J7TSunY4YfwMTQ7AMEwDPRAJtxlSd+m5MLAAgLPeYQlW/KhT7Q8AOYE5p9gGJSZvRtkn6NvrfZ/wzxlj4A6KTnUpL7/s2FPtDwA5gPmn2AYlAuzNJ1Rr/3WrI1H8MFAIQrKbG67i/6XRPmcAIAM7DJsgHOBwcwsA2jdb4wS3liL1WfCwAAH+X7QoQ++3YcNhkz/AAmIEmFZwZiZh/gAuYPWU31y2dypb38+1I5AQCcZehJkqt05EJ7v967hhMAGBmafYDzUC7MUq6O14U9wj9zFxkdxwMAAP8ldZ9Bp2oP50pb19fyvdjADD+A4aHZBziHa6ul6XZhlnzpzUTDs7kCALiwpI4TSb7lN66090O/9ZwAwIjQ7AOcJS7STUvvX8mVxm7+kaSbvuECAKB4pMptiIZncaWtm+sdo8YVMrgCAKNBsw9wlozn53PSln9Gv/oNXAEABMgeSdTyRS60tWbUH1QqFkcDAxgRmn0AVj05V7/1p3etwow+AITuqgeJ7t7IhbaOP7OAGlfCDD+A0aDZB2A7xyzhpDHlrfcyDbkAAAhRyct1O4t/zcg/qEapHK4AwAjQ7AP46DajP8L3pKi89Q4AoLZh6Ry0tf3xpdS4Imb4AYwCzT6EvbyX5nLS2Ihs3yPQyQUAgMqcMfrN8D/4BycA0BuafQhrj7bZTZEOL1caun6q79EXwQUAgDjuQYc5aevvx5ZyAgA9odmHsDWw2QF6vst2rrQjP1BAVKcPVwAAYjliS+kyw1+zdA7d1VifFxoA8A+bJOl1dRCAfoa33EdTbvuLKw2NyCM85gBAFzo0/J/02kgPpOzlCgC0JMuy/0fM7ENYeq3bVk4aUjbj2uxcAADoQIeG/5Wuf1NshIcrANAamn0IO7qcvDMi1/dow2ZcADAAHRr+rBfmcQIAraHZh7Dyx4gVnDTU9UffI83BBQCA/uRbtJ/0yEbDD6ALNPsQNn7ot56aVtH43Onh2UTVbuACAMAYpMqtNZ/hj4nw0LSem7gCAK2g2YewUDkpj26ud4wrbWTfvYfIjuM1AcC4Cvppu3m2b5NDVL98JlcAoAU0+xAW9j65mJNGOkyl2JIVuAAAMKaIhEtI7v4LV9rYMHo5OWyFp4QAgHho9sHyvBO1XZt6rN4Yoro4Rx8AzEGq0o6o3VtcacM1YQ4nABANzT5YWuc6x0nTY+0lG5Vp/z8uAABMov5AImcJLrSBE3oAtIFmHyxt5oB1nDQQEUf0QD4XAAAmM+wUUXwVLsRTzt7v3/QgVwAgCpp9sCzNz9MfmsoBAMCk+u8onLjQyPu3byY71u8DCIVmHywp76W5nDQysoADAIDJKRMXGq5/dGP9PoBQNlnGK2qwnkiHl5MG/Et3tNwYAAAg2APaTmBMx/n7AKqT+EU7ZvbBcjRdvjNwt39TLgCA1eQO0m5p4j1NDlGNUjlcAYCa0KWApWjZ6HuvfZaoREWuAACsJTo2jk5d/xNX4m1/fCknAFATmn2wjNwXtVun740uS7YmD3MFAGBNSXU6kadia67E0/xgBYAwgGYfLCPKqd06fdt9BzgBAFib/VZfA+6M5Uq8MiVw4AGAmtDsgyVoeRujrPHGNQAA3Q1L4yDe0XELOQGAGtDsg+nVL59FDo3OaU7tufX07nYAgLAyLJ2DeHufXMwJAEKFZh9Mb8Po3zkJ1uljKln+Ui4AAMKMM4ZoeDYXYlVOyqOqSblcAUAo0OyDqWm1mcsdUZLo8p5cAQCEKXsEUWw5LsTa/eQSTgAQCjT7YFobH9ZoRt/HPvgQJwCAMDdoPwfxPBNxuy5AqNDsg2nVK5fFSazDHReQZLNzBQAANNLFQSybJFPtstosHQKwKjT7YEreidos3znVYgqVr92CKwAAOO2OZRzE+usRbf47AFZlw8kiYDYlIj2kyZetswQlXd2XCwAA+JdyTUhuNIILsUa22ssJAIpLlgtPKsTMPphO5vPzOAk27BQHAAA4F+m6CUSOKK7EmXTz35wAIFBo9sFUTo5fwEmsk1V6cQIAgAu6P5ODWPMGr+YEAIFAsw+mUjJGm01hyd2ncwIAgItKvIyDOG0uS6X4KDdXAFBcaPbBNLQ6U59GFnAAAIBi6fsXeRxxXIiT/tx8TgBQXGj2wRT6NtHmnHu595++f2LTOgBAoOz3p3ISa92o5ZwAoDjQ7IMpTOu5iZM4rpiKJJWqwxUAAATK3XA4J3EaVsjUbEkngBWg2QfDe//2vziJ5bx3NycAAAiGo/VEkm1OrsTR6rAGACtAsw+G17/pAU4CDT7GAQAAQiGNyOEEAEaAZh8MLf+luZwEkuxEUUlcAABAqLzt3uUkjmaHNgCYHJp9MLQIh5eTQJiFAgBQla1+P05iDWh2kBMAnI/kdHaRXS4NGiqAAHkmziGbVHjVsyiey24je5dPuQIAANVs/Zzolz5ciCM92IFT4VlqRc8a53v+WD5iJTWpnM7VxVUel0IH0yO5+odXxsltYGwOh0QtW2WR5HB0lt1usQ0VQKCqJ+fSzjFLuBJoJE50AAAQ5lVfkyyH34TilqOxNG1FBZqwsCqPAGjP6bRRi5RMNPtgTN5Js4Wfdn+082IqW7M5VwAAIMQr4k/nMZPJSyrT8O8v5wpAHDT7YFgbRi+n+uUzuRJDjq9GUv9tXAEAgCjyH8+RtPxpruBizlyWBBAKNPtgWJqcsIDlOwAA2nktmsjr5gKKQ+nMVu5NoGavNS0cAAhQUbOP03jAUAY1F3+mfkHXXzgBAIAWUu/YwQmKS1nK2rRKun8CrOhjdOs9hZ8ECABm9sFQPBNnk030Yn3M6gMAaK7g3WoUkaPBJYlhYn9alP+kIIDzwcw+GJLoRt/b9ElOAACgJWf3HzmBGiol5v1r1v+ORkeEH1cN5oSZfTAM5ZuVcJjVBwDQjfxBfZJObeUKRNl4OI76fl6X1hyI5xEIR9igC4YytuMOeqrDLq4EGZFLZHNwAQAAusBRnJqSfS2ebRRO+AlHWMYDhvJE+92cBImrhEYfAMAIWjzHAbQgSYXvnCsf+59azKMQTtDsg+5KxrjErzMcsJMDAADo6urRRM5YLkBLFXmdP5r+8IJmH3R3cvwCTmLkJNT3/VP0ET8AAFBsw9I4gB6Kmn7lIzEa9x9YnU1S3t8B0Mnj7QSv0/eJ6beWEwAAGIW7yROcQE+nnp1/uvGPdnp5FKxAVjZs+GBmH3Q1rpPY5TUFtftzAgAAI7E3fxJ7qQwm58W5/qb/s14beASsAM0+6KZKUi7ZBa/Vj+j4DicAADASyeZrQRIu5QqM5I7GR/xN/+Br9vMImBmafdBNzdI5nARxRHMAAAAj8vbBDLKRvdVji7/p/2UQlsOaGZp90M3s+9ZwEsNz3wlOAABgRDabjeSEKlyBUXW8/IS/6R9yLWb6zQjNPuji10FiG/20cp3I7ozgCgAAjErqt4MTGN2btxTO9K8btZxHwAzQ7IMuOtQ6yUmMxDt+4gQAAIZ370EOYAYNK2T6m/43um/lETAyNPugC5z4CgAAp8WUIao/gAswi6Et9vmbfjA2NPugufyX53ASZKSLAwAAmEa7tym90VNcgJkoDT+afuOSnM4ussuFSxRAOyK/IShr9bGEBwDAvNK2LaCEBb1IyjnGI8HJaPMxxZc+9+ZfOabsf95iltx5JCvn/isfngIiewRJ2Uf4s/+Wselbit/8Gldwps1HSlC9l67hCvTkcEjUslUWmn3Q1s4xS6h6ci5X6pMfKPB9/8YaIQAAs8tMO0HS7p8pYvVzFJFVeAGj0qR7YsqTN/kKOlRjOCWVKk8JJcv4P2cUWRmp5Nw0hWzbvyZn2hYib3i+2/zQT7Vo4kKctKQnNPugC6Fv80XEEw0Vu/EXAAAgGHm52ZS95j0quesjkk5u5FHrkx7swAm0drrZdzg6y2632FtMART3Nj9A79z6F1fq847I95/ZDAAAYBb71/9GFf7oT7bcozxiPa3euJoW70riCrTidNqoRUommn3QjmfiHLJJAr/WsDEXAABMLC83i1xLxlLc5ld5xFoqjUuhA2lRXIFoaPZBc0KX8LR7k6j+IC4AAAAsQJbp2MHdVObrWjxgfr7fErV9+ypasKMkj4AoRc0+1jyAJu67RvAV22j0AQDAaiSJylSsXvjONX+4W7/FnzQn5QyN+UNW0+x7xd6kD/9Asw+aeLvHFk4CRCZyAAAAsDZHw4H+pt8zPJfSrnicR82nfa2TVCD63h3wQ7MPpifjmnUAAAgzdruDEtuO9Tf+6XcfpLyqXfkz5uG0y/4lvpWT8ngERECzD8I902kHJzEkewQnAACA8KPcNRDV7Wt/4++6L9X3SsDJnzGHvU8upmPjFnIFakOzD8I90X4XJ/V5+mzmBAAAAM7oOKLhOf7GP3vAcXI7zbHUtXSJAv8sf2yEh0dALWj2QSjlwSuSPbkmJwAAADhTbFwiOYb5Gv5h2SQnXsajxpb1wjy6ud4xrkANaPZBqP1PLeYkwKU3cQAAAIDzcTgjSOr7l3+2n0pU4FHj+qHferHHdYcZNPsgVKTDy0l98o3fcAIAAIBiGbiHvMNzSW78AA8YFxp+daDZB2Gm3i52Pb2kHNYLAAAAAbHZHSS1etk/0y/X7cujxqQ0/JUScVpPKGxomECUe5qIOxLzWGfs2gcAAAiV1GFKYdNv4HfL9z21mE49O58rKC5Zua7YBzP7IIxN4OvIMjWv5QQAAAChkmrcXNj037GcR4wlMdqNZT1BQrMPQjSqkMEJAAAAzEIqd1Vh01+qHo8YCxr+wKHZByH+GLGSk/qyyrblBAAAACJIvdcVnt5jQErDb5MKl6jAxaHZByEiBJ7CU6LnLE4AAAAglDLLf88WLozDM3EOdah1kiu4EDT7YD42OwcAAAAQTUqqUdj0d53BI8bw271r6K9HlnEF54NmH1Q32/fgE2ZYGgcAAADQklStY2HTX/JyHtFf7bLZtO2xpVzBuaDZB9W1qynubTWvPZoTAAAA6EG6eyPJ/Xdxpb/LSufQ+oeMeYqQEUhOZxfZ5RK3vhqso+DlOf4fnXYdN8UYdLMQAABAOJJn3UXStq+40teBtCiqNC6FK3A4JGrZKgvNPhQaeu1+/87217tv5RHjye53iGITSnMFAAAARiB7vSS9mUjkzuUR/aw7GE+NJzbjKryh2Q9T2x9fSjVK5XBlMpjVBwAAMCyP2032ycZYbis92IFT+EKzHwa61jtG3/dbz5XJ2Z1Ew036IgUAACCcvOZr+L1uLvQT7g3/6Wbf4egsu924mMAqrHqznByZRNKQY1wBAACAoX2RQnRY/02z4dzwO502apGSiWbf7NwT5pDdFgZ/fyNyiWwOLgAAAMDo5KNrSfqsKVf6CdeGv6jZx9GbJvRpr43+GXzlIywafQUafQAAAFORyjYu3G/niOURfVh11UNxYWbfBMqUKKCj4xZyFX6O1nmUyl7/DFcAAABgNt6/vybbz3dypQ/HQ+3J45W4sj4s4zEBz8TZZAufr8nza/8uUb1+XAAAAIAppe0kmq7v7bvhtKQHzb5BKWfdeyYWXl4FheTbFpFU4RquQJS/Nyyn6T/8Tp9/N8NfezxekuULf2+w2Wy+D4kkSaKe3brQs48PJ7vDyZ8FgGDkZGVQwzY9KC8vnzzewE7Ls/keiza7jW67+QYa/+hQiozWd/kEwDm9ot/zxIH0KKo0Njwu3kKzbzBPtN9Fz3TawRWcZo8iGp7JBajh95Xr6MXX36PV6zfyiFgjB9xODz0w1JfwNhXAuTw0Zhx9/qP4SZ5aNarTkL49qcfNnXgEQEev+16Iegq40Nb6g3HUaGJzrqwLzb5BhPumkYvxXvUw2Vo+yxUEY9P6lXTn/ePo5Kl0HtFPqZIJtHb+95j9h7D3+PhJ9OEX33Olj9K+x+OK2V9RZFQMjwBoTMcZ/gFf1qWpKypwZU1o9nVyaXIO7RizlCu4KBy5GbC1f26mm3oNvugSHCNYOuMjqlatGlfaqFCvJafglC2dTGt8L1iUpUtGtXr1Krr5nge5Cs64B/tS/37G3ytTtWFrcrmDv7xn3tdv0+W163El1o8//UBDHp/IlfHcfmNbevmZMXgxDpqSF40mae2rXGnrz0Nx1HCCdWf40ezrwDtxtq9B4AKKRzmyCy7K4/FQvWs7U0ZWNo+Yy9sTxtJNHdtwJc49wx6hOQt/5yo0Bzct4WQsh48eo6va3sJVaDq1a0XvvzqeK+Op1qg1FbhCv6VT9N/ll9/9RA8+9TJX5rD058+pWuWKXAGIlfbn15Q4X5+Tevp/UZemrbTmDD+afQ25J84hu4Q/46Cg2b+gr778jEY+8zZX5rd/wyL/pl9R2nfvRX9t28tVaP5c/BOVKpnElXGE+s7F2Q5sXESSZLwrWZYvXUg97nuSq9CIavYPHjxETa6/nStzOrBxsaHfxQLrkE9uIemjK7jSllVP6Clq9nGplkDKTL7/4is0+kFJ7bGeE5ytaftb/U2dlRp9RaUrWtELr4j7PTW58kpOoWvW4VZOxpF28ggn9Vx3U29OxnLbkKc5GdPop180faOvqFg/hb758ReuAMSRkmsT3TqPK21Zff+k5HR2kV2uwI72ggvDptvQZZdpRbF3zeUKFB6Pmyo3aM2V9e1dN58cTvXXDqs58713/QJyOIyzp0RpzLfv2sOVeoy2ZGnVuo3UtfcQrkKn5u8vKyubajXryJV11Lu8Jv32zVSuAATTaeOu1Wb4HQ6JWrbKwsy+muYNXo1GXyVo9P/t/Q8/DatGX1GlURvKNPgehCXLV3Myhp171FmiZHRPPv8ap9C99fwjnEI3ZvxESzb6ik1bt/k+tnMFIJhOS3j/fmwZJ2vBzL4KCl6eQ047luqoBuv0/2Xz2mXUoc+jXIWf/X8uJJvdzlXo6jS/ntIzc7gKnZFmvdVer19k28rZFBsTzZX+1Px97vtzEdntoc97pXS5y/diax9X1lQiNpb+XvErVwAa0GGGf+qKijTgyzpcmRtm9lXQ8fIT/pl8NPoqekCfCzaMLJwbfUWlBtepeozoWxPGcbKW+QsXcVLfT7/O52Q9ajT6n349w/KNviIr25ynfYGJ6TD517/pAapbLosra0CzHySlyf9l0FquIFSnOs8pfFDj1Ac4B2WToFquu7YpJ3V43MZ4gTp6nLhzqqd/+jUn/e3Zpt7Nz91uaMspeAd2b6WHx77EFQCobrj2LzL/fGg5J2tAsx+gohN24OLk6FIkl6hIFJnga+JtJEeV5M/4OKIpp0yLwpl8X5OfVPM6/gTAuV3R8kZOoYuIUO+tYaOcn37k2AlO6tv8905O+uvST713ul57bgyn4Pz08xxqeuNArgBACHuE5jP8dptsqV4Pa/aLqWejI/R57w1chS9v+WvIdfUT5HImkj25FkXHxvNnQBRR67DN6Jvpr1HzqxtzFbzJ731ML7w2havQOBx22rt+IVf6Ef11IvoOhOJS6/epnB2vnCEfrHA7HauI0U5mgjDidfteoWu7d+jXraWo05TQn3P0UrRmH81+MYTTTH5eiRp0uOVnVLlGPVyZbhBo9v9NrWZDzT/Xg5uUplG/JWibN6yhDnc+wJUY333wKjW9Sr17CoKl1t+b8sJFeQETrHB9XKLZB91pvGk37tG2lFWg3iERWkKzXwxlShTQ0XH6z9iJdOjyR6l8w5tIKn81j4DRaNFUREZEUOMGdSnlysuodr0rqWRSApUrFU8loiMpr8BFLreXjp7MoNRTabRl4xpavHYHLV+1jv/X2lr83RS6tGZtroKn5p/r+vlfU+ky5bjSXuub7qJtu8RvENW70Xth4us0ebo6+we+nvISXXNNc64C88qb79KEtz/hSpzoqCgaM/weuqH9dVS2fODX+R89fJCWrdlM0z79ltZt/ItHQ4NmH3Qn+3rWVyO50IZZz99Hs38RswaupRtqi1sDq5uoZKLB6t+yCeKo3ewnJsTTLx9PpMrVL+cRddRv0ZlS0zK4EkuNhuOR/71En3wzg6vQ3HdnZ3rycf1OTVJuHvZ6xX8f17vRq93sesrIUufY1FB+L9UataECl5g1xNe3bkHTJj/PlRhTpn1M4155L6hTrtDsgxGcXDmdkpcN4kobZmz40exfgFWW7WyJSKHSt3xApcpV4hEwo1Cb/TEj76PB/e70r1HWStfeQ2nVOnF7XN6eMJZu6tiGq+C43S6q0jC0n+NMejZBWi0p2bFqNkVH63fevpq/z2D/vp585kWa9uVMrtSRXDKR1sz9hpwR2s5WFnnxlTfo9alfcnVhaPbBKORTO0j6IPR3eYvrxvcb0cy/SnNlDjhn/xzuaHTE9I2+PCydZD7hpvbQeWj0w9Tsb6b7n5SVjyH979K00Vf88PGb/v+2shxIhMEPPc0peA6HkxwqXtallz83beUk3vYt6h17qadXnn2cU+DUbvQ7t0+hDYtn6NboKx4ZOcz/eF3z28c8AmB8UlIN8l6t3TuqMwbos3RVDTY1L6sxs/Tn59NnZj1tp1bPwmOpfB+SM0bzxg6M4VVfA1PU4Ne9vAaP6mvjkpm0eu63XKkrLy+PU/Bu7RL6OetFjp9M5aStfQcOcRLv0Rfe5qS9E6mnOIWuR5fg3o7/dba6k0ETnx5JU155liv9latQ1f/9Y8eKn6lEbAyP/mP842I3gQMEytbiGZKvHMWVeGabEC7qByWHo7Psdod3w2/W2XzPiHyyG+AoPBDrQksXYqKjae38bykuLo5HjGnNymV0k4rnoyuqVq5Iy37+nKvgeNwuqqzSUp4K5cvSyjnfcKWdpu1vpQOHtduHozSDeuh0+wDasPlvroIXFRlBO9fM4yowNa5qR7l5+VyF5rabO9Irz4Z2zr8Wdu89QC++/h699PQoio/HUctgTPL7l5KUqc0t1r0+qU+fri3PlbE5nTZqkZIZ3st4lOuQTdXoS3Y61XHW6Vl8NPrh4bLqlTn945Vxo/1N1/ZVsw3f6CuubHItPTSsP1fq2LPvAKfgqXm87MHDRzlp69iJk5y04XZ7OGlLjUZfMfCubpwCp1ajrzBDo6+oVqUivTNxLBp9MDRpgHYX/33Sy3zLGcN2Zt9MTb7nnm1kT6rGFYB59ehzLy1fq84RgArlxY7y7kYo1Nz0uWvtPP8xplrSanNukV+/fp/q167FlXbU+n0G+87EirUbqHufoVyFZsfquRQdpd8afQArcrsKyPFGLFfimeF0nrCe2TdFox+Z9M8MPhp9sIhvPnqXkzpee+cDTsF7YFAvTqHLzy/gpI31q5dz0s6Y8a9y0s4X383ipJ/pn6qzRMvhcKDRBxDA4Ywg7w2hLe0MxNiO2r2bEKqwa/aN3+hLhU3+kGNcA1hLm5bNOIXujamfcQreiHvv4RS6eYu1bb6HP/UKp8BERQbfbK75cxMn7Ux8axqn0Dw0pA+nwC1ctpJTaG67uRMnAFCbrVYP8lTpyJVYT3VAs284911zwNCNvtcZzzP52s4MAmjt47df5mQMESE0vmd7fYq2Rxfu2h/cxtxKFcpRbEwUV8HQdunnoSPqTH4M7hd8s5+Zlc0pNKNV3rsCAP9m7z6DZJs2yylbXareKWEihUWz/1jb3fR2D/XWCavJFVXW3+Tbhmm7yQ5AT0ZbxnBzB3XWg2/buZuTNoI9OvnLqa9S944tuArcocPavfOorMNVS5QBvu4S4v57pCUAqEsaoc6L84tZOHQVJ2OzfLOf99Jceq7zdq6MI7N0ir/Jdw4O/UQRALO5r++dnEKXlp7BKXhvTlTvrPP8vBxOYi1bsZZT4MqWLkXPj32Kq8DdPUS7c62feP51TqEZ0OtWTvrCLSgAGnlAvdOzLsQM+0At3ewrfwGRDi9XxpBf4lJ/kx/XK7hzngGs4L5eXTmF7vvvv+MUPDUvopv+0aecxBr70hucghPK7/mv7Xs5iff9rDmcQvPkqMGc9IVrLAE0ItlIvuwWLsQy+nIeyzb7RnylVTA4nSIHane1PYBRlUgoySl0L7z9BafQlC2VxCk0z7z+ESextu/ewykwQ3rfyMkcsrLVeafE4VTvToVQpGdq884PAPj6/S7qPD9cjNGX81iy2Tdao+9qM8U/mx8RhbWaAGrLylZnbebahT9xMoeCAhenwAzocwcn5RhIO6fAeTxuThCIP/7Q/rhUgHBWMDj0pZ7FYeTlPDY13742Aq/B/rDd9+eQs0FfrgCgSHRUKKfBGFt6RiYnMbJzcjkFrlSZSzgRde9yPafArd8o/tCDe4Y8yCk0Lz2lzs+jhtHj1dmDAADFExEVTdTkUa7CS9EhDpaa2VdeVRnmpYv/GE0XOVS8jh/ASuLjtLvpsLjKlS3NKTTDR4/hJEbbbndzCozDbie776PIi08/xClwY559jZM485cFvwn5TLd1D33pks2mztNlVnYuZav0bhQAFNO1z5CcXI8LcYw6u2+ZZt8of8BHLx1S2OgDwAV162y8q8Z/+CC4S6rONnfZOk5i7D94mFNgbu/WmVOhiBDWsW/cso2TOB6Ph1NonA4Hp+CVL6PePpOaTbW59AcA/iH1Eft9uUhcpPGWOFqi2TdKo3+i53Yqe5P42S4AK7jzhqacjKNSpSqcQhfsGfgiPTj4v0sKEwz4Doti81Z1jkx+bMQgTqF5eLB6x8Uqfvox9FOkACBAHd7jIE7G8/M5GYfpm30jNPpynK9BGOmiUuWr8ggAXEz12o05GUt8XAlOoTl8JLjbbS8mOzONU+DKlS3F6R99bw1+lvnw0eOc1Pf4eHXeZRnc758NyaG4+UZ1TzEaPOYVWr9xC1cAoIm693AQq8ElYvdtBcrUzb53ojFm9KUBOzgBQHEZ9XCA+wf05hQaUWvax774Kid1DOh9O6fA9eg7nJP6Dh05yik0dnvoS3gUzgj1N5R3vmMQPfjk81wBgBa8bd7iJM7aUcY6dcu0zb7S6OvaKzhiTm/CBQDrGNJfneUasxcu46Sur2Yt4hSYXt3PffJOUunynAK3Z5+4G8APHTnGKXhvPKvuTb9dO7bipJ4vv/+ZKtRrSW5XAY8AgEi2BgOJ4ipxJYbN15/e1lDMu7vBMGWznzp+ga6Nvrey70nz/nSuAADOzeNWfzLA5Qpu89dD9/ue4M4jKTGeU+C8Km2iFeGmLjdxUsebE8ZzUl+VRm2paXttbvsECHsDdnEQ58s+Gzjpz3TNvjKjnxSj32y63HAY2W6ZyRUAWFFivDrr9hcvXsxJHcdPpHIKXELi+U+TGRjCUp69e9Rfxjh+ojpvs9vt6j/FlSqZyEl9Bw4f88/y173mBh4BAFEy6tzPSZxhLfZx0pepmv1nOu3QdUZf7vk7Sa3V2TQGAMb11oSxnEIz5sV3OKkjIyuLU+CUM/bPZ8S9fTgFbsqH6l9H/8Hn33MKXrdObTipa9FPH3ESJy0j09/0X9mmK24qBhAk/vpJnMSZeLP4I4qLwzTN/oCmB+mJ9uLfdjkXOSrZvzZfKn81jwCAlbW6pgmn0Ow9qO6azZ4DR3IKjNPpUO1SqLN99N1cTurJzcvjFLxXn3+Ck7oSE5MoKSH4ZU+BOHLsJFVu0Nrf+CsfBw4ZZw0wgBXkDgr+3dLiiLB7qVPtE1zpxzTN/nu3b+akLTnxMpIG4xssQLgpV+a/x1QGo6BAvWWHx44H98R0fZuWnM6vZEIcJ339vU2d8/VF3l6+es6XnLTVtMOtpxv/72f+yqMAEKzo2DiSE2pwJcbPA9W5CTwUNiNe/HI2vc7Sl6NLk9T3L64ArCEvL5+++/Yrqlg/5XTjEOxHk3Y9aOXSOZTr+znN8L0kEKOH9ecUGq/Xyyl0bndwSzqeHXPxdwQeHHgbp8AdO36SU+iee+19TsG7uVNbTmJExZSg2pepdwFbMIY9+uzpx+HWLZt4FAACldp5DifrKTriWnI4bpCDfP7QhF6NfnqlWyihh/prUQG0dujAHhow6ln6c/NWHtHGoLtupr49u1LlauefNVEaFTUc3LSEk7rU+PU9/9hQ6nNXT66Cl5l2ki5v0ZWrwBTnzyc/L4eqX3Xu4zkvplvnDvTGi09yFZoqDVsH/aKmyN5188jhjOBKHDV+rWr7+ZPXqEFDY15YB2BYr4h7J1AxZ1sydXjnSq6043RKVKHiJqXZ7+Rr9vU8sP789jyxmKqUDH3tZqC81z5HtiajuQIwp8ubXk+Z2Tlc6S/C6aTJz4ygLl1u5pHwaPYVavz6Rjz+LH3zU3BLN4r73w/292u322nfnwu5Co0af+aivh7O5vF4qHKD67gyFqfDQT9Of5EaNFJn/wmAlckZe0maKnY5j/RgB07a8T3tksv1s3HX7P/Qb70ujb5raCYafTAlZWa2xlXt/M2S8mGkRl9R4HLRvY9OOP3rU6OpE+3rd5/jpL+ffgluI+y9vYr/bkBikOv2laZXDX9vWsXJHJQXOVq9sAiUy+2mG3qPOv1Yu/HOe+nwIXGXoAGYmRRfhSipFldibHtsKSftGbLZj4nw0M31Qr89MVDuYVlCrkQHEK1V557+JRjK2nlQzzXXqvOCJD0j+CMzixQEeZnWg0MHcLq4wX2Dvz04NS30iwZ7DA79yNMJ4x7hpJ1NS2dwMq61G/6iqzrc4W/8r+kU/L0KAJZ1j9i9L5eV1m8CzpDNfvYL8zhpxzs8lxzOSK4AzGHqtKn+J+8dew/yCKhNObYyVE+/8Dqn4JxKDX4DbIm4BE4XN2xAL06Be3biG5yCl3oq9BcMXTu146SdpMREGjWkH1fGt3f/odMz/jv3GOPSHwBDqCX2hfDLN+pz7r7hmv39T6l742RxFAxOJ5s99Cd0AC0pp+k8NekDrkCUO7uHfpvp9z+HdtDAK+8Y/+/5i++NcRRkdLQ+784+OKQv/T7TfI/HlC53+Zv+5cv1W2IAYBTejh9yEuOh1ns4actQzX7tstlUMVHjdfoPFFBEVAwXAMbnKsj3Pzlb7ahLo3ruydD38Ljdoa1p/yzIRrrHDSmcjO/nOYs4BW9grx6c9FGl6qX+Nfx2QReYidRj4GP+7yvK3hqAcGWz2clTqiFXYsRFan+Cl6G+I/31yDJOGhnp+6bGZ5ACmEG3uwZS1cbaL1OA0K1Zt55T4HJzg5sEGf/U45yKr3TJ4i/7OVsoL0AfeuoFTsF7cvRQTvrat2ERrZj9NVfmUq1RG0wmQFiz9xZ7UMDuJ7Xf1G+YZl/z8/SVRh/ARGo1u55W/qntWflQ6JJyZTgF78kX3uSknbgSsZyKb+yo4NeeK2vBg5WeGfomZruBlmNWvKScf5a/YvnQv3b0oCwTfOG1KVwBhBlJXHucHKN9/+n73eg/s+2dqG2jn95On6vOAYKlzLZlZRnrKM1w8sCAWzkFL9hLzcaMn8QpMLYgl5Lc0Kkzp8B98VVws9nZ2dmcgvfQfXdxMpYVc771N/01qlXiEfOY/N7H1Pf+x7gCCB9yD7EHxbx761+cRJOoarUqxmj2NV1JU6ElJdTvzgWA8dVs2gHraHXWs8ctnLT32XczOQXmpo5tOQXGGRH8qWSTP/iWU2AmvR36xtb+dwd/kpAWFs34zN/0x8cF/m6LnmYvWEpXtsFzJoQXqWILTmIMaq7VnRcSVatelWySzmvWtVy+I8dXI7ptPlcAxrf/4GHKzs7lCvRidziDnik/05YtmzkVX0FBcC/0xj06nFPgoqO0PYZ49sLQ92vFx5XgZGxblv/qb/pff/YxstvFLRVQ05Fjx/3r+AHCiVw5uAkTIynae6Prd5p+TbU7Gzwr+RqS+utzvilAMJRTd5pdfxtX2nhz7DBaM/97fzMSyMeu1b/5/3fTX36IalSvwj+btYwe2pdT8LreM5JT8WScOs4pcMklEzkF7unR93MK3LETgd8JsGvPfk7B6XN78W8JNopbbr6B9v25yP/4WbfgB0pOCv7vSytVGl7HCcD6pFvEHid8z9XB73EKlOR0dpFdLi+X2tJ0Uy425ILJaDGTduP1remdieO4Emf/zs007MlJtGbjdiGnfCgNkxbU+DsJ5Nf60qTX6LVp33AVmFD/TIL9vd4/qDc9OnwQV8UT6p/r7jWzKSIymivzu2vgcFq4fB1XxtLy6nr0xfS3uQKwNnnF8yT9/hRX6pMe7MBJDIdDopatsvSb2S94eQ4nDaDRB5MZ+dhYTmIsnfmxvxnUotFXVLq0Lv342VQ6sHGx/7+rNGcvPjqQP2seaix6zM/P53Rx730e3Hr9Hp30O1//vQ+/4lQ8C5f8zil4Vmr0FZ++97r/cbJl2Qy6/rpredQYlqzaxAnA+qQmj3IS45KE4j8fhEKXZv+pDjvJadfoDN9r/scBwDy+mjGXk7qmT37e30RUq1qVR/ShNGe9evXhyjwuvyz0P7fvZhZ/oiMnyPP1a9S8nFPwgt1ImhfAixnFC69P4xSc9inNOFlPfEIiTXvjBf9jVvm4qkEd/oy+sJwHwoYkUV5SIy7UN/GmvzmJpUuzP7bjTk5iHa41mqjpGK4AzCGly52c1LVu7hfUobXYEwasbu73H3MK3vhJ4pdA3NGtI6fgPTniHk6By0hP43Rxm//ezik4r7/wBCfr+/HTd083/vf10m+fgnIj9N9bt3AFYG35HT/jpL6ejY5wEkvzZl+rdfqeSm2p/A3PcQVgHjtD3Kx4NuXELaU5KFOuAo+AntLSMziJU6pUaU7Bu7V78M3kZ59/zunCcnMyyesNbc9YfHzwN/6a2ZOPjjrd+CsfWp+g1KZHYPsyAMwqoVwN3xOprufZhMzcv/rzsUeRvYfYXdQAIqR0vp2TepR18qCe2jV93/g1MPihpzkFJjIiglNonBFRnAL3zBvFmwmbP0/McrVwtGP1XH/TP+HpUTwi3i+//cYJwOKai1sSfvyZBZzE0bTZz3tJm2/s3qHFfwsZwEh27lX3KC6lAQB1fT3leU7BO3b84sdTLl6+hlNgenYP/gbcs4k+u37U+Hc4BeehIf04QZE7bu3qb/q3rRTfiA8YNZ4TgMU1FXeTdKlY8YfIaNrsRzrEH/GZ2upDstntXAGEr2pVKmr+1n44SCpVjlPwnnjuNU7nl5aezikwo4cN4BS6h4YG30zn5ORwOr/M7Iv/OxcysI+291CYSWxMjL/p37LkOx4RIyMjuK9TAPiH6IZfs2Zfq7X6JRuL2dwIINrPcxdxUsePH7/BCdRWOrkkp+DMmiPubdukxHhOoevf61ZOgZv2ydecxClRIrgTg8JJfFJpf9OfEOTpShcz6qmXOQFYm3zVw5zU99KNYk/l0aTZ//Xe4N6ODhjO0wcTG/6oum+JJ5dM5gRq++2zVzgF70KXi7353keczOvN6V9wOrd+94d2fvXkcQ9wguL4a/mvtHvtfK7Uo/YkBYBReRsO46S+vk3E3qZrE3Gb5dmurxX49emB2n3Ve5wAzCk3L7gz1c9lwrhHOIEIZStU5xS8XTvOP5MzeeqnnALT//ZOnNQTF+TseUZmFqdzW7BsJafgdO7chRMUV0SEk1bP/ZYr9cghnqgEYAb2uPK+f6hzAIJWlNP4FMJn9vs1PchJrGotgz8TGsBqbrtZ/aZPbVpMNIiUGB/a5tUxF1i3n5kV3Fr2+wf15aSeIX2DPyEqL7+A038VFIT2TmxkJPajBKN8uTLUs2vo9zCcKbsY+zMALKH1xfdbBevpDuLuoBLe7E+9fTMngbB8B+Bf7CbYpD5+ovjLpURyOJycgrNk1SZO/+b1uDkFLrl0WU7qGTog+JuOz7fEY9++0O6S6NapNScIxsTx6l42uX6zNreAAuiuvnoHIJztsXa7OalPaLP/16PLOImzPWUmJwDz2rl5Nafw8dUP5n7sfvvBZE7B83j+u/xh/ergvm8qb9fabOp/Sw/lheP9j4zj9G/jX5nCKTjPP41laqGqVjH0U6WKLF+GdfsAoSpccCOG0Ga/dplsTuJcduX1nADM66s5azmFj9S0TE7mVKN6FU7B2/DXVk7/6Hl/cDd/39KlAyfjmzVnIafgBLuPAP7xxdRXOYXuwJFTnACsL7fKTZzUFSHweHphzX6vqw5zEkceod6GRgA9/fTrPE6hEzG7C+dWrXIlTsHp1nsop38Eu/553GMjOKmvZFICJ/1d37olJwhFxQoVOIVu3+FUTgDWF9nhTU7qa3WpmBfOwrqCj+/cyEkQyeb7f1yeBXC2ipeo9/a8KH9v3cLJ3MaOvpdTcFzu4Nfnny0hPo6T+sY9GvwLiezsf5/Ks2xJaEs+Xh47mhOEquikDgAoPlsJ33OsLbQ9W+cz/obtnNQlpNlfOjy0I9WKY88NKzgBwJlcLuNvWJ8xbzknc2vbuhWn4Lld/5xYE+ryFlG6dW7PKXBrVvx7D8KE977iFJzkkkmcIFRqvQt4TaNLOQGEh4JLxBwS0KJaGid1CWn2r60q5hdbpCCmMlWt2ZArADjT4aPHORnX61PUvTRKz2M8Q10/PmPWLE6+RviNqZwCc0vnNpzECXYO+P7//Xsj845dezkFrkWzKzmBkURGRXMCCA8RDftzMgdTLu6NuFfcWaQAemjauAEn65vy4Zfk8Xi4UkeBju9mfDnlZU7BGTXuDU5E23bu4RSYMSPv4yRO9SqXcArMidR0ToVS0/5dB+LtCWM5gRrUehw2vrIJJ4Dw4K7amZP6ogRs1FW92ZcnzeYkhlfghQYAeqlRVb3NcgojX1g19uV/mlu15F/g8ibRGlxRn1Nw8gsKf+2h/J2VKSt+n8Y9d9zCKXA5ubn+H0O5Q0BRMtE4G4XhH42vqMMJIDw4nOIu9Xu2s/rr9lVt9qOd4q/MtjUcwgnAOvrcegMndWRlGPMovJTOwd/GeiErVul7T0FkRGibtdJOpdKqlX9wFTgtNlr263Ubp8DNX1z4e3v9TXNfpGYlv69cxyl0UZERnADCR95VT3JS14Otgl/qeD42NZ8ksl+cy0kMb3UxZ5sC6C0+qTQndQx97AVOxrFq3UbaufcQV+r68tsfOenjnjuDn/VWfPjxJzRo9LNcBea6ZldwMq7X3/vY/+PkD4P/e7qrB77/q2nUE89wCp0NJ+NBGMquKG4pj1qK3jFWdWZf9NyS7eZvOQHAhcxbbKzTbqZ+8AF17S3uXblfFuk7s//UQ/89Lz8QL035mo6ftba9uGrWqs1JvFIlEzkFZvPWwrel8/Lz/T8G47knHuAEath3SJ2N/NdeHT77jQDOlFRF3EExl6t8Ka1qzX7eS4Jn9YcXrvkEsCq7Xd3ZsS0b13DSl7Kk6KkJwZ0yEwivV/wyQiN6cEhfTuI998SDnAJXtDchWA6HmHOtw9E1HdVbTve/EO5gADAzke9o1S337/tJQqVasx8p8Jpfhc3u4ARgTRXKl+Gkjm4Dx3DSz5ZtO6nWNdosv1j/53pO+hjQ61ZO2oqLDe3oz0B07hD82dLVG7flFLiuN7TjpJ/e942iCvVa0g09B1JWZgaPms/aNato7wH1ltPVqXUZJwBQy1MddnFSh+qn8QBAcF577glO6sjMyqa5i3/nSnvDHhlH7brfw5V4N/bWd4bxyVGDOVmbWhcxBeLZMfou4alxVTuav7Twssg/N22lWs07+xv/r74x19JS5dSqG+8O/t0ZAPg3OboUJ2NT5bu26OM2aaTxbwQFCFWTxupvtLx7yCPkdqt7pv3FuAry/I3Q97Pm8Ih2XGfcRqs1h9Opyak4Z+rTQ/sNYpUqlOekncQEfY/czM07916Dkf971f+13rh1N0Mfd6tYvnw5Vb8y+HdXzuXv5TM4AYQnV81enNR1xSWZnNRh+Jn97KTGnACsT0SzWKXhdfTJ519wJVbT9rdS1cbtudJem659OOkj1Nt0A/XYg9q/m/DmeG1nhhvUvZyTPtJPXXwj69HjJ6hi/RR/49+he2//C14jUX5dPQY+zJU6Gta5lErEBbdhG8AqbCnBnaKmNcM3+7H3BH/2NIDZtLpWzE2Ujzz7JlVu0IordaWlp1PVRm38DcWBw0d4VB+79h7U/J2MMz00TNsr1OPjtZ/xbqTxbamfvjuBkzls3rbH/4JXeTz0HDiS0n2PDz24XQVUu3kn/69DhB8+eZcTQPhyOMxxx0TIzf6+pxZzEkXbt8UB9PTpO+IaG4/H63/i37VjC4+EZtiox/0/X91ru5DLZZyldj36DOKkvf539eAEakky8a25S5avpjq+x4fyOFE+7hvxkL8JF+nJZ17w/7eqNGpLGZnqnuhR5PYu15EzQtwNogBAVDZOve8VITf7lRLFvV25veVMTgDhQ/RSkJZdB51uPnJzcoq11tjtdtN9o54+/b9TPr7/bQl/NnjKsiW1ly6t2rCNkz60WrffvWMLTtork6zN8o2UZldxsoYZ81b4m/AzH0fKx7vvT6dTqcd9L8g9JBfzCFnlqNkDe7bRwAee+NfPNe3LWfxviDPpBfUu5AKAc3v2hsL7SdQgOZ1dZJcruGMzO15+gn4ZtJYrAbAxF8KU8qQdDg5uWuK/tv/WfsN5RB21Lq1C83/8hCtt3TN0NM1ZJH754crfPqMKFSpxpa0FCxdSr2Firoo/06IfP6Qal1bnSh/Kmv06LbtzBZPGPUS3d7+ZKwCQ361EUo6YJazSgx04BcfhkKhlq6zQZva/6LOBk/pO3r6VE0D4Gf+49W8LVRp9xTVNGlGEU90Lk/7euZeT9j5482VOYunV6CuuayVm/8fZ9G704d+6d+mARh/gLKeStfl+GApbKMeFJUS5Oakv+ZJLOQGEn7533kIOlW/UNZK96xdyKrTsZ/VPC1q8fDUn7dkFn0XvdOh7yaAWS5Xq1KrBCYxA2Tsx+QXx7+YAmE1SA+Pu1Sr6Xh30M9I39/zJSX1eexQngPC1Z/18Ttayf8Micjj+/ULmkvJlVG9gf1+6gJP2ml3VkJMYbVKac9KPXfCL0fdfGcdJXwlJpTmFt01LsYcO4Fw8lUNbaqOFoJv9W644ykl9Upx+b08DGIUk2WjTwq+4Mj+lmVeW7pzvBtZXxz/CSR1t2+n3DXj6a2M5ifHyWHXPTA9GrRrVOIlRsmQSJ/2F85lw8XElTi+5A4D/skdEczIuse81B0nq+xcngPCWVKo8RUea4xzfi9mz/sIz7V27dOSkjqsbNeCkvdi4RKFLXZKT9L/M6L577uAkRlyJEpz017DeZZzCz5blv3ACgHPR6gS24EnGbPYB4B871syjRweLbaxEmjDu0WLPDKo1g2iEmchGda295vyWG8W9c3LT9ddxMoaZX0yjxPh4rsLDLV06YEYfoJjk2Aqc1NWvyUFOoQmq2Z8/RNzGN/nmHzgBQJH7hw6hV599jCvz2LtuPt3RvTNXxTN66D2cAtexTUvDNCgzfA2iCCMH3cnJul599nFOxrH591lU//LwOB1o/fxv6HVsxgUoNinJ2JM7QTX7rWukclKfVD2wxgAgXNx68w20Zen3XBnbbb5fq9J0O4I4UvOBwf0pJibwNZDKxt+prz/HlXXdf29/TvqrVrkiJ3VFRhlzDeyv33xIu1b/xpX11K9d0/+4LV2mLI8AgBUYahmPJxrfYAAuJD6xlOHfWj+wcTG9EuK7ENtXzj7vRt5zUf5MAvn3tfLZW89yUkfpkokUaaA9HItmfMxJPV++/yonY4qMivF/vY0a0pdHrGH5zA/p16+ncgUAgfCWvZqTup7osItTaAz17CjV68cJAC7E32zca6zlHBuWzPD/utTarLS3GEePzv58sqFf/LRKSVG1Of/5K2M1Y3a7g+64qQ1XoVOOZG3R7EqujO3BIf38X3sbl5j7SMrZ30z3/z4qV8UFZgBBq9KegzEZqtm3tTDGucoAZvDg/YP9T9IzP5/CI9rrf1cP/69B+VD7hBibze7/ec81Yz+0X0//5+rWF3uevRp2rZlHS76f4j/CMFi3dm7j//1eUq4MjxjHhOfG0r4/F1KZUiV5JHAVypeljQu/+c9la2ZQMinh9GNAWeJzfcpV/BnjurFDq9O/5rqX4/IygFC5vMZ7Z/lMksPRWXa7i3+L7pJhq6hF9VNcqWykiwMABCot7RTVbXETV+IoM/frF3xPpUol84h4R44dp/+9OJk6XlOHut7Sk0cBjO2nH7+nwWMmcaWv6lUq0c9fvENxceF1qhCAFlzHNpPzU/Unn/LdNop6uB1XgXM6bdQiJSvwZl+eNJuTurzVupCtqzk2HwKYwc29BtPq9Zu4Cl6p5CS66fo29MzjD/AIAATj+59m0bhJ79GxEyd5RBzlnaS+d95CD98/gEcAQBT51HaSPqjDlbqkB4M/5vh0s+90dpFdLi8PX5yoZl/u8ydJyWL+oACAaMu2nbT/4GHat/Mvmrdiq39s45Zt/hM4FDWrlKGmTZtRlUoVqPZl1clmt/vHAUCczVu30/KlC2jStB8oPSOTRwNTqUJ56tHxGurUqTPVvTx8LwAD0Is7fR85pl3KlbpCafYdDolatsoOrNkf23EHPaXSzuD/wBIeAAAAADCZnKx0inmvFFfqUqPZN8SOguwk429oAgAAAAA4m8NpnCORzyWgZl/UrH7kFX04AQAAAACYh9tVwMmYDDGzn1WlGycAAAAAAPNwOiM5GZMhmv3E5HKcAAAAAADMw+22yMx+YrSbEwAAAAAAKGS5+EfY66HYzf6pZy9+dT0AAAAAQDiJKZHAyZh0X8aTU+c+TgAAAAAAoCbdm/2Y5qM4AQAAAACAmnRv9vMjynACAAAAADCX3Ozgbr/Wiu7NvsPh5AQAAAAAYC7RsXGcjMmm9w5iO5p9AAAAAABVSZLk/1H3mX0AAAAAABCjWM3+tJ6bOalLTryMEwAAAACA+VjmnH0R0qNrcAIAAAAAMJ/c7AxOxlSsZr9vk4Oc1BXf4A5OAAAAAADmE+06xsmYdJ3Zt9VGsw8AAAAAIAo26AIAAAAABKkgL5eTunanRnMKDZp9AAAAAIAgZR8Wc5CNWtDsAwAAAAAEyeNxczImyeHoLLvdFz4ySJ40m5PKRro4AAAAgCZkL3nmP0D23W8SOWKIXFn8iQDF1yDKO06ein3I3uY15QYf/gRAmPm6HdGBRVyop/8XdWnaygpcBc7ptFGLlCzM7AMAAFhSfjrRxklE06KI3vM14kUf79vJvmuyv+kPutFXZOwgKkgv/Lne97UTZ/w35G+bkXzyL/4XAUBPF23265cP4RsBAAAAaEb+rpmv2ebG+6NEoj9GEXny+bPakVJXkPRd3cJfx9RIkg/9wZ8BsJ6cLN8LawOzSXjbDQAAwJTcxzYQfVz29Iy6dHKFb9Rgt3l6C0ia1dz/65N3/8iDANYRk7aek7pCWcKjKLrZF8t4AAAAzOYHZQZfIsePDYjyjH2hz5mkuV2JPirFFQBoAc0+AACACcjfNT09g0/HlRl8k8o/Se4VY7gAANHQ7AMI4t70CScAgODl/NSZl+is5BHzc2x4jhOAyXmNf7Ikmn0AtX0QX/j2+vLep2fhPG4cMwsAAfqti//7R8zRn3kAAIxG3jmLk3Gh2QdQmyuTwz/s0yNI/rI+VwAAF5B7onCiYJ/xmwiAcJe75l1OxoVmH0AjUsYm/xP4waWTeQQA4N/kL+oQfVKaK2vLykjlBGBeMYfncjIuNPsAGquwZbi/6c9ZZ/zZAADQyMF5/u8LUuYWHrA+pyebEwCcbeqK0I7dPBOafQC1lbqSw4XFrL7P/+R+8vBuHgGAcCQfXkn0czuuwkeE579LHgGg0JifL+MUOjT7AGrrtpoosTYXF5c8s7q/6ZfT0fQDhCNp1rWcwkt2RDlOAHC2o5kRnEInOZ1dZJfLy+V/1S+fRRtG/86VykbihBKwLu+vd5Ft/2dcFU9+TA2KvGs7VwAQFnwv9kMm2clb7kbal3A9Va3TnMgeQ15bFLkjS1NEZBT/Sxcnp+8hyZNJ2avfodgDU4k8+fwZ9Xn6uchud3AFYD45WRkU814yV+qSHuzAKXgOh0QtW2Wj2QcQascnRAt6c1F83qRmJF3/FUlxlXgEACxrdleivT9ywSKSKS+yAkVFx/pLufS1lN/gaYqKLeGvtXbqxGFKWnYL0bE/fFXhFfwhG6jSzwOgk9SFL1DJdU9ypZ6cAjvFPtqWq+CdbvYdjs6y233+BxyafQAVBDtz54gh6otNbABgID9fT3RwNhchQLMPZveKk4O6NhyKowYTmnMVPKfTRi1SsrBmH0ATwT6puXMKXyh8UoZkGU+MAGAAN/xGco0BXACA2sbNrs5JHWj2AbSiNPySnYsA5R4n6X0bFeBiLgAwAKn1e8o/CwsAMLSLNvsbD+uzPhDAkga4iaKCvzAngi/mkn9qwyMAAPrITGrJKXByfANOACZVIO7o2G83lOWkDszsA2it9zGSr3iYi+BIRxdw09+ecg5t5FEAAO2UuPYlTkGo3Y8DgDmdOPA3J+NDsw+gA6npi0T3ZHAVPOnoXIqZdUXhun4vNrwDgHak8k05BU6qcRsnAHNKWjaYk7re+0O9m3OLoNkH0IszjjfuqrTudWqEv+n3HlzEAwAABhWDC7XA3Own1nNS1/I9iZzUg2YfQG8DvUQO9fbG2H6+rnCJz7pneQQAAADU4j66gZP6PlxluZl9HCUI4Nc3k7w11H1LUFr9ROFM/9yBPAIAoJ6C/FxOASpRhQOAOWVu/JqT+rwCWmNdm315qfq3jgGYla31W0QdfuJKPbbd7xfO9H9ekzJOHOBRAIDQOLZ9zilAbb/gAGBOcbs+4WQOxWr2p69U/y0Fv53qNzYAplblxsJ1/LYIHlCPlLWd4r+vVDjbv/pFHgUAy0v9y/+4/8/H56HNsGf//SGnAJVpxgHAnBzZYibOUt64mpO6itXsf7Ve3fM+i0ipWzgBwL/0z6fUiuKW39jWPVr4ZP9pZSLZy6MAYCWutS8XPs6/rcsjZ8naV/j5IMVlruYEED5yNgb5jlYxLNmVxEldNkm6+AP9162lOAGAVkp2mkI0QHAjnrOf6H277wnf97rfg6M7ASxheoy/iXeuKd59HvJ3QV6O5Q58zb5cErP6YG7Rq8dzMj5ZLtwAoPMGXQC4IOXFuHLrrvBr6X3fEKYVHt2Z/VN3HgMAs3Ad/INoqrNwpj7AJlw6uZRToALfSZjbylxrnQHOJqVt46SufLe4llz3Zj8/L4cTAJyTZPcfz7n3qlk8IFbs0e8LGwbfhzzjOh4FAKORd/9K9L6jcBb/5+ZEXmViQCP7f+MQmJhSl3ICgDO9ubQSJ/Xp3uxHZu/iBAAXUqXRDbx518kj4klHFp1u/L3H/uRRANCL21VA3pk3+x+T0txOvo7fw5/R2JqnOBSfK/48ewcATEL+vAUn9Y36qRYn9ene7Hs3f8oJAIqlf4GvC9eu4S9i+7Ghv8HI/bw+eb3Y1AugpfTN3/gff44PIsl2WOWT7K54lEMATqzlUHzO1lM5AZiTdGQFJ3PRvdm3rZnACQCKbUABedtqs6znbNFZm8g2VdnUK9HxdZ/xKACoLusQ0ScV/I+1hN9v5UGVKe8UNn2ei2JSNv3JgS8Zyo+vzwnAfI6v/56T+tJyHZzE0L3ZB4Dg2Krzsh5Jv4dx6dV3+RsRZWOg/OfrPAoAIZlzS+Hj6nNfo5/ra/hFUt4pDFDqob85BSYyKoYTgPnEbXmTk/rav3MVJzEkp7OL7HJd/C35+Cg3pT83nyuVjcSRfwAh8foeQ1PVv4graMmNyNtlCdkiYnkAAM4n/cAGSvilAVcauWMfUYkgNwR+EE/kyuSieLztviNbtW5cAZjQK+KWz0oPduCkLodDopatsos/s5+RJ/IthsCP7wKAMyhvxQ+UyRNfhwd0dnId2T4s4Z+dzP82pfBtfwA4Td47x9c0JxQu0dG40Zd7HQ++0VcE2OgrpKpdOQGYT3ZmGif1ncgWvwfPGMt4vuvCAQBCYb99M2X0OMqVMUSmLiF63/etRlmW8OVlPAoQpvyX2Ekkze7ga5ozeFAjtkj/pIAUre1FmdnxTag4F3gCGFXMz+JerI6fU52TOAE1+yv3JXBSV37aAU4AEKr4pDL+J/TMUu15xEAydhQ2/b4P77fXUN6hdfwJAIva9tHpr3n/h6zPSVbeG1cR9c/jKnjynpmcii+262xOAOYkHVrGSX2vLa7CSZyAmv1ftyZzUldkppjbyADCWVw33xPsnQe5Mh5b6nKKmtW4sAGaFk2H1+BkH7AG+bduRO87C7+2F93Nozryvfi3lVNnA6C0fCinAESKmSgE0MSBJRzMS3I4Ostud/HX08qTBL1CxyZdAGHkw6tImtmEK3OQr3iCpKuf8r0qEL+eESBYOVnpFLX0PrLt/4JHDKT3SaKoklyoRHkBE4DcO05RdIlErgBMSODG3JrPt6Dtx8WdUuV02qhFSpZxjt70zhnMCQDUJpW/uvCYTns0jxiftGF84QlDvuZC/uFayl7/IX8GQF/y6mdOb66N+TzRcI2+XOv+wse7yo2+vOEdTsWHRh9MzZ3LQQyRjf6ZAp7Z90ycQzZJ0MkamN0H0MZ7yut8QY9jDXgTrybp+q9Iiq/KIwACnVxP9GNT3xNg4GfSa02+bTdJCYIeF9Njfc1PDhfFcPtOonjxmw8BRJE/qEfSqeDulbiYXSej6dJnW3IlRtAz+/ZRBtz0BwCBGeilE/UmcWE+trRVJH1ZrXBJge8jb2YXotzj/FmA0Mg7Z5L8Zb3TX1/0XSPDN/pyuQ7+2Xxhjb4ikEZfcqDRB9MT1egrnpl9KSfxAp7ZV4hat++5P5vsDgNdDAQQBuSpMSR5xb5VqQfvXUfIFl3G910usDXGEF48Hjflp+6imB9r+x4M+pyUExJ7JFG/0E/ZuRjvxlfJ9sdIri7OW/UesrWfzhWACX1yJdHxDVyoT9RFWmcqmtk3VrMfXZbs9+EYTgA9yJ9WIylnD1fW5K7zAOXUeojiS1XgEQgn8sm/KHPF8xR/6DNzNvZn8jX5+bcfochYjdbET/W9qPAG8O6GsmcAwMwEbsxVhG2z74d1+wC6kWWZpKm+b3Cyh0csTrKRp9pgsrd9gwfAStwLRpFj56vmb+zPIndZTlL5ZlyJJ2fsI+nLAM4Cv2MvUYnKXACY0LyhRBumcKG+sk9dR8eyxK9kMWyzLw/yfVOJLc8VAOhi2wdEi/pyEX7yytxIkQ2HkVypHdlshjm0DM5D3jefcjdOoZjD3/gKC79QrTeKqPkELrTj/qk1OY4u5OrCvI4EsvVN4wrApCwwq68IqdmPi3RTxvPzuVKXq9L15OwR+A19AKA+74rnyLZhDFdhzhFLcrmWJNe4l2yXibs6Hc5v99/rqdresUSHFvieLNJ5NAxIdqL++YU/6kHZpFxc/QtwNwaYn8Bmf/3BOGo0sTlXYoXU7CuwlAcgfOT9ejtF7f+KKzgXb6U7yNZwOHnLXE02m05NmQXIxzeSlLOLaNkIouy9PBqmIhKJ7jrke6Gp3/0YcuYBkr6oxNWFpdd6khJSxnEFYE7e9y8lW+Y+rtSn1ay+wtjN/gMFvj8NnKABYDSntv5CSUtu4AqKzRHjP7ZQjq5M7phLyF7lDkqt0I1KlSteE2UFh7Yup0tOfEo5B5ZRTN7u8JqZD1REKaK7DXKUbHE35jqTiO5J5QLApNJ3EU2rxYUYpmr2v777T+rR4ChXKnOWIBp2igsAMJyD84h+bscFqC4ymSj/JFFSXfLGXU17S7SgarUa+l40xJFsj6Z8R0mKio7lf1k7HreLKO8k2b35vmY9jQ7s3Ohr4H8mW84G3yvBzYU3NHusd4yrZmIqEt21nwuDKO4SHpy+A1YgeK1+5Oh2VODRbh/Y6Wbf6ewiu1zBnVSApTwA4U3e9BZJy4dyBYYn+Z5k+F0GskcV/gi6kxOvIOnWP7kykGOriH5swsUF1BtO1Pw1LgDMST65haSPruBKDC1n9RUOh0QtW2UHfoOuVryeMDn6D8DEpHpD/DN6B5vN5REwNOUISldW4Y9o9PUXkVB4660RG30f+ZfrOV2AsmkYjT5YgOhGv81bV3HSXkjNfqcpjTmpT5oq8MpvAFBVhfpt/U2LfP08kmPw2AW4EPmq5wqXvdxt7CMqpYJiLKcd4OYAYF7y9h84ieH2SrRgR0mutBdSs//r1lKc1CdlH/FfYw4A5iFVbkPSXbv9jYy7lO8FAACcltX9QOFMfqPHeMS4sr5J4XQBA6x1WRmEL2nmrZzE+N9vl3LSh2GX8Sikr9twAgCzcXSbWzjbn/IZjwCEn/y4+oWz+L6PEskVeNT4Spxawuk87k71PUnj1DwwP/mvjziJ8+yc6pz0EXKzL3Kzge3wck4AYFZSrTsKm507DXbKCIBAcpnCpW2RPTfwiInsuPALdHfvNKKIJK4ATG72IA5izN+u3/KdIoae2ff76RYOAGBqsRVPz3BSsrj9PgC6sTlI7r7Z/zUu3WziTeuLB3L4L7lSD3JEJXAFYG4F22aSJIs9EObhGTU56cf4zf7OnzgAgGV0X1PY9HdZRFQSjT+YXAff89RAL1F/F0nJdXjQpNy5RJ5zn9SU3+43kjp+zRWA+UXM6sZJjLRcB605EM+VflRp9kWfG+r9rjMnALCU8ilEt3Dj32ySbwBrgMEcvFVvK/y6VT6q3OgbscbXrnf925zOck8mRVbT9oxwAKEEX6ClSBpjjL2nxp/Z97HtFXh5FwAYQ/2RhbOjvubJWx4v8MGAokqT58bV/q9RW/svedBabA3u5fQPT19X4c32ABYhZ+zjFB5Ua/bzXIJfN8gyBwCwOluXmf/Mmio3vQLoRbKT3H1L4ddi72NkL3clf8KinLGU0eMYUXwNOt52lf/3bXc4+JMA1iBNFX8UZvXxLTnpT7UOPfqRdpwEeSuZAwCElX65/oZDbv+Lr/GP4UEAseTmbxU2+APcJCVfzqPhIT6pNNHt26l0df1u/AQQJXfuaE7i7DwZQ7tTo7nSn+RwdJbdbnVmzb2TZotdtdh1BlG1jlwAQNhSTk/4vjnRyVU8ABCiuGpEt20j5UQdALCm9NRjlPCh+PsuRO9lLS6n00YtUrLUXbMfK3p2/wdlExQAhD3JTtR9ZeHMqzLrX7UHfwKg+DwNniJZuQVW+TrquQuNPoDFlZh9Gydx+n1Rl5NxqNrs54pet+/jXfcWJwCAQlL7r083/keuxYZ+OL9DV3xAxA2+vclYknALLEBYkHNPkv3wMq7Emb7SeDdlq96d3/lJfU5i2BaO4AQA8F/l6rQ/3fgfbb+JCuIb8GcgHMmJ9Sm358nTXxOXNL3b9+oQDT5AuJHeKcdJnPQ8Y747qOqa/SLyJLEza6lXPkclU8RvsAAAizm8mGhWm8I1/2BNkSVJ7ryYpGTjvZUOAPrwzLiD7Du+4Uoco6zVL1K0Zl9Is68Q3fDTSBcHAIAQLOhDtOtLIm8BD4BpRJSkY40/ojL1cS8DAJzbqRVTKOn3oVyJ88APtei1xVW4MgbzN/uSzfcnm88FAIBKDswh+q0Lmn8D8pZuS1LT8SSVb8YjAADnl5l2kuKmi1++s/VYLNV+4VqujEN4s9+/6UF6//bNXAnygO/JGGsvAUC0X33N/8G5vm4TEwyaiSxJh+q+R5dc2Z0HAAAC9IqTg1hGW75TRHizrxA9uy/HliNp0H6uAAC0U/DnZIrY8gZR5jYegWCllr+Tkur2Jgn3qACASnIWPUYxaydwJc4vW0rRDe815spYLNHs+w1L8/1uYrkAANCRJ59yFz1N0bsnEnndPAinRZWm3Js2UlRcMkk40x4ABDm+byuV/lbs6ZBFjDqrr9Ck2Vdo0vBjsy4AmERWxikqsWc6yX9/QlLBcaKcA/wZE4suS+mxV1Pc5beRXPMOstvRyAOAPuTcEyS9U54rsSqPS6H9aVFcGU9hs58pvtnv1/QgTRW8dl8u35yknou5AgAwN4/bRfaCU76QTYd2b6ayh74me/Z6otQN/G9ooOQV5ImpT4cS2lKleq2IHCXIG5lENrs2a2ABAILyqq/51uh4ZSPP6itON/tOZxfZ5fLysBhazO57h+f6noQwmwQAAAAQjrI/aEaxp9ZwJVaX9xrTrC2luDImh0Oilq2y1L9B91x++zuZkzi216M5AQAAAEA4kRc+pFmjP2dbsuEb/TNp0ux3fPdKToJ92YoDAAAAAISDgrwskta9xpV4Hd7RqK9VhaRNs6+o+6IGlw0c+p3kTAtsdgMAAACAi1IOPYh4O4kr8Yy+Tv9cNGv2/zoaS/lu8f856f1qnAAAAADAykp8UJGTeC8vqMrJXDRr9hVRD7fjJJbnDfF7BAAAAABAP653qviavgKuxDqUHkkPz6jJlblo2uxrxe7KIHnj+1wBAAAAgJV4v0ghZ+4hrsSrMNa8+0I1b/a1WuskzR3s+6e4+wMAAAAAQHtpv4wg2+HlXIm37mAcJ3PSZWZ/8tLKnAR7JYIDAAAAAJidd+dMStz6FlfaaDyxOSdz0qXZH/7d5Zw08ApuewQAAAAwO3n792T7qRtX2jDj6Ttn023NvpZ/eN5VEzgBAAAAgOnkniBp5m1caMMKjb6ypF3XDboH0qI4iWVb+hhR5n6uAAAAAMA08lKJ3inPhTbeXa7dkZ6i2WRZv02slcalcNLA+9XJ++e7XAAAAACA0cm7fyF6uyxX2vho1SV039d1uDIvSZL8P+o6s6/Q8i0S2/xhRO5crgAAAADAsDz5JP1wExfaufvzepysQfdmX3OT46kgDw0/AAAAgGHlnSJ6vQQX2kka04aTdRii2dd6A0TE2/GcAAAAAMBw3i7DQTuxj7altFwHV9ZhmJl9zXc8T0bDDwAAAGAk8uGVuhybvulICcopsHNlLYZaxlPnxWs5aUBZuz85gQsAAAAA0NWH9Un6QsNekCmbceu/dA1X1mOoZn/L0Vjar9FxnH7uHFy6BQAAAKAzedt3RKlbudLOjhMxljpm82yS7/8Mt0G38rgU0vw0UDT8AAAAAPr4YzxJs27nQls1n2/ByboM1+wrSjzalpOG0PADAAAAaOvdCkTLx3KhrcYTm2k/wawDQzb7OS47/bBR+13Y9GYpDgAAAAAg1JslfU3fMS609dna8rTuYDgc1iIbs9lXdJvekPakarh+X1GQjhl+AAAAAIFkj6uw3yrI5BFt1XvpGrrrk/pcWZvyxoVhm31FtfEpnDSGhh8AAABAdbl/fUfS6zFcaW/UT7Vo8xHtL+vSk02SJI7GpPn5+0WUhj8cFnIBAAAAaCDvw6sp+jd9NuIqPl5TniYtrMKV9cncxxp6Zr+Ibg3/qxEcAAAAACAYBfl5/knUqNT1PKI95WbcPp+Gx9Kds5mi2VfoNsmOGX4AAACAoLhdBRTxdiJX+kka04ZTeFHW75im2beN6kDPzK7OlcZejSDv6le4AAAAAICLcX/clBxvxBLJHh7RnnLqjm4rRAxCcjq7yC6Xl0vj806cTbpuMxjp4gAAAAAAZ0s/dYwSPqnh6/ZzeUQfH6++hPp8Vo+r8ONwSJTSKss8M/tFlBl+XeGkHgAAAIBzch/bRAkfVNC90c8usId1o38m0zX7Ct3fjvE3/FjHDwAAAFAkZ94j5Pi0EVf6yXfbqMSjbbkKb0q3aspmX6F/wx9Bh379HxcAAAAA4cnrKjxtJ2bDJB7Rj8sjUdTD7bgChenW7J9NnjSbk37kfttJSqjKFQAAAEAYUJbqTI7nQn+frilPvcL0eM1zUdbstzTjmv2zGWGHtTTtMt/LWv12mgMAAABoyTujp6Ea/Q9XXYJG/zxM3+wrDHGk0mtRJL9/KRcAAAAA1iNnHvAv2bHt+JZH9KfM6N/zOTbjnoupztm/GEPM8GfuK9y8i0u4AAAAwGK8r8eR9H41roxh+krM6F+MTbZQY2qIGX7FqxFE6yZzAQAAAGBe3gPLCmfzPXk8YgxXTWpG/b7AjP75SHwxleRwdJbdbmvNRBth024Rue/fJCXqdPMvAAAAQJDkVF8P86Exm2nDTPAamNNpo5YpmdZs9hVGavj9Bh8liirJBQAAAIBBFWQQvZnMhbF4ZYnso9pzBRdS1OxbZs3+2Qz3iu/tsiR/2IALAAAAAAN6I8mwjf6q/fFo9INg2WZfYbSGX0r9q3ADb9ZBHgEAAADQlyx7C/sT5cOVxaPGctcnV1CTV5pxBYGw7DKeMxluSU+R5k8TNXuCCwAAAADtyF4vuT+6kpynNvGIMSU+3obS8xxcQXFZfs3+2e675gC93eMvrgwmMoloyDEuAAAAAMTZtX4eVV/QyZeM3/9hI27wLL9m/2zv/F6Rpq+swJXB5J/yv3UmT6/DAwAAAADqyks/6u83qi/o6KuM3ej/trUUGn2VhM3MfpH65bNow+jfuTKoUvWIeq/jAgAAACB4eV/fRFEHfuHK+Mo9fR0dzYzgCoIVdst4zmbYdfxnyK7Zj2I7v8sVAAAAQPEUnNhBEV82LTxG0yQ8XokcD+G0HbWEfbOv8Poa/sK7xYzNExlL9iFpXAEAAACcW9baaVRi0b1cmQuW7agLzT6LdHgp76W5XJlDwZAMioiM5goAAADCldfrIfr4KrKlGvtEnQtBky/G6Wbf6ewiu1xeHg5fZljWczZ323cpq8INlJhcjkcAAADA6tJOHqWILdMoZtVTPGJOh9IjqcLYVlyB2hwOiVJaZaHZP1Pui/Moyul7hWxC+zoupsq1m3MFAAAAViLLMmUufo7i1/6PR8wt4fE2lIGz84VCs38eg6/dT2/dsoUrc8puM4ViG/TlCgAAAMwoJyud6Le+FLNvBo9YA5btaAPN/gU4bDK5JszhysTskeSRIsjucNL+ZtOoUqPO/AkAAAAwkoL8PJJXvUyRG98g2VNAkiuLP2MNmfkOqvC/Vr4f7TwCoinNfks0+xc2redm6tvkIFfWICfXIWozmTJialFCybI8CgAAAFpRGvvc7HSiXbMobs+XZNs/nz9jTZf4mvzDGZFcgVbQ7AfAjJt3AyFHJZMruQFF3PYbjwAAAIAaMk4dp5i/p5J9/eskuXOIXNn8Gev7fF05uvPjK7gCrWEZT4DmDl5NbS9L5SqMSHbKqDuS7M0eodi4RB4EAAAAZdOs1+MhT/Yxytoyk5J2vE/ScdyAr8C6fP2h2Q+S1Wf5AyXHVyFKrktuVz7Z7U6y2WyUm5NF0bFx/G+cm7fs1WRL3UrkyiRvxTZkO1D4FqZcohJJWfsLc3Qpktz5/n/nQrzlryXb4WVc/Ze3zFVkO7b6Xz83AADAubgL8knyPZcp59crjbyvbSV7ziGyF5wkKe+E78mp8N+Dc7v36zo0ZXlFrkBPaPZD8M3df9ItDY5yBQAAABDe9p2KoirPpHAFRoBmXwVrRy2nRhUuPOsMAAAAYGVYsmNMaPZVpBzTqRzXCQAAABAO3F6JnA+15wqMqKjZt3ENIVC+2MfPqc4VAAAAgHXd/93laPRNRHI4OstuN2al1YINvAAAAGBFnaY0pl+3luIKjM7ptFHLlEw0+yKh8QcAAACzw5p8c0Kzr5GqJXNp9xNLuAIAAAAwvtEzatLkJZUp340V32ZV1Ozjb1CwPanR/lfEw76rzSMAAAAAxrThUBwlP9GaJiyoikbfIjCzr7EudY7TjAG4XQ8AAACMQ2nyG0xozhVYAZbxGADW9AMAAIBevLJE9lE4Vceq0OwbRLn4fJo1YB01rpjBIwAAAADi9P60Pn2ypjxXYFVo9g3oxS7b6OE2e7gCAAAAUEee20bRD7fjCsKB0uy3QLNvXGnPzaeEKDdXAAAAAIHZeiyWar9wLVcQbtDsm0TpEgV0bNxCrgAAAAAurMxT19HxrAiuIFxhGY8JfdXnT7q14VGuAAAAAArVe+ka2nykBFcAaPYtQdnUu+bBP7gCAACAcPD4rMvo1cVVKNeFc/Dh/E43+05nF9nl8vIwmNmCIavouhqnuAIAAAArWH8ojlq/eTWl5Tp4BODiHA6JUlplodm3qpvqHqcuvo+BzQ7wCAAAAJjFTVMb0YzNpbkCCBya/TDzWe+N1LPRYZK4BgAAAP3tPBlDV09qSqdynTwCoA40+0BDr93v//GNW7b4fwQAAABxhn1bm/4+HkNztyXzCIA4aPahWPJfnsuJKMKOrxMAAIAzFXj+2SRb/6XmtO14LFcA+kKzDwAAAABgUUXNPs5sAgAAAACwKDT7AAAAAACWRPR/M0IvbnZL9sUAAAAASUVORK5CYII=;" vertex="1" parent="IYNB7ZwwtuiIuKCf3Mfz-33">
          <mxGeometry x="233" y="4" width="57.43" height="35" as="geometry" />
        </mxCell>
        <mxCell id="IYNB7ZwwtuiIuKCf3Mfz-34" value="" style="swimlane;startSize=0;strokeColor=#FFFFFF;strokeWidth=3;" vertex="1" parent="1">
          <mxGeometry x="502" y="50" width="408.7" height="470" as="geometry" />
        </mxCell>
        <mxCell id="IYNB7ZwwtuiIuKCf3Mfz-36" value="" style="shape=image;verticalLabelPosition=bottom;labelBackgroundColor=default;verticalAlign=top;aspect=fixed;imageAspect=0;image=data:image/png,iVBORw0KGgoAAAANSUhEUgAAAQ4AAAEPCAYAAACz7SoAAAAAAXNSR0IArs4c6QAAAARnQU1BAACxjwv8YQUAAAAJcEhZcwAAFiUAABYlAUlSJPAAAF+ESURBVHhe7b0HeGTXmR14XqqEnNFodGA3QzPnIJEiKZGimESKFJVHEkcjSxM9n3fWHq/n25nx7md7PV6P7ZUle6zRKI4ilUhRiZIoRpFizk02m+yEBho5V3hpz3kFjCiyA9AoFF5Vv/P1awCFwqt37/3v+cP973+NzccdHyJBggQJlgFz4WuCBAkSLBnGSdtODV94/pmFHxMkSJDgyIiIY/sLzy78mCBBggRHRuKqJEiQYNlIiCNBggTLRkIcCRIkWDYS4ogpwlBXiEBXEJQvfq/XdNUbFtt1rLS31pEER2OKmUIRpVIJruehWPKi13KZFEwDyKbT/D7NV/hDXSDEPNubLxZJFuD3pejVdMqGY9tIpVJoyjh8JdFzcUFCHDFCKQCGCwG2T/sYnC1gKl/CnFvCPInD5YzK2BayjoXWbBpdDWl0Zh1sabDQTQ6xzdqaVB4JYqLoY8d8gOF5FyOzRUzmSR6uj4LnwyFD5kgcDU4KLWznusYstjWzrRkTqYQ/1hwJccQCIcZKIZ6d8fHkpI9nZgJMFj1OoAAl34frB/A50SxOGIcEYS0QSHfawsasiau7LJzYaKPRrg0LZJ6N2T0X4O4xF8/NBhgs+JhyA1pXPqzAB5sLi01x2OCUZdHqMJF2bJzaaOLcFgvn8OohgdSLvVWLSIhjTRGSEAy8Mu/j/gkP94772CcN7Or1hbccBEX+jnMLDSSSHDXzxW0WLmu3cXqTiXWcUBnNuhiiSCIc4cNvZxt/NVFu8zAJc5qN8UgD4r0s++T1kHUi56WLb9iaM3F5h832Wjie1pZct4RAqo+EONYIfhhitkgT3TPxnWEftw272E03pUszYZnQxDuNLHIVJ9PbOm2c0EiLJGbkUaSr9cpkHg+MB/jFtIGnaWkcDWiMoTdl4IYuGzevc9BNv6XVMSILJUH1kBDHGkABwBn68vfumcRPZx38as7EKK0MWuJHDU0o8gUub7XwiY0pnNZsx2Yyqb2vzvn4/Iuj+MmkgWErCxpHRw1xTpZtPZMd9q5uG1d3O2iiO5OQR/WQhJnWACXOpH154BvTaTw6Z6BIv4QW+Iogt8XgBH2cDPLfd5fw3LSHwuH8nSpBAd9dJI1/2FvCXcUGTNjZ6FlXAvWVxaa9PBfg60MeXiSTxKGtxxIS4qgyip6Pl2dKFHgXrxQAzqnIq1/pQCz+/ZwX4qVZD3funsbemUIUV1gruL6PwZk8frxvDo9NeVFb6VVUrK1FNm0/3bvb9rt4emQa0/niwm8SrDYS4qgynqeW/MKAh5+Oe5ihlqz0tNb9Jj3gR5P6LJr1nKxrhXl+9kv5EHdNhBh2+UIYgh5GxSDCJW/g19M+PrM/xKOzhw8qJ6gcEuKoGrTkGuD+yQDfGQ0wVFSW5MKvKgwXBnYHDu6foptQCKPAZLXhckIP0AB4dMbEDtdEaZUeQU0bc0P8ZNrCvSTLwbyYMmGP1UZCHFWCT7P9qakSHqY5MEfNq+DgasXyNKi6/z0TPh6gZTNI8qg2JsgcT9ASuHeyOiZPlp35HN2hx8bL2bYJVhcJcVQJ03N5PHpgHq9Muke15Ho0GKAm/v6Ih4emqu+vvDDn464xF0/TNasGRJQDc14U6zgwTlMrwaoiIY4qYZRdPWXa8K1KevmHRzNH98V8gB1rYL5rpeMFXnqGaqFgmhi3GzDuNC28kmC1kBBHlTAZOJgJLFTTiBZFaWPpxOw8hiaqp4UnZ2axb6YAGhwVDYYeCW5oYDowMeElYr3aSHq4SpjzDMz5BoV74YUqwTIMzM4XMFxF4pjOFzBTcqveVn1cgcbVfBLiWHUkxFEllCjQSoZagwWOaMmySqGGCLMkjjyJIyRpVRPa06JdxLoSrC4S4qgS5DJo7lZx/kYw+MF+KgMv17zwyupjZj6PvEs/pcrEocWjOV5rmPN2zCAhjipBFseMzOg1EOrAScNPNyz8VN+Q1VEUWS78nGB1kBDHMQFp/upq/wT1jYQ4EiRIsGwkxJEgQYJlIyGOBAkSLBsJcSRIkGDZSIgjQYIEy0ZCHAkSJFg2EuJIkCDBspEQR4IECZaNhDgSJEiwbCTEkSBBgmUjIY4ECRIsGwlxJEiQYNlIiCNBggTLRk0Sh+q06OSu4byHJ6c83DHs4nMDJXxqb/n677xuP+Dicf5uIB9gXnutEySoEnS2y3QpwKuzXlRl/uv73UgmJZuf2efii/z5B5TPZ6Z8TLthdLJfrdUeMmrn7FhVdgLIA1Fn78370TGHz80HeH42xMuFEJMaMf7TGaJn5kyc2mhhW6OJ0/j1xIbyKe4pUqUus8pFZu4YcPHZQRdPz/orOiN2udCZsm9us/DJfgeXdzgLr64uHn5hBz4zlsbdQQeaq1i6SGfKnsRxv7XXxns3pqta7zQIdX5N+TyZCZLGiySNZ6cDPDMf4jk+2Kt8TeTgWCbaKIebUyHOoFy+ud3G5qyBnrSJJitEygjh2HryeJdBsDo7u//6j//4Dxd+jCciC4P/6XyQ7Zx49455+MaQhy8M+Xh2LoSKeKfZz02mEV0NvHSC2VNzAR6d9rGHbOPz5wIH1+VXx+Tg8D3VJI+XOIMfpwAdKEk4Fl6sAnQQ0oasifOaLWzOVWcqDYyO45G8jV1hDukqVldXWzsdA2eRmU9tsatiTqt1HmVzkoyxe96PzrO9j/L5dcrmneM+dubD6DkaF2Qzx7E3KYcq5Pwo3/vrCQ9jlGuVOww9F4ZXRDrlwDLNWFNHFXXf0UGkMc1B+TGJ4lOvlvCfXi3i72nqPcKJ2M55oEvnkR4M0uzSsU9xwv4NzcS/3lHEp1+Zx537i9irg0wTJFghRBovzPj4Ol2Q/7izhH9DGfsUrUsdS5GhXB7KupTMtvJ38qLvp8vyWf79375Swhd3l/AgWaUkTVdF0l0uYk8cebofL5GZv06f8GFaDwMRO9PC4O/EF4dj5cXfqZE6yX2Co/TYHPC14QB/u6uE7w4WELrJQcUJjg6zlM3b6H5+mpP9jlEPL9FtnqWM6ST9RWdjKfKpavCSzWdLFm6fT+OrtFZeoSWtiu1xRYyJg+Yf/UIdmfilfSXs5KBMsXPVyepw+3Aj8jqokTYvWS/yg/cWQzwwFUTuzreGAowUgijYqt8nSHBoSEbkGofYS3n8MuXyG0NudOj1IP0kxd8EyeZyJ5bCc6XQwJhn8H4hvjtMIqKwzusXMbQ8YkscsyUPv5oo4st0S+6f9KMS/5XqvohASELPzYb4Jq2Pb3Lwfznq4qUZD1NkpmisEiR4DaSwxooBnp328MNhF58fKOHblJvttIbl9VZC6diUcIfXDAXwh2M+buP9n5t2UYxh2fbYEseeOQ8/4gD9YMyL/MBKQwFKKg+8yIH/HDXH5/cU8T0O1CO0cA6QpVbjMxPUJrRcumfex73jHr4y4OJTe1x8ll8HaLnKkq1ksFsujg7QVkD/m3TPfzHiRhZx3BBL4tCkfXLOwo6CxU6s4KgcBOIHHZT0XB74+gEP/7C3hJ+RsIb5olZyfLJLwiHHHjTmGvuyW+LjTiqVT5MwvkQLdUcRaOHMWa01Kkm8ztzVURpPzRl4bq4yFk0lEUvieJ7m4K+p+YdpGuoU8mpBhPUCLZCvkED+yytF/IDCMjBTQMlLzhQ81lD0fLwyXcQ/7inhv71Sik79HymFaDdDtFQpN0WyP0oFtoMyKRc6TogVcSi2MFrwcRcH6YlZdhZ9x9W1N94IjY8I6/4JH/91r4s/eDmk0AQY5WvxMxgTVBblfIpXOVG/sN/DJ16iS0Ll8fBMgLGF2JcmTLUmjWR/H92h+zgRfjXuxkr+YkYcIf3GAE/N+pjgQK2WKXgkyPKY5n+D9C23k8BuG/Lwjf0uHpvwMM7nk88bL/5PsBIEHM+ZYgn78z7uGXXxxX1FfJtW5066CKO0MrTsulYxL5HV3nyAh6jIJHv6OQ6IFXEomWYfzcMBTlhp/kMldlUD+mgFqbKkiOdnfNw+7OI7JI9fjHp4ZLSI3bPewlJZgppFEGC25GMHx/L+oXn8gGTx7UEXP+EYvzofRHEGycAaimE0B6JcJpLHvnk/Uq5xQGyIQzrc9X3sm5iL0ndj5tJFEfRfTHr4x4ESPr+rgDsPuHiZApf3EwemVjHjar9TCd+lO/KVvSX84/4SHpoOojN+lfUZF1D06CoF2DtbpHKVvK395IgNcQShEe1i3TOTj04dD6u8CW0p0Hr9dj7cnXMWvjTk4/sUOKUbSyNEew0W3pcgvtAYydWUtfjUrIFvDAFf4Vg+FWSj5Ku4KSxBe3CkTMen8zSS4qGoYkMcfsAJWCzALRQQcmDjCsVd2vifBO/rwz7+dHsRf/7cLH68ZwpzHNwYP/oxjYgw+J+C3N/aOYVPPjmDf/FiAT+aiP+KmZSonnKmVIwU7No6T2XEJ8bBQVU6bxgTH+5wUKfpKeWljFMa758O8TdDBv7r7lKUQBa3pbNjHRqNYdr7Pxl28X/vKOKzIwaemS9nD4c15GlqbqgtcZCu+BBHDUJ7EsT9c76BPUUTt494+FoUQHWxfbKAsVlKZyyG+dhDRO6ei/3zHp4kmf+YpKEU8Qf5/YBrokjNLetxOXue4oEwBvZGjIjDNA1kbBsNKRtWDOMbh4Mi3428pNXuo+n7nSEP3x0o4u7hInbMKBK+8MYEqw4JtC65kk9OubiThPFNkvkP+PWJ6fKeJ9VuWaul/qOBZoOet9G2wGlCrL1AxYY4VLikKZtGV1MOTi2N6gI0nqq9QBcaT5AsvjMGfPmAia/v9/DirI9xui9aSisPfILVgPpWMaYRF3hkysff7+cYDPq4c8yLMoJrlsApNyo81duY4TyRAK29EMWGONQVlmGitSETaXCjBmIdh0OeXbu9ZEblAv/ixQKF141KHqoCVILVgfpWy5ZfO+DiXzyfx3fH/KjiWq0HrCUyjmWhsbmR5BgPrRob4hDEputaGtCTtpCN1ZMdHeQ/ywrZlQ/wMq/pxGdZdcji07Z07UTXRrTai2G8ESqHeCZZsSdlxcaNj9X0TJE4Tm5J4cxGCznLiPI5ahkaYnWwFlm0AzfhjdWHulgWhr5KN9c6b6jwdn/awAUtFtbnTNgxmbGxIg65b11pE+exkzZkjLrQFgkSrARy2zdkTJzTaqOBEyIuUyJWxKFOEVmc0Wzh3CaLplk8M/kSJKgG8pT9TirS0zgfjmuI1VSNF3Es4rgGC5e3m9hGv07uSoxrtiZIsCqQzBd4nd5k4s2tZuS6xwmxJA7h1IyHc3IeSLZRXY7E8EhwrECyLpk/PWvi8qYAJ2XipzpjSxyN2Qwu7c7h9/ocnEUzLWaEmyDBqkE1TK9r8PDJPgvntGdg2KmF38QHsSUO0zSxqcHG9T0Ofne9HR3h6LNDtVEpQYJ6xDxlu0h746wc8F6SxpvabXSmaXLHMJM6tsQhyK/bTMK4rMPB+/pSuKTFQr8TIpMU8UtQZ5BMb02HuKbTxof60zi/M4OujAUnpjM01sQh2GTbroyJa7ps/M46B9e2hjgzF2J9unyAdOLBJKhVSHabqByPy5q4oNnAzV0mPr4+hSt7UmjNpBbSy+OJ2BOHoO5rZAdfRvL48HoTH11n4Foy8/G530SbEw8mQa1AoU7Ja4tt4OwmE7d02/iDTWn8Tn8GZ7TopJb4oyaI4zcw0NPShEvWt+Bj7Oi/2JrG2c0WAjJzrWeZJjh2oGNIS9R3b2uz8L9tSeN9/Smc1pZGU7o2SEOoMeIoQw/dQEvjhEYLf3pcGp9sKeDSrIcupdklSBBj9NLFvrktwP/VF+DjVH4baDWnKcu1Jrk1SRyC3L8sO3wrO/5dGxvxx8el8PHeAG9p9CNSSSgkQRygYxWUAdpHwriuw8QfbHTw8c1ZXNmbxfosSYOCXIuyWrPEIajDFSDd1JLBOR0ZvKM7hXevS0WR6ROzBgmkxhuYoKah7RPt9D7OyAS4pdfBe/pSuLLDwektDroaUjWdm1Q388owLXQ2ZHBJdxYf6HNwXbuBi1tMnNRgcvAS+yNBddFBt/kUyt5bWw18sNuKSOPsVgct0nR1YA/XnULOkMZPbDRpeVj4w40pfJQkcmGzVl/K29uTGGqC1YDkSqslupqoqN7SauHWPhuf3JTGDZsa0EYiqWUL4/WoS0veMAw05zLY0uTgym4H7+13cFGbiX10ONfqKL8E9Q0ppQmyxgQsvJfu8sc2pnFFTxobGpwojlFvqNsQgIZK46WI9alNNv50UwZfOTWDq2g6djrlAikJElQCkqXNWQOfXG/hu2emI1e5P1veX1VjdbeXjLoljkVo3KLUdfoqb+tw8HskkI+sT+G6TjvyQRMkOFoodKYErvd1W/i9dSY+0GPgPP7cs5DVXM84ZmaO2L+FfuZZrTaupfvyPmqF6/n1NBUFJZK6HwmWAsmIznJVTdyLWizc1OPgFromV3U5OKnBjqqR16mR8Vs4JlVub8bEmS023tFl4z0c+HNVz9EJkDHCSDCSOEiC10Myoa2VjWaIEzIB3kwF9H4qn7dp6b/ZRlvGgWHTBz5GcEwSxyJ6SCA3rHPw709I4Q+6Q5zZQMGg/Rkdz5kgAbG4D9vgTGmmxfrmJuDP14X4N8encQld39Z690kOgWOaOASZluuyNm7e0oLPnNmE/0CBuFxlxxIc8/DodIzDgslZ8i5ap//t5Az+n9OacHF/C7rT5jFdTPuYJw5Bqy86mkFB1AvabNy6MYX3UFDOzIZoVPZpYoEcU1CKuK5W08fl1hw+sc7CB2iZntZkRdscbMUxjnGZSIjjdZA5ejotjlv6bHyQAqMEsm1afaGgSJgS1D90ANLFrSY+xvG/dZ2J67rtaEOl9kAlKCMhjoNAcY6TSR6XdKZwY6+Dm3scXNpqozdlYIpOrwikpmqQ8XmreaJmwA+rpRM8NZaRlUHtcFzOxNUdNt5HC+PG3jQu7s1GJSxlaST4DSpOHDqtTKeWFYPwty69FkWma0SgTMNES8ZBX9aM6p7+Xr+D6zttbKT1oX0IGfZcLbBuSJva8FxYxfzCK6uPkGMd1ghzKE7RzP/WpY1oteS6TjNK4HoblUZPg4OmXC6qf1sL0NzSHHv9/NPPymyt5EmCxknbTg23v/Dswo9HBz2PHkrXBJ9whpceWA1ZhDI4G+1yJa+sVQ5K1haHh5hiu16cDfDYuIcHp328SjWl82DV7ri2ZZr09jZrHH/UUcT5245feHV18cj2l/HpsTR+4bejOca2mUijm1akjhx9U4uJk41JbGxvRkM2w9/WjnRqnokY8hTEGTLHnE/ykFAuIMU5p8UfuVptUda0EcXtVtLCihBHiU++bz7ArkKI+yc8PD3jR9/vf83DH0ctfR7NwLOaTPqLBs5pT1FrlxtQK1BrdJixR226P+/j9v0l3D4eYGfJiO0EmeZj3dAwjz/tC3DC+nULr64udgwM4r/tN3H7XA7NMVbWJ+QMXN/l4Ca6JTpe0eIIa1Jpr1OtQFNsimTxNBXZU5MeHufce27+t+feehLG5oyBs+h+X9luoZ/fd9NklvI+Wvo4auIIvRIGC8DOgoHdJI1nqImf5NfI2uBD5ymwyrBbRJbPFxUtoSA1p4Cb2m2c3GRhM12BXjZEcYVaYvlSQKKccfH0eAGPTod4vGDjCba/jW3UuRhxwTT79KNdAf6PjSZyDY0Lr64uRqem8O92B/jauA1a/rGBjtaYIum/jRPoHDLaac02TqG1sYEyWEsKTCpsfL6EfQUfu0s2Xpr2cMdUgEmX1gfnntyV1849emHRKpAsj3WysKjAL2izsMUuoD9ro6Mxy3ctrwOOmjienizh3jEPT80B4xyRYV18YsnJobIgogbxK5+f/iRZL21GDRETXsSGaD9J7YAESfNjuuhhsBjgpaKF+yZ9PD7l4wBHTeOmAVtL6JyO9ezjj6+38RFeqllSDRRdF/9zr4svDfpUIgsvrjEkWv3Usqe30C2hvG2htSH5a7Cpedd4nJaLJ2lZPDBWwnb6JKO+iXHK38ucWLJ507wiHfw6aO6RV8ruGf/byPb3oRSd03xhdwNOVN7BMmB1dnb/9R//8R8u/HhkyAJ6adbHD4Z9/HzcxwtzAUZoZRT41ProwykYsbq0sUqykiQ54ULs5h/uJemMlMhi1AYddgDbNGvAXNR6PgUvZaErY+M4SuYWCqbcLxoemOeEeW2MZy0gQbmChHxlp40+apZqwbasiDBGSnTj8uGaJ0q18gHOoHV7XTfdEl6n8PsukoZWSuSa1AI8CtMY54qU0/eHPNw9EeCFeWCIc4jeSUR+mluHspz0ut6jOaq5Oso5N0CyOeApU9rERsruck7DXxZxyNQbIrt9a8DFXeMeP7isWVcCEdFu3udpktEw/ZvNjk+Tqmw6qhFmDRCISE7+ojTYyWRurbjIXYui2X4Af5lmYKUga+7mXgfnt9pRgaNqool9MEs199hMdZdmpXUlU2ouLfJoTM4lUVzb4+AqkoZOfy8ncKk/4i5b5XialNABuiUPj7v4DC25B6eD6GzZwynpI0FD4rL9YyQOBf3ZRVhHwVUipObekbBk4tCADJM07hgq4VsHPIwrjFshyKTX9qBJCtpwQRvNOLABCcQIkbYtDnItDHEZmqD9bNBxdMUaODwj8y5cugjqv2pCQqXl47d2OlFR3Gr3n/zpkJ86JYuyAgpmqZBy45yKKm6dSOa4kYSh5fQz6aLUUgKX+kuB+FG5wTMu7qei/t5IiL2cH2pFpaw4fY5WYnbRMlSdmnUk1qVUXV8ycUxyRB6mmSTfdYaUvhqCIE1xgPb103MhdtD+muBn6gi8DjYminYvvC/uEGvr9Lnjc8CJGR+ntqQjd04DJF9ztWFzdDpCDzd1htjWbCPnLM9/rQSktdJ8jjQpc0+BwsnB1fiuNrpI2pfQwvrdPhvXdwAXtDnozVo1VU1c3TRNQXmIZPGNPXl8c5BWxgxdP8rQavShlNo8LeNXJks4s91BO93vIxHTkonj8Wkf/2tvCc9zUuumqzUI0hbywchR2EPi2DMfgsYH+qk9HJFHDYy+nlFEJ+ujI+tgc85GD8lvlAO/hxpjhu2TZpTPWenmyPw06Opd22bj7b0pdPGz18aPl/tWtjz2zAZ4lOMooa+UplyEhF79ORmE6OIHXtlm4APrLJzV6qA7I9LUZrTaIQ31kaz5b+8r4I5hLT6EGPW0SmKsqtWqDX2DnGdaFVQQuf0Iu36XRBzPkTS+R/fk7nFN69UR+NdDnpCCPmP8RkHU/coLKfrwfQ8ZaTK5MAvvjSsUn0lzEuc4WzopwOvovvSbJXQEBaRS6Tckya0UGhelTN9A0/ydvDY12tHnrxUi8uTHt5l0PumuSYvmyyJUEcjzUNbnKU0mLmnwovOFr+xOR3GmJmlNWRlrQprLg6zQA7N5PEmN//MJ4GdjHn4yWk4wnCNbBFWSdJHHAOcbdU50NnOjfWjZOSJxjJcC/HhEDfEi5suxDdUcCmlmLfW+NE9fj9dQ3otYuZHEodwPmcS1AFkfm7ImTkoH2JwKsL4xE60iiSAlHGqnJsLRgLwa/e0WksY7tM+i18FWTiYnBqnSshL70iE2ZG3MUX7GOUukENTeo7U+1GdaATie/XlBq4Vruy28ozXEm9tS2NjowFlDslwO2AwUKMyv0CK7Z6SAH474uGsyxFNU1IMl/pL9U62WaCikeIZcWon8vk9Kji7eoWTyiMTxzJSHn5ExtOxavQW9N0LCouWjl/IGiURZfuVDe9X5Dv+PGhh77WIgm3LQ15zFyZzYvRwpCcYM/csCTQ+Z1HLTZJKKEA/VGv1e/SHlTQ8IGYNERNV+JUlDS46bGmSNxaQv2CbDsqPlz2YKkFKhRR5addIzivT0qIebIHqLlIXGWBZMxgyxrcHAdV3l8o8ij65cBikqk1pAEHC8vYAuCbCD8+ondEl+OBHi0TkDEyRXTeBoaXXh/dWEEjUlW220kLfmysr5YDgscYSh9mX4+PV0QAYsR3PXElEOCK8JCt7LtD725wNqax8dhhutycscrgHLNILcmD4y+okNdGH4/Dn2dcGwsY+jRq8sIka1RZPmtZeg38/y8vj7rdQM1zZ6ePc6B1fQTN8Y4yS6Dg7gRloJG+wAGc/DcGhhiOynMZVSEiG+tq26BM4lFHh1OMBmMscVOR83dxu4fF02WkKM/5L9b+DTypwtlLBzOo+fThhR4POBKR8jJBH1g2R8rVHkQOSouTZQtpRVezAYh8oc1e7G6XwBt+0t4Zts4Islss+qhmeWh0jr8uqjXaXEq0vbLFxKjbs1yoCrJUGSuRpghrNDUfNdJMRvH3BxbyRMi1PnN8haVrTUe2mzEdVM7c9YaLVCNFJNZWmiH8q0jAPUGiUy5dVeDt50YOBJmuUP0Kd/YNrDy5H58dtQsO74LHBui4kbulLoTJloJ4GoboriN2uhlY8WoVvEY2MF3DXsR9bFqOFEuS7K93ljy9cOc3yYM6jQPrrOxs3rlSjxxl4+JHGopsLg2AS+vLuIn86lsZ+ej5b54gIRh4JKygHRblsVX3lzmx0FBo9jo8vnxtYWgYgn5PPuo78ywsYN5f0o8WeWWllJcQ10SXqyWqGxotogKsOv2Imo8nCuTdwgKVJQWK7WNBs9QhV3gF+HaNXqe+3yVAau2qbdq/K326iOlWOgRDtp5jgT5GuhtmpsZ9k+BT/vPFDCYzMBJqkoPMNc8+zig0Hz6sR0iJs6gFs2pNGYTtH6/e0OPzRx0A/bOzyGz+8q4J5CBiOmthrHG52cSNq0pPNSzs662NqUQXvGrtkzLmbdgBNL8Q+asZpIhiwLkxOq1jZlHRmaQHn+p02S2m0tgpDZrhWpWiyiIz4QAY7kPbw0XcIT81a0EXQnLUqtLsUZRaqgzZaPG5s9fGBTCu1NjW8gjiNOqYBdQOOjJjBI5/+uUQ9f21/Cl/b7+CEdx+fpAyilthYhkujL2djSaEexi25aGzm7/khDUJuU2amjK9RWxS6U+Ferlbe08fMJupu3D7n4xgDdfX59kD8rvSDuEHGIxEuBF8U5D4YjEofMrFqZdopGy3WRGXjnjI0vDQb4zqCLx6c8jNLkny8Wo9hNgoOjUHIxPZfH5MzcQS/9Tu9J8EZIrkqeTyUVYIgm4kMUwm/sd/GVA/w+b0dWo1YsJKO1ABH54RIHj+iqfGE3XZV8FsOmNuzWHqTFttBHvrjBx4XWGE7e2IdcKsWOqZERrAJEpVIQ2/fux64Do5iZ1xrGG9GUy2BzTye2beiLYgxJD5ah/suTUIdm5vFcIRXVZ3lkJsD+Ym0ecq6qcSc6Pt7b4uPd6020NzcvPcYhBh2jlvnm3hK+PWVhp2fHalVlqZBJFbDNevKcEeDcZhWiTeHcVjs6EvLYRjmfYg/97i/s9/DgRDEysRW0PBgUhG1PKQidxq19cp/KG6KOdQrRRrT7xj18aaCIZ1TalWShJCr1Vw3yRpTCf2rOwEd6LLxngwPLfGMG1yFdFTFMMzVMc8aOttwqzbsWIcJQ4I0WJKZ9E0/OhPg23ZcfDbt4YdrDVEGmd222bWUIUaBpvWOa/ve+In4y5mF/ycQ8bPq4B7/0O71H79Xf6G91j2O1/yZLQVRU5zbK07eGPLxK0vAlcAvdUau9IpeqlUq1JW2RNER/b8RhE8AsOjoqsPMKLVctldVqR0gfLi7hKTal7Lw91BIDcx5KxRJK7BzlQCiSX4+Bx4NB+QPbSZw/G/Zw91QYpTirj7RqL/1yqEvdo2K4UcCZ1ooyC5ucch2H+kc550J1Y54YL+DhqSDaU3L/pI89hSCSLa0EqR9ruTeUkX1Bi423dNhR/ZKD4Qgp55xIFAjt1X+VnVWjixNvgDLj5H8q2WqQ7RqiFoURRjUcogzUOp8DGscnpn1aXT7um2Qf0OiSeCyl2XqPJsYs+3CMZDNPP1CrP1oNibyWOobqY+yjvPySFtePhkp4eAZ4jB0xXC8Tg6B9gM00Od7aaePCdueQwdxDuiqL0NKYSq2pdmU9QasvecPCr9wUbh/18MU9RTxAP3WQmkNJWPUjCr8NLwiwkyaDzGu1ew8n/9EG8PaScHQP3Uv31L3rEeoeWWjaV/KzMR9fG3Jx35xJS7ycqiBZqhcoeVdp5qrJeohs8whHZAO94SwSx/kt9UUcQooi0RJlqgD3zQJ/saOIT+0q4MVZFdnVq/U1EfyAfvlcHv9pZx53csJTca4YuofupXvq3vqMekJIGZAs/JpK5a92FvBveKmmSr2C3gne2m7jbO1IPAyOuDtWkB+rwh4yW56VjVqHUHapwkD7qYGfpe+/d6qEwtx8tPNUtT+sGjnN61BQFuPLJMSvDXh4dKZ8fIXGc6XKUm6L+k2+/zT7rjNtRftmymd21C7UX3tmXdy9Zxqfo1n2Q1oaqmSmHcz1p0LLcqA58In+FC7vcNDGHw43gksiDiWC6CR3BcBEHAdk2/JfPcXDFoVBE2CKWlSV17URSZvPujkZ2njVanu18rF9xsXXB338aCLA9MJ6ayWao3vokhLeWUTUXz1OEMWLVAW+FqG0d9XEUALX98dDuiQGxn0DblifpKHprJSFi3MBbl6fxqaGctW0w2FJxCFIOynMoardiyXZZc3XY0BM82qGPTnoGlEWaokCM1vy4HoutPnWsQ6+RBVHhD5JY9bD7cM+fjymzXNlkqz0sKnPVHlbsmFQLrpTvCg0Ro2QBx8Z07NzeInM9yuS689pYTwwFWB3yeCkUm/VoaAvoEH1TTIh3t1t4oy2VHTWzJFau2TiUN9pqanXUTUrM4q+SnPNU0PLXK03qElqrwhSx0DspNk6MO9hnr+xjfIeClVWUzGaeKJcVv/FmRLuJGncOVHefZrjM6/GVFYvSA5UK/aAyCkI0eqEaHIsui2L74gfVB9DFuYzHOj7DszjbhLGPeyrZ+bC8q5kPnZcR3ilkKWhGikXNhl4Z7uJi7vSaE4vrUatcajM0SPh4TEXfzdQwr1k5Wb+LCKpZ8gUn6fl0cxZcEu7gXetc7CVs7DBXvB7l9DZ1YLWhPwgwAszIT6318XPJ7yIABurpPwVBlPS4BVtNn5vg4OTKZiKEcWJZBXEdUkaypR9fDrA31OWH+LXBj6iEqDqEZqiHJooH0crQR5l9goSxq3rbZzeolzXpWPJFsfrsc520cIPtwMzKnKqqlz1DGlTCZRS8R/izNgxE0TuW7MRwA49ZCK1yhfWHGXSGJ0r4R/3lKLqbZrI0pzVwuJnzbkB8kUPJ+dCZNk/ZXKNQx8FmMq7kVty+7CHz+7z8CwtjDaSXTX7qdqQcleRnma28xS6Jle1W7iBLsSZrc6ySf2oLQ4tYM969JkL9ANpwj86a0TVmbW2rRW5TJ0OgOhRsR1V6OtLm9icon+YM3BeZxrntdpr7rbN8+F20sb+7t487tNZHDTD14rT1RddVG9vaQJu2pCNqrMpyL6W0NaDu4ZcPHlgMqpqtydMRVvdFRTXo9Wp2EYWswojndVk4h0kjOPTAfpzNjqyGpPlm6JHTxwLkHabo2QOu4iqkH95wI2yEpVMV68m3yIiK4R9rrNJN5FJ3tdn45wWOyrZvxZNVyD02RkXn9tHH33aA931Nd+dqT7qIMme3ky3pd/AaU3UbmsQXNZRFPvzIe4bd3HXqI/B2RKm6XoWYNZZts5vQxX02Wx00pS6rNXCh/ocbKHQNpq0Ajk4R5tmsGLiWIQ6X6ncvxwu4MHRYmR5jPk29ikV7RiA1sBPpw14Dq/TaZpv5eB055yqFaKJNqzNeriTpvc/HgiijMY4QV7Kh3pMXNdt44RGG5mqVCQPo02Mg3MudsyHeDRv46FJPzr/WFZjvYL6IlLcDZRJlVvsTvlRZbyLO9J4U4Ws4ooRxyJCjwM1W8ALdKyfLTi4e7J8oNLisZHV1zXVgYhTsQT5j2dkAlzUauK8jiwtEGtJZ3GuBEpW2j5dwg+Gy3kaOryqWoHQpUJ9o9qh17SZuL7bwrbm1KqSqmRt1vVxNxXZo6MFPDMLbPdTkQZW38SseyoOuSUnNxi4os3CWQ0BNjfYaM1qC2Nl+rzixLGIMPAxXSjh7gkLt4+6eI6SM0cB12PrUOl6HjgJp3Je3kzS+JebHRwXnai2OuSh1YEXZ3x8Zb+Ln4370YarSpCGJt6imyMNVYlnF3kot+NK+ti/Q5P5pCZl5Fa+VxRjE5k+M1nEX+4O8Mwcx4MtqsV6MkuFWqZgfYZjrwLPp9PCuKHHxhmUwXJcqbL9fNSrKkeCYZhIOw5OoHCcmAlxvFGE43k4UAJGQjMKnlZeZOIBRebloU0o6Fbyo/NT6NpXPJ9Bm8q0P0Rp5LI0FAhVnkYlPkHBtAFOvml+zdLPkFCuFLrHNCV8uBTAoGt1StZDyrErvJQdRgrqGX7QF9gvu+cDWGEQ7Uuq5KfECeL3KfbrhrSBq0nKH+izcU13Cic2UWFFxFz5lq+axfFaaLfpPM3G0VKIl/Ih7pnw8flBF+1sVL0uf0kDyC2jS4nNOQsfXu/gArJ/q4IhFYB8WO1I1eayV+i/a7OZLISV3p38E6WLX9Js4vK28uD8ciLE/ZyIIkJ6GiuC+iUKmLJftAPzX27NYmuDVRFi0hTaP1PA3QeK+NqEgxHKm4ruygKpVyieMU8l/b9vsHEe5auf5NHKSZUxVV+m/J7VwKpZHK9FVNrfNtkgKwrW9NPcUOBGW5UVUJUw1RsW54E2k+112d7iXHQyVif9zJVZ51oGD6OVK61g/ZwzXZ8hVGLunUST5bpOGzevc3Bhi43jOalVWkHuD40nTK1wmUbPqDvIndulvS0kI1WbaqNFVubUo2+FZElHENw+EuChmYUX6xiyLk/IAu9udXHjugxOoHvSJtKga7KU7M+VoCrEIagZmjBqlE7j0ulr0eE6NCPlp6skOw2TukQhZMNdNwpQbWhwFszHo0G53J8qd6kIz09pZigjVNr6aO8oiHfkQhyfCiPSuL4nhVOb7WjPQpZXL8leB0BZdI2GCj72emVLcSWfqaFW5e9hznaHP3TaKqRUVjJHe+cxWhgPTgb4+WQYbbZbab/EFU2cQ5uzZrSC9/YOC9d3An2N6ehku3JR4dVvddWI47VQrEbb9HUOaKfOEeXPWk/W67Mc8HriDw2h/Os5w0FH2sZGTsJDlWM7ElQX4uUZF3cNe7iPlsY4SWOlE1ikIXM3R9fhna0hrulVXMr5rSU7zWW5WM1WgELJw46SEW1kWwmifuF/UhYzinmQlHS0Ywut0jJ5LA8yhJ6a8vCL0fIB6Svtl7hBbZHYbOJkOZ3m31taregI0Is6UmjPpiscJzoy1oQ4FtFA6dxAiT2JJtZJ9He7HAvb54MoNVYCLdTL4E9wdupktk5ODiVDLXecNU9fnfPxnf10T6hR6aWsGIukoWXR3+1ycEOPheNoFem4yddDc1n7T/roQzfBwp5iGG1w1D1WOkaydhQ0L1Jp9GcttHOGLPeeir98Y8jFL8b8NU96qyQWm6JEw41UtLf20croSuGilpA/k3xt7TypPo5O9VUQcle6MjbObk/jXX0pfIy+dRfVhXxgCWa9oIk9/VwhxP0ztBSKmq7LgzSzjjD47kSIVznJKgGVwSdX46PUXB/amMKWlgzSzqEFUb/Tez7I976rg+THv9U9KgG1SW1TG4/GZX2K7ptqxYzWmb+rOUA+jTZU/v5GB1fQjdxGF6U5k4bhLG9jWiWxphbHIqR9pdFUKEhndVzcHOB0zrRmar5CQL+enVfrHCINqkIw2knbxrmpGMJSodPTXtp/AP9rxMSYW14aXa5GPhgU05B7Ikujr8GJSPxw99XvFHRTELPT8mB7HuYp1Tp1fqXQ+GucJ10PF4TjaM5mYC8hNV00MUMT4w5aG0/P+NE91lwbVgAa415ad2/L5vHR7gDv29SIbY12VI1PY7Bci7XSiFUfK8Yh//+05hT9txQ+1J/C+2mFnE+Glamm3AItQ9YqtHdHxwo8RTWtXIOlNqXEyaQT1rQFPOD0Xemgacl1Izv0+m4HN67PYFOjs6y4gt6rv9Hf6h66l+65EqhNapvaqLaqzUuBKo/vnffxIlWzCOTIVBNfuGx/kYygvU9Xddr4xMY0Pry5EVf05iJ3XgeIxaV8QyzJWZugOtIWziRhXEMz+sYeG5e0mjgxZ0RnPkhGa3ELjLSIVpCUX6AVgKXmF+g4Th3LuHwH5+CI8jTa6CsrSag5jQxdkOWIo96rv9Hf6h66l+5ZCaiNaqvavBSoEM/ePF0U9qeWY2sV6r4uy8fZaT8ijZvXSXnaOKMjh9aGHN9Rmf6tFGJJHItQZ/bQArms08GH+my8nwRyGYX0OLozWtaV9VFr/KHnlTmtYwOr7Y7r47RTUsldV1A4tc39tasny4X+VvfQvXRP3bvKTYqUyCS1yCw7c2k2SvzQTkE/udHE1S3ARzu8aAfr2S1W5JbEFbEmDkEWtDrwvHYH7+9P48+3pvBH/TbObTSiwFy1BXWlUMRf2YxztLGrfXqLPnuQE0wZoSfSb6qEXOoeupfuqXtXe0VDu4AVa1Y+Sy1aoZqAF7Ua+IONKfzJ8Tlcu6GBZLzyPJnVRuyJ4zcop9BmKKlddoBNZgmtdGhrqAH/hIDSXhBx1KCgJ6gcJLuq3bKRLKHNf9mUtbBSEn+prol554UBds2UcM++aXzhlXl8bn+A+2bNmiQNaegGullrcdyCPnsdP1t7T7RnqBLWge6he+meurc+o5pQrJBdGeWYqI5mLUFuloLkd4wG+PSeEr6yex6PH5jFaMGncol3wCb2c0+l8J6f1rZxD58d0pGDAZ6gjzLs1SJtlM1PpZwrcl7tCLk+TSs72rD281EvKjG4EvLQ3+oeupfuqXtXt0Xlz8vRFNXW8bVJhVoZFKdTFf2H2X/fHg7wd4Mhvj3kYh/JuLTU6PkaILazb7ZYwstTRdwz5uH7Bzz8ZDzAr+fM6JwLnZZeq5DvqqK4nVSPS+180zTRlMtUbKlRWZb3T/i4a7iEl6aLKLjesqIteq/+Rn+re+heumcloDaqrWrzUqCcht6MEZ13Q+6oWaj85ssFA/fOmLhj2MftlPl7Kft75jyU/PhZH7FIAFuEfP55dtIA2fbxsXncNeLix+PAY2TjaXasBKOWhUNzq48u7GWtFt7U6dDMXlpjNCUlOr+cT2HWLydpraQbonwS9qc2rGnvidLIW5Z4nobgURPKdfzefhIHCX1vsXzPlWBxauggpw8qe7ilaUkJYPrYjBHiaVqhA6Xy0Za1aYuWZVvPrrF5cS6IDrlWpXjtAHA4NkqQlHu7wq6uCGJBHNHE4H+q27F9qoT/udvFpw+E+NmMgZFSPDpqpVAbJ/mf6pJ+pD8dbfJbKjSB2pubsHMenKQqVFOOV6wU2uWqDWvae6It2XokuU+HurXaINKY4AT97mCAL42F2Mu/1ybFlYK3RLNj4K3tKbxnSxtSS6xJKq7L2SYnWxAlgQ2RxGTV1TrUH69wrO/hHHhqJoTB9smy0r6iyMUt/1szxIA4OBHIqvs46E/N+PjqoI/7aGGo9kML6VUBrzqQg2jpeAMl+tpOG1d2Lb8mh2RlY5oE6/pR9qnK8K0U0ZIfBVQb1lzeU2nkWvq2D1Euv6gMVloaIo3v0YxWunl0j4XfHy1Eghtpabyj1cSH1qei7OHl3lNVyl6dD7GvoGXu+oDymLIcIFnb2vw5QbfFInGkeCkgXFYeK+39o8OaEodL7bWT5ph2NP5g2MXd9JVf4uCrXqTMNumctemWykMT7O0dNq7ttrFehSGXCfVDow10qXgF+2eMlhj5dUVY7FvKJJ6gja+9Jz1ZHbCtcn4Lv1wAZRcvz7qReyJLQ6QhVGJ8+kkaV7YauK7XxhY28mi21fOxo78bJQG+TBmqB6tDTVi85OaOss9fZNte5oDNc0C0OteymmW+DoM1IQ7lMcwUvai47o9GfDww6eG5uXI1dGVVLnZWPUDaTxNzHU2na7sdXNhqR1mvRwOdVStzXlbBfGBgJye7DnqW5llJf4l/onOAKZiOYaKNwqj6G4vzV6QRrZ6MeOWYBt2TlVoa+kztgNYy6hXtNt5BQj2pWccmaCIs/876M5nxSj1/Xoe+1hHUG7oUvxkngxxgG/cXA0zyq8a+W4H2w7iYq4EqEkd5b4aYc6wU4EcHSvjmsI9HpoKIMLTPQJOsHiF/9YKGEG/rsLClQfkbRzvEdCM4m5s4sRt56VDpVyhNK7XM9LeKU2iX6zDJQ7kFGd60gWay4k7arn4nSUNlChUI1XtX8nmLEDHJCntnr4NTSBqKVRz9nWm+84ZzdOX2zbgY8SvxhPGD5oiUq/Y77S2EGObcoWeHDhK9KsYbfEdZvFa3/VUhDhGG8jG0P2NPPiRZ+Pgve7zokBxps6NUwLGHJobMyeOyJt7Z4kf7D7R6sbJBLUfXe+nubMmZ2EczQccXauew9OxKu3IXBfJljtG49tIEAXaSnb53wMedtA538UMqsXqi8e5ygDObDPzz4zI4jaRRPmNlZTeX9jV99kfJw/7AjvIgJHv1CDWLhjpeIou8QtOti1aHNlAK8l6irffRT6sDY7WrnC+SxjNTLh4ccfErksb24mo2ae2xKKuNnAw6q/NWOvGnN9NKiKJZlWv74vEIf78vxPcmysdwVioJi9wR7T0RlBG6UsIQdDfdlx4b3tVm4OP9BlobsrSiZGlUBtLGQ/zv0UkfXxooUSuXK8pVrtfjBSleHY1ATw+nZoG30oJ7S2cKWxrLleNXq92ranGoCM+LMwG+N1TCt2kDPxxlfJIZF35fr5iDiUkOZk8a+FebLJzR4kQH+y41b2OpkMujs2s601ZUnHeIZivnS0UCg+K4Jt5fK1uVWDkRFNPoojQrpvGevjT6G9MVJQ1BhksTH349rTzTCPDrWfYJ+0arc/UIiZRcFWEvFccOMvNu5X/QDNXOch0EJsu30lgF4ggxM5/Hjqk8fWID3z3g4heUZqXV5inU9UoaMsG15KoJtxUFXNXk4r3rHFzUkUEDbcfVGDxB5NHIydjjBNHS6gFOkjEK0ErJQ3+uSairEo+u5ePNKeD6DgM39tpRQWQtK1YauqP6WvGObk6cNm8+Ot1smmQ+XoF+iRui9pa/jRIodRq/LM8XSSAjdC1n5+eRCkqRK7iUhLqloqKuCp8bT0x5uG8kH+VkDPl29PCK/EdCWH5bXUJta7dDnEvr4twGD6c2GNjUlEJLhrOlCijUwKHTH+3WypKNLSSNahw6rS4Yms5H9UyfmjPwCBVYlOuxsBpRr/Io5ay291KhdFo+umj5Xtju4LKONI7LVabVKyaO6EwUP0AhNLEvH+DrgyX8dNyPTqmXX6yDl+oZMhO1pNhN0riiQxaGE62cyFyuNkLfx7MzLj63L8Qz0x7GKEHygdcK6gH52dqbo8ruv9dv4DSShiq8VRflYO/T0z5+NRHg52MlTPtGVL9jIYxTt5B7qLjSGY0m3k3SvrrTRotd3hh4pBqzh8OKXBUFosYLHnbPFvHULHC7ytNzYCYprc2cUPVmFr4WappqKWjF5JxGA5e3AO/bnKNvbUVm8lrA0GY4x8JmMna+6EUJQ1pt4TCtCTT+vQ5wSRPwwQ1pbI3ck7XQJEZ0sJTG5kRqsnSpBJPPodNkVUBaKQL1Co2BTnxTPVbFwFwyZT6q51pe2lfx7KPxGI/a4lBfP0cGf2iEpDFexINFLX+VX69XLLZN/Sy/+R1KH+e1jcK4Llp2WItJ8XqE0WrL6FwJ/2u3h3umy3GPtUAPNdtlzcAnNtnobEgtBEKPQkorDOWm7J9zaZ3R+hgPcDddmHpdtn0tZGEV2dATTRen5Qxc2pPF+Z1p9JNZljsqR21xvDTj4ZuDLr474mO3K7NPqSf1C2lurZTMhiH6Uib+YL2Nd1Gdbmuy0RwFP9d+QpRB85PPkuUzdWZsDBSBV2kaKjhZLQtQnyUX7qJWO7I0NjXa0Ul91c1tPDSUKKUEuv4GG5vo80vr3jurrOUwqumxCjHbWEDtUg5Q0TAx6Jt4er6sDLfSatbhaMvBsiwO7YycKrh4eFwrJcDj7OxhLZLXOdThnXTWT8wBZzYE2NaawTYKnE4c00DEE2GUWbpzpog7Vd9hnFqW7KeY02o9sSRBPvXi6sk7aHJsbUqjHI+LXz/pebUvan8+wAvTBWwfz+PFgoNXSmYUH6r3+IdGZAMt5Te12Hg7LeezWuhmU9iXMlJLJg714VTJx72D8/jKSIBXCgYZOq6TZuWg/Ed7A3R4ks51uaDVwumNBrZmQrTnUuzc2mh7OWDqRdmfKlE3Sl9XKeOVdqrUX7LKOqm5bupAdKTFyc1rEQg9CtCKDHwXe2dL2Fmw8MycgV/TjdEBT9r2QoUcCyd0NaB2aTn/lEYTH1+vREVrSdbHkl0V+YU75nx8baCEe9mx5VPJFn5ZZ9BKgA5aazMDnNVs4qbeFBnZwfE0uXPRGSS103AFTHUWjQ50LvgGLcTysQyVVqayyuiZRMldytM4scmBU4Ul14qArophWmjNpLChwUF/xozIYtIN4ZF4lb4tYqxHA0Rt0gbHV4tUKPzhxAYjCvofyfVeEnGo0/bMB/jpiIcfTcgPPLpIbNyhpUu6vlFFrPNpXVzV5ON6koYyP7VbtFahoGRrysJGtsvwfOwvlV0KCc1Kh1GyIWjvyfVtRpQRquQurWLUIuR56sS0PpplG+hydfoeTLYlT+taFqhkJLbe6VFCBoAya/eTPLamA/TSBT/S+C1pdGVt/Jq09OVBt65XTsaCEC0pAzd2mvizzTY+dFIbzuxIo7kO1pWVOXhSkxXtD9mSM6LDi7Tdf6XQPXQv3VP31meUN6zVNjo45peSDT9xcjP+3fE2rmo3Ia9LMlKPULNUsvDzgyGenlt48TBYksVx76iL2wZL2J4vM1M9oonCfmufg09uTOEtHbQwFmpwlt2S+mi0zM8UXa2Tm2zM0Awf1g7YFc4DJb9pa7x2uerg6krvPVk7cOTZX5KBrGNF2/63NVigYYVX8iEmqXNTVKH10tpFvEK5UAC9j1ZHl5bGDoEjEod2Gt496uGhKT8y1erFRdGatvigi375aSkfV3WneHFSNVr/tLxajxypdqlqVCvNcRUTm6EJeTSVxGTeqnKXYhqqp6Gt8cpErDewu6I+U8Cwh+6qzPgGEoaRL6BE2pgNy5s21R/1AE0L5SgpznN8VDum/PrrcQTiUOqyj3vG/ahGQz2hm6bo2c0Wrmiz8NaWABd1ZbAxJzNbv62/CfBaiPzbqDo7bU6AIMCBEjBK6ZeQHKnl4hitwKtGqMr9qXKXtHE9uCdHgiq3dSj+kQ7RExbRm7OjE+YX09frgTy0MCArtI2N2ZQtK5iD4bDEUfJ8/JpuyiNUSUMUrlqGaE+pxRrcTRmddWrhnd0O3tZpU1uaaMs4CxqzDkZ/CVCsV+Sh1ZaipwI+iLYQeGy/f5hLUPlCFRZWjVCV+1tZ5a7agvJ2FP/YmAW2NaWiFH/1i5LetDqhSScOreXekGehA6420urYnFNL3tiaQzoxYRhitlDE2GwxOnujVqEmiyy0vJblN/0Z4KZuEx9c7+DN9M07MzqvM8031vJQHw2MaIfqCc0pvLc/jXewL/pSAXKkjvQhLv1O79F79Tf62/Iu12Or7yzTQktjI/qb0rhhXQp/RPPrXZ3a2BhGykekfCgTvxaggPcYTaiJvBdVgTsYDpkAJuIYn57G/3hpFr+YS2PY5OSqQYg0aE3jzAYDF3elcHoqj3VNOWRTzjEm7oeGrDFpyu1792PXgVHMzBfKv3gddMLa5p5ObNvQV/NatZLQgQxRDZrhKTzotuLJuTA640WrFLWK450A17UCt2x00JrLRoHi1+KQxBEEIQZGx/B3O+dxXyGLMYuqukag4ZqiMdVihDi70cA1dEfe2ulEAa6sEcBZhWpc9YBCyUXJ9Tj2B9cyOpZRqzIZkm6C34b6rEjXfja0onNv7hx2cdeoF1XkmqdAard4rUjcHJ90k+nhpmYXv7MpHR0G9vr5ckhXRdNP5LGUgFlcoBiGBknG8wUpD++XS9KXwmUdDvroqyixRyeEJaRxcIgQmhuyaG1qOOil3yWkcXCIVGXFagnzuAYLV3U5+ECfgxs6TVq7JsY5lySftQDFbGQs+aFsqYM/9GGIo4xoT2MNzDNF+hX1jgqW9Dj4MAftll4HF7fbWKcAR82jRqSuIqjttsqN20ryUMmF91MOJYvvIpGodosUcS3sC1WtjpRpc+4ffO4Yh3NV9o+N4wu7CvjZfAZDRhp2TAc0RS9T7scpTRau42Bd0mZHGaAqqFMrQSr1rOIM2oE8S7ofoXqa9pQaHkZLfSpakGNjdGnjnZYFFeyV9aQ4Tq1Ro5whaTXF0lRkZsItZy7OshMKfE1FdrQZr5mzsJ0N1EqGFIMmpca0Noa1fDyDVquUD/WTER1C5mEX3RdVzlP744h59u5JqQDvaQvxnk0ZNKZTb7DSD0kcGtDJmRl8eVcRt0072BXQjP2nnQlrDzVDAqRlox64OKvZxhW9GVxICyO+W90PjpLvI08pmiJRTPB6YdrFfZMhnpkLsKcQRmnOatEmksVGai1VHDu/xcLGnB3FbTockgqJU+2Oe9M1kXTeybwfYMw1onY/P+fjsSk/OvjplfkgOpZBc6qHbduWNXBes4U3c1w3ZC00m2F0FGaOv3NqLEt1hu36uY46HXWj2McYlYMKeGvNUsMWp6E7JUPSoKv/ns05/vTGfj4kcQghfZyvvzqHLw0HeL5goilG46S8lC5qoRtoYZzrzOH41jTa6YcrRbiWICp+fnQWDw7O4/E5AzuNbLRTUVpKGlcp/ouKSd0vYtD29SLFrNE2cV42xIVOAed153BCawZt7JM4Qyfd75gs4NHheTzsZrCTE2h4QfUq/K7+WFRPaq+srVleIZt1OjvkLMfDGa12VLlqW3NtxVvUSrdUxAjZ4tl5E/ePB7hr0scgrS3Js8Y7Lji/2cSH1qVwJd3+g+GwCWAyT8Y9g4KM6EzOOEBmVHvKxNvbLHykP4VLOxxsbE6jKe1EVaZqBQFJeYgMoH1AXz4Q4o4ZC6/4NgrUQJo4Gi4Jk1okeVqUKY2Cvo+yJ/hGnWT+RMHAriKdGf6ynX+kBK04YiAf4GejHm474OOBWZR36bK9alOUsLuA17ZXRKm+UDKASv+/7Fl4qaAt78rNMaLMRlla8Wzxb0PPqByQrGNHh3uf2GSjn5qBxhfnWXnHchyGTjVKz6UFfzmVsubawXDEvSo6+2KIxKEzSic4yGvRME0kmeu9jomz7Dyubg5w7focTmPHR1W4aKYrql0L0HLnyHwRT84Y+Dkn0c/HqX0oMeO+aj7Q1eB7dMmXP1RXRwK48FWR+rnAiA5kOlAKItNX+wwaOdviMp3keAzSsvgBzfQ72eZn5hTLKBcJFmmovYdtK//TJTko0PRQ1a4J/rEqd2mjnlGYpzUcRrJ6qGBebEBlrNKFiteI4LX3Zb3jR5ssA7Ztmm0b5pXh+9Zi9CbYyVpgeEengzPpDh9q/9FhXRVBVuQjdL6/ut/FD0e8ihwFuFTosyUwvTS/NzdaOJsN2mYWcAJ9/PVtzTW1N6DoedGZHk9zhj877WLAtSMNrCAoZb8i0Bj30t69tN3GtR0WTo62uK/tRMpTne6YCXDHmIcHqXl2s82LbthKwTkX1QHZQvdlE+Xj9JY0Tm9yjqr47loi77rYNQ+8yGv7fEBF4uPl2SA6OlUxoaqCffp7faloRXKDTI9D4IjEIWigf0aT+tO7ShiglFejMVrBkQmqdfGLyXxa1lrPhqzV0QNHg4C+Q4mDr2ppe+aK+MmIjzvGQ/q3AQnYAHkw0raVhOIfige8v93Exzba2EjTY62CiD7bPzjv4Ut7fPwD5UcmQ6X9eHGu9onk+VlvIlHeQp/8rTSx5cKk+dtaS/aTNbVj1scX9rl4eY7WKbtN5Qtlna2motSttTr5plYHH9uUxjmcc4fDEV0VQQ/cwAmrQqbPTvtRwErcsRrtkIhrh2q3GeCCJgM3dadxdQ8nQK62ougcf8zSKVcdyx154IfDKsMf4AA7r1F9yc5bjf7TWGU5OmPzblTNqSdjIeccXghWC3Ns/4szLr4zKheqvDJUaeie6kv1qdyXISq2fImfxdcCr4i0bUU1QmqFO+QadKaBzRy39tCN4laT1AQ6XvTgYcrKwKHMrDc8/LPjslGJhCMp6CURh6Blv3YrxBQ159NFM7I65EZUEnpW1cd8J/2rGztDXEPCOLczRe2hugA1MvIL0Lr9/WMuvjng4lsjAR6c1kFVle+zg0GxkrxhodEm4TbY6KDVdgQ5qDikWHbRNfvRsI/7pvyq5Sxoh+qL/NwnZ3zsmgujkokq+6iYQq1Asq6g5Em5MKqotiljg99iLwlxtaz9BuqWm9p8XNqdQXvaOiLJL5k4JHhyHXTTsYKPAzShZBZXwnySBaNd+900Lz+y3sY13Q5OaXbQkSmf/FVLnOFyZJ+gL/+dIRd3jHp4mdaGhFnjLdmtVlP0ecMkqhPo3m3Klq3FamKeTPEIG/4NCooCt9WC2i2zXqs1HAJaewEmqOyyQSmqwVITVdcJzTe5Wdq235+zojR2HSu6g26uyndWEl2cd1e22Xh3fxY9WVVxO7KsLJk4BB1c00Im7KVtOMfRUZafBkmDdbSQPOvMkgubLbxvvYPLlehDYdcJ74o+1wKkBUq0KSepER4gaXx3yMO9kz6G+POiWycnq9qt0dkg6t/ejIkNVU67f44a/84DHh6ipVUJ5bJcsOlR30+QwHbR+pO110S3pZETUe6AlFHspYsPqUmsJEdZTetoOcoyUAId+bCcebvw1qOBZGM957Jq07x7XQrHNdnllamF3x8OyyIOdbZ8n3UUxGzoRSeDRUfn8+kVwNFA6T2HE1ENqC6dv7GVBHFyg4k388Gv7rZxeQetDHaOCKoWIMKYI3nun/fw5Ogc7pkCfjTq4xE6pMoKXGvdRoWLEU6Y9fSZz2uu3lJlGPj4Kfvhdl5aXqReWDMo1qSl7iHPxKirOEgAz3M5NgY1ermmaC1Im8hXyX39nB/abkA9S1dUafkG5imINEQiJjzS3JOi5y2iYlbHc/5d0mLgqk4LZ7Q5y+oLYymrKgfDbD6PgZKBlwoWnpv28CA17H5KqkxE7bfg8/3WxNFDi2iUT6Iyc29hyy9qlQlW1oadinDVxBCWofaNFgO8NBfgsbECHhyawQthA6YCo9zOmDRllAJ1a3eAv9xkIdfQuPDq6qIwP4f/sCfA54cp4CvSiZWD8hdFpJwjeFPWxfmdWZzZmsJmyp/OEaktlHNYdlL2XuZ1H82pJ2d1ZnB5/4va+vq5p5+p76NU/Q2yMjj3TmgwcFIWtPBJGHYqeu9ScdTEsQgx+iSdrscmSnh8OsRd08DLBR++H0QpxItQaRjFME4hSZzdZOHGHgcbOGi1tLyqKaDNf3LZ5WfePeLiezTHH6aFMREaaIvCkvGCChHf0DCPP+0LcML6dQuvri4GRkbxn/cBt02lozoUcUQjlddl7RbeSTnU0qO4Q5ZRrZVciA5Kmy7iHw+E0T6fl+mWDdOseP3ca+I8O50WxpW07k/moGjlREW55a4cDVZMHIJM9vLGpRBjJfqVUcnBPKbzxYV3AM3ZNHqas+jk10bS3+JD19IwlVwXB9iuR4spPDNOlp8LsZdNlL8pSzGOc2SaT/U2axx/1FHE+duOX3h1dfH0nkF86oCFn+QbYrUx8rWQ3Mlk30xF9uYWKTMDFzQFyGXS0alutQLZ9l4QYIpumAoIjXPujc4W3jD3OhszaGfb2mkKRxsESZAr0dkVIY5FiEBkgbhsiOv5UYMWobV0FdFRpFgTrIYMjcj8UxzjoQkXd9DK2FUyEbKhSu+WWch/scU0LaG3tLj4/T5+7W5deHV18dALO/GZsRR+GbTHljgWITlUED5thTibJruO+zy/1Yn9ZsHfhpZpjcPOPR3HqTwoKetKzL2KKkk9EA2JqOp1S8ZBRy79T5d+1rFyMglrgjRCcrlXwmTRx6/GXXxz0I02Zz05a0SnvmtT0uKKSZxhsB2B6cB36MxWCWFIRlXmUg1AwULVARmgPf8QXe1vD3n40bCL56f9yAWP/wgLZevhcHNPr+v3lZp7FSWOekGRptMgzYlHRwr4IYXoG/td3D7i43m6JpoP2q9TUx0X8mmD6j2xEphqJVQgp0QnANBbiXbfPkbC+PYBF9+iotBBZE9N0O0uUovLnE7wT0iI43VQrGYfSUOFZj+/z8fn9rm4a8LHgHySBHUP7ct6cjbAt4c9fHWgFBWyemDMjVbQtPcmQRkJcRASBy1laT9F+VR+H3+3z8O9eTvKkNUegWruCk6wttBYa4PiC/kQP54x8bkBDw9NBlFNGvJHFMs71inkmCcOBZQm6eg+uG8Kf/XcDD7ybB7/eW8pqoOZIIGwm2bIv95ZwK3P5fE/dhej3atFCs6xLCHHNHGIHJ6c8vAZCsP/O2TgnmnlpOg81fLyaoIEgnRI4AM76cJ8kybo375axPf2l7Br1ovyKI5FHIPEEWKaFsYuuiT3j3v4WhT49LC9YGI6KFfgipJYEyR4DSQTBjlitBji11M+vjLk4VuDHh6ecLF3zsOcJ1Vz7JDIMUUcGtY9+QD3jLv43pCL7/L65biPIQqDzd/VTtpPgrWAMkuV3qFleFWg/+Goh+8MutGpbY9Mehgp6gCjYwPHBHF4YYipUoAXZnx8/4AXVVf6Ck1N7a8pBGFUvf0YNL0SHCUkK5KZUVqu90wG+NqQj6/u9/BjEon2j2jjY72v3tb1fNHYaQAnqAnuHinik8/m8Te7SniGvqqW3RIkWCkU/9BOaC3Z/9nLJfzFjgKeoiszS9dFKzP1yh91TBwBRsgOD417+Ps9Lv52jx8dJSBNsZbbvBPUJ7SEq4R+xT/+3c4ivrqviOcmi5jOq0RV/WmpuiQOZX7euS+PL+8t4MsDJdw94WGcWkEBcDU44Y0ElYbkSgpJOT8DVFg/GPXxxb0ebqML86ux6pVOrBbqijjmODovzvi4fX8x2lfyUw7Y4/xZlbgSJFhtSCEpeCqS0NGdv5oJ8QPKoLYs3DPiYqQY3/Nil4uaJw6Nw9h8ES9OF3EfLYtvDZbwhX0lPDFvgMZGVFio3gNVCeIHyRy9FuwoAPfymy9SGL93wMWvR/PYM5XHbMmr6fhHzRKHOp3eB8ZoTdwzNIcv7snjM3uK+Mqgh6cKRrTdPUGCOECB+F9MBfj/dhfxmZdn8Z09s3hkvBDF3Go1f6wmiSMiDQ6Gjv/7Dpn8rwZT+B+jNp6aM6Jt+61sVV35YAlqGpJFyaT2yN3n5vBvx7L4V7uAB8Y9zEbkUXvsUXPza77kYsfYDH64axKfI4Or/H5Iu7DHDNGQJIoniDkko5LVEs3lv9tTwpcpwz/bPYHB6Xn+tnYIpKaIY/usi6/uK+BTe3x8ecTALyf86OxV9bcyPxMrI0HcIRmVrCoGoizmO8c8fGHEwqf2BbhjyMW4tt/WAGI/13z28FTBxcNjLv5hwMVtI4pWG3ixaGK4VP8ZegnqExJb6by9xRDPF0z8chL45pCHrw+6eHbKr/ihS5VGrIlDcYyRgo9Hxwr4xkAJd4z4eKlgoJDYFgnqCAqQKlD6xLQflaj8/lAp2h6h3dtx1YvxnYFhiNGo3idZeMDD3VMBLBKJyrwlSFCvUPr67aMeXfJSdBpeXOvCxJY4VCj48fEC/m6/jzvn7GR5NcExAYm5TkX88oiHT+8u4qkpneITP+GPLXE8M2/ip1MGnskHaLGSNPEExw4k6yqerKNEf7FvAq8MT5R/ESPEkjgUWX5gIsDzs+XT4JI6GQmONUjmQ7rmzxZSeJJX3GKlsSMOGWUKDD017WOsGCZFghMcs9CmuQHfxtN5CwPz8XJZYkUcUX6/G+LhCR+76KIkcY0ExzpUFGjHnI8nJtyovmlcpkSsiMMNQ+yccfHIrB8dnFtPSAyn6kGS45e/rXloqXagEOIRuu5jxfLPcUCsiEMn3A+NT2M3zTJ6KnUF7aE52pPBEywPWsGc1K7ohZ9rHWP0Up4laYy6qiq28OIaIzbEof6QxbFvtlg+k7VWzhA8BHRGZ7sNXNZs4G9OSuOT/Q76MybmYzLw9Qj1bXfKwAe6bfzlcQ5OazDRZJXHopZBg4PkEWK04NHiiAcdxoc42DlFds7QTD726baHg6yKE7Imrmo18f4eEx9bb+DiNhvr0yYckmGSIr96UN86ZInj2P/v7Hbwuz0+3tVl4qJmE+tUmqtGISWqqnbjMwUEMRGg2BBHQCYtuC5mi260P6WWIK8qj/KJ4adQy13TZeOWvhSu70nhnLYUWlLs5pCkUX57glWGuruP5HFpRwo39qbw7l4HV3bY2JQxkKdo1Rp363l1ROnEfCGJcbweYtKS5y78VBuQL61StEKn6eP8Fgvv6nFwNbXdee0ONjY6MOwaVnU1DGnphmwG25odXNZFEieBXEPyODkXotUxIrKXCxDTjO43QBXTi1SsIb/G4ZFjQxxadjBrJK4hy0GDRyMCtmViUzrABxvn8G+3pvGudSlsyJlRMDRBPJChlG9rsvDhfhv/fjNwWZuF5jTJg2NUOzF4AwZNWolVHEQrNsRhmRYyqXQsOuVwkKCNw+JXA5c0mfiPWxx87ewm/P7pvejLWUizRxPOiB8Ue2pO2zi1swl/eUIGXzk1i39NIjkzu/CGmMMiaTRxfpg6hzIGNkdsiEPxgYxtoac5Byem65bqrEYjwHneJG5pB967PoUL2m200qlO0/JQGxLEFxoei1ZthvK1iST/jp4U3ttr47LGAMdlDGQ5wLGZEK+BQffE5nO3N2dhmvF4wtj0kwY1xQHd0NHCgTWjzooL5AunyAqn0cL4AAXtn21wSBo2zm+10EHSSPii9lAOoFq4tMPC76y38MG+FG7utnBc1oj0ucY8LhCh9aYMdOZSJD5N2bWXuNgQh2Bzcq5vzqDDMdb8xHjJjSLw0wHQxYd5S7sVRecVw3jr+kac2uKgndKXxDJqFyKP3qyN89rTuLLTxk0c3xu6HZzZbCFLJaaxX+tVGCVQ5/icW0gc3RmLFkc8BC5exEFzbH3GxJmNFrrYUWvVReoUxSpEYBvSAa7tMPCR9Q6uoVBtabTRnMtGMZkEdQCa/o7joItypxUYkccH1zm4tNVArxOgiZpBBLNWE0WkpblwVrOJbgplXLz4eBEH2XRzk40bOXjKh9CAVROLeRYNFJYTSfMf6bbxXzb4+Oc0Zc9tsZGLRi0xMeoZ7Zyc1/c4+MvNJv7P3hJuoiuzlb6CLBChmtaHPqudsnh+s423d6ciEovLhI0VcZRh4mxO0vOaDKyzq2skjgUhbBoSl7ea+PPNNj52XBpnr2tFcza98I4Exwq6GjK4anMH/uz4DP5ok4MzdFo5uWO2ill8M/ysdlobJzaa6NGacowQQ+Io+56nkzzWN1gYXeUsUi2vTnGAmkIfNzZ6+JN1wAfolpxElpeF4ShQWyP5JQkqB+UUaaWskVr+3BYLH+mz8PGuEJc3+JFcSGZWOwckMEycnA1wZs6P3YpdLIlDfXQCSePyDjuKd8gSWA360Oe0OwbeQ9P04/0mfndjCtf0pMnwJA07ll2TYA3Q7Jg4i4rshr4MfndTBh+lYrm0maSyyiJydbuJq7odbGzQSSzxQmxnRytNtLe02ng/J/XpTVbFg0JqeH/GwDu7bNza5+BmCsX5HVn0NTjROn8Sy0jwGxhociwc15zCmzszuKXXwa3rU3hbux0FLisJ3S1N4byk1YqW/i9sTaExlRDHMmCgP2fhnT02Pr7OQX+qvJ4ty2MlJiItz8jK2JozcQUtmo/xxmfQFG3LpmBbWilJCCPBwSHJkButeMPbqdBu7XdwMSd4f5pWiRlGyk3Lp0drHUs2mymCW9MBPrbBwUVt5eTCOMpkjImjjBaaiRe3Wbi2OcAJWUTWgOJT6sqlDNDie8gVaODf9qYNXMH7/Qndko9Sa3THLOiUoHZwcrOND9Nt+XC3iYtyYWR9+EZ5l7SwFPmULOv9EkMleV3YBNzS7EareosrOXFE7GeNWFjFWW7oBv58Swp/rY1kXWV3YpK9ro4/HJTAoxT2N1Ez/MUWB//2+Ax+f3MaF3fa6JBNmCDBCrC10cY7+7P4kxNy+IvNNv6KMnoBzQbtLZHsHQ6ynAf8EB2U7/fQspZ8/+HmFK7j/ZppacQtIPpaxH7mqO+0A7W3uQEnNjl4C90LJWP9i00Obu6wogpP40GIQQ7ACEdinEyi7we9kNaKgbe3W/j9jQ7+2cY0/9bBaRzUThJGmqMS54FJUBuQYmuiVby+wca57SlcTaX2CVqzt66zcUGTSQKhPFIWJZOSTcmovpfSk4Xxp3SV/+y4NG7pS+PcVgVCHeSyGcpmvIXTOGnbqeH2F55d+LE2UCJRTJVC7CkE2JlXEVcXc66PkicTJIBhW9GqyPpsKoqT9JMouiKyWLjBGuCOARefHXTx9Ky/6tH410K5AG+ma6bShZeTOKuBh1/Ygc+MpXF30IHmI9qElYNyLE6iiX9rr433UlGsVW5vXoqLcrm7EGKgoGM+SpinbIYeWcM0kaJsNjo2ejMOTm60+NWI3GiRUK2gJonj9Qg9F0XPQ4Hk4ZM4UraNnENz0eFEiTYFrT0S4lh9xIU4fgthAN91MR8pNo8WiIkMZTNNGa3lIk/xmFUrhAYgk8mitakRHS3NaGrIwUqlY0MaCY5hUAYli5JJyaZkVLJa65XhkpmVIEGCZSMhjgQJEiwbCXEkSJBg2UiII0GCBMtGQhwJEiRYNhLiSJAgwbKREEeCBAmWjYQ4EiRIsGwkxJEgQYJlIyGOBAkSLBsJcSRIkGDZSIgjQYIEy0ZCHMcEVFFmKfWoEiRYGhLiqBJSFqKiQ7k16HHTLcIqzi38VN9QTYu0YcRjS30dIyGOKkEFndTZ1e7wUJOoVIA9P73wyuqjKZdFVrVQqnxweIZ93MArOdli9ZF0cZUgi0MFq9eiXKEK4TZUcaQbsxlkUw6MKhOHrA2HHawrweoiIY4qocEO0WCFUbX1asLn5G3MZdDd2rzwyuqjmcTRROKodlv1cRm5g/E7hqTukBBHldBqumgyfVRTplVFWy5SW2MOve2t5RerAFW56m/KoLPKRa4cI0SzGaDNrl65wmMVCXFUCZ0I0BJ4sHxN5+pgWjU4syZOyCpUWF31f1KjibN0UHMVkQkCtHtzaHdnFl5JsFpIiKNKaG7I4ryeHLa0OhhZ5YO0F7GevsKNXTYuaqn+GsPJDRauaLNxQjrEBAlstelSRZl1RMEZXc3oaW9ZeDXBaiEhjirBsiyc2ZLCha02Gug/SNBXiz5kqOv+l7VZuLjdxjotN1QZbY4ZnWGjYwxz/PjVFjQdfnRqS/lsE8dOghyrjYQ4qgYDHSkTl7SauLnTjI6iXK3gv0NK2mS6uISKdzNJQ4dPVRvkDfTxs89pBk5LBWBzVwVqWgctq3c0+7i0FVi3Bm7ZsYiEOKqMUxpM3LrexlW0BJosksfC65WC7kejBtdwEp3SADRW30v5J+T42SdmDby9zUC3AqW0tCrpsogetNSsIxf/sM/AeY1GdPBzgtVHQhxVRtq2cHxTCu/vdbAlo4OwyxNA7sVKsPj3DbaBkxptXLepGRuaMvy8tRtih+7ZuqYsru5vwLl0I9RWneZeqbbqZL4+MsctfU4U22jOphd+k2C1kRDHGiBF+7o/C7yvuYjzGkKkqSbnVzib5vj3IRnoXGrdf77BwqnNdnQw91pDSW+byRgf25DC29NzaPPy0bOuBOorn007ntbb+3vtaAUnDm09llAXR0DWIpSYNVt0MeKZ+M6wj9uGXewuBOg6iniEll1P4yS6qt3C2zptnEj/JG4TqRiEeGUyjwfGA/xi2sDTOq/xKKCgrw5rvqHLxs3rHHSTmVqdxEWpNhLiWFOEJBADr8z7uH/Cw73jPvZRnQ7TnvcPs+RSXDD3lUaeI9Fc3GbhsnYbpzeZWEfTPa7at+gFGOHDb2cbfzVRbvNwKYyIz6PDppTx7EHWmjy+VOLXLr5ha87E5R0220uXj5aMeDbhjOojIY5YIMQYJ9CzMz6enPTxDNXqZNFDgROt5Ptw/SAiEotE4ZgmLNtC1rHQnbawMWvi6i6LVoaNRs28GsA8G7Ob/srdYy6eo+UxWPAx5QZwPR9WoIPD2VY2xWGDU5YFxzaRdmycSpfk3BYL5/DqIUEmhLF2SIgjRihxwgzTXdk+7WNwtoCpfAlzbgnzJQ8uTf3MAmG0ZtPoakijM+tgC7Vud1o7QmsrXCUrYqLoY4csrHm6bLNFTOaLyLs+CdOPNqrlUjYanBRa2M51jVlsa2ZbSRiKmyRYWyTEEVPMFIoolUrUwh6KJA4hl0lBe09y6TS/1wpCvejcEPNs73yxGO3Eny/IMQHSJA4lc6VSKTRltJ6bMEZckBBHTFHekR6WPf7F7elkjUWqMMQgdYRwoY3HSntrHQmFxxSaJ5ospi66IdGlibRw1RsW23WstLfWkRBHggQJlo2EOBIkSLBsJMSRIEGCZQL4/wGSHwo3pyEhmAAAAABJRU5ErkJggg==;" vertex="1" parent="IYNB7ZwwtuiIuKCf3Mfz-34">
          <mxGeometry x="348" y="9" width="49.81" height="50" as="geometry" />
        </mxCell>
      </root>
    </mxGraphModel>
  </diagram>
</mxfile>
